<svg width="154" height="203" fill="none" xmlns="http://www.w3.org/2000/svg">
  <path fill-rule="evenodd" clip-rule="evenodd" d="M77 .003C57.273-.194 20.297 9.673 7.31 48.77-8.028 94.94 2.91 145.423 20.39 169.155c11.938 16.207 30.982 33.612 56.61 33.612s44.673-17.405 56.61-33.612c17.479-23.732 28.417-74.215 13.081-120.384C133.703 9.673 96.727-.194 77 .003zm35.486 26.81c1.806.685 3.669.202 4.161-1.08.493-1.282-.572-2.877-2.377-3.563-1.806-.685-3.669-.202-4.162 1.08-.493 1.282.572 2.878 2.378 3.563zm.668 17.423c1.929.13 3.568-.875 3.661-2.244.093-1.37-1.394-2.584-3.323-2.714-1.929-.13-3.568.875-3.661 2.244-.093 1.37 1.395 2.584 3.323 2.714zm15.441 3.083c1.092 1.585 2.901 2.24 4.04 1.465 1.139-.775 1.177-2.689.085-4.274-1.093-1.585-2.902-2.241-4.041-1.466-1.139.776-1.177 2.69-.084 4.275zm5.804 17.05c.746 1.773 2.383 2.78 3.657 2.251 1.274-.53 1.702-2.395.956-4.168-.746-1.773-2.384-2.78-3.657-2.25-1.274.53-1.702 2.395-.956 4.168zm2.823 55.654c.272-1.902-.615-3.601-1.982-3.794-1.367-.193-2.696 1.192-2.968 3.094-.272 1.903.615 3.601 1.982 3.794 1.367.194 2.696-1.192 2.968-3.094zm-6.165 21.293c1.295-1.427 1.514-3.328.489-4.248-1.026-.919-2.906-.508-4.201.918-1.295 1.427-1.514 3.329-.489 4.248s2.906.508 4.201-.918zm-37.585 8.411c1.933-.036 3.478-1.177 3.453-2.549-.026-1.372-1.614-2.456-3.546-2.42-1.933.036-3.479 1.177-3.453 2.549.026 1.372 1.613 2.456 3.546 2.42zm3.279 13.555c.228 1.354-1.132 2.708-3.038 3.026-1.907.318-3.637-.521-3.866-1.875-.228-1.353 1.132-2.708 3.038-3.026 1.907-.318 3.637.522 3.866 1.875zm25.71-39.712c1.367.194 2.254 1.892 1.982 3.794-.272 1.903-1.601 3.288-2.968 3.095-1.367-.193-2.254-1.892-1.982-3.794.272-1.902 1.601-3.288 2.968-3.095zm-25.816 56.477c.332 1.332-.921 2.786-2.798 3.246-1.876.461-3.666-.245-3.997-1.578-.331-1.332.922-2.786 2.798-3.246 1.877-.461 3.666.245 3.998 1.578zm16.847-120.186c1.929.13 3.568-.875 3.661-2.244.093-1.37-1.395-2.585-3.323-2.714-1.929-.13-3.568.874-3.661 2.244-.093 1.369 1.394 2.584 3.323 2.714zm-13 9.94c1.929.13 3.568-.875 3.661-2.245.093-1.369-1.395-2.584-3.323-2.714-1.929-.13-3.568.875-3.661 2.244-.093 1.37 1.394 2.585 3.323 2.715zm-15 7.951c1.929.13 3.568-.875 3.66-2.244.094-1.37-1.394-2.584-3.322-2.714-1.929-.13-3.568.875-3.661 2.244-.093 1.37 1.394 2.584 3.323 2.714zM125 90.947c-1.705-10.521-30.833-11.596-32.504 1.948-.98 7.945 6.233 18.461 16.45 18.397 6.981-.044 17.9-8.952 16.054-20.345zm-67.925 56.231c-.025 1.372 1.52 2.513 3.453 2.549 1.933.036 3.52-1.048 3.546-2.42.026-1.372-1.52-2.513-3.453-2.549-1.933-.036-3.52 1.048-3.546 2.42zm.174 16.104c-.228 1.354 1.132 2.708 3.038 3.026 1.907.318 3.637-.521 3.866-1.875.228-1.353-1.132-2.708-3.038-3.026-1.907-.318-3.637.522-3.866 1.875zm-34.794-26.214c-1.026.92-.807 2.821.488 4.248 1.295 1.426 3.176 1.837 4.2.918 1.026-.919.807-2.821-.488-4.248-1.295-1.426-3.175-1.837-4.2-.918zm-3.695-20.839c-1.367.193-2.254 1.892-1.982 3.794.272 1.902 1.6 3.288 2.968 3.094 1.367-.193 2.254-1.891 1.982-3.794-.272-1.902-1.6-3.287-2.968-3.094zm12.78 7.341c-1.368.194-2.255 1.892-1.983 3.794.272 1.903 1.6 3.288 2.968 3.095 1.367-.193 2.254-1.892 1.982-3.794-.272-1.902-1.6-3.288-2.968-3.095zm25.815 56.477c-.332 1.332.921 2.786 2.798 3.246 1.876.461 3.666-.245 3.997-1.578.331-1.332-.922-2.786-2.798-3.246-1.877-.461-3.666.245-3.997 1.578zM15.944 66.62c1.274.53 2.911-.478 3.657-2.25.746-1.773.318-3.639-.956-4.168-1.273-.53-2.91.477-3.657 2.25-.746 1.773-.318 3.639.956 4.168zm5.42-17.836c1.14.776 2.949.12 4.041-1.465 1.093-1.585 1.055-3.5-.084-4.275-1.14-.775-2.948-.119-4.04 1.466-1.093 1.585-1.055 3.499.084 4.274zm15.82-6.792c.094 1.37 1.733 2.374 3.662 2.244 1.928-.13 3.416-1.345 3.323-2.714-.093-1.37-1.732-2.374-3.661-2.244-1.929.13-3.416 1.345-3.323 2.714zm-.337 15.625c.093 1.369 1.732 2.374 3.661 2.244 1.929-.13 3.416-1.345 3.323-2.714-.093-1.37-1.732-2.374-3.66-2.244-1.93.13-3.417 1.345-3.324 2.714zm13 9.94c.093 1.369 1.732 2.373 3.661 2.243 1.929-.13 3.416-1.345 3.323-2.714-.093-1.369-1.732-2.374-3.66-2.244-1.93.13-3.417 1.345-3.324 2.714zm15 7.951c.093 1.37 1.732 2.374 3.661 2.244 1.929-.13 3.416-1.345 3.323-2.714-.093-1.37-1.732-2.374-3.66-2.244-1.93.13-3.417 1.345-3.324 2.714zM37.353 25.733c.492 1.282 2.355 1.765 4.161 1.08 1.806-.685 2.87-2.28 2.378-3.563-.493-1.282-2.356-1.765-4.162-1.08-1.805.686-2.87 2.28-2.377 3.563zM29 90.947c1.704-10.521 30.833-11.596 32.504 1.948.98 7.945-6.233 18.461-16.45 18.397-6.981-.044-17.9-8.952-16.054-20.345zm51.245 43.852c.056 1.371-1.465 2.545-3.396 2.623-1.932.077-3.543-.972-3.598-2.343-.056-1.372 1.465-2.546 3.396-2.623 1.932-.077 3.543.971 3.598 2.343zm-3.396 26.477c1.931-.077 3.452-1.251 3.396-2.622-.055-1.372-1.666-2.421-3.598-2.343-1.931.077-3.452 1.251-3.396 2.623.055 1.371 1.666 2.42 3.598 2.342zm0 17.892c1.931-.078 3.452-1.252 3.396-2.623-.055-1.371-1.666-2.42-3.598-2.343-1.931.077-3.452 1.252-3.396 2.623.055 1.371 1.666 2.42 3.598 2.343zm0 13.795c1.931-.077 3.452-1.252 3.396-2.623-.055-1.371-1.666-2.42-3.598-2.343-1.931.078-3.452 1.252-3.396 2.623.055 1.371 1.666 2.42 3.598 2.343z" fill="url(#paint0_radial)"/>
  <defs>
    <radialGradient id="paint0_radial" cx="0" cy="0" r="1" gradientUnits="userSpaceOnUse" gradientTransform="matrix(0 -118.226 83.8238 0 76.7 100.967)">
      <stop stop-color="#2656FF"/>
      <stop offset=".796" stop-color="#FFA895"/>
    </radialGradient>
  </defs>
</svg>
