<svg width="244" height="321" viewBox="0 0 244 321" fill="none" xmlns="http://www.w3.org/2000/svg">
<path fill-rule="evenodd" clip-rule="evenodd" d="M122 4.08727C91.7856 3.78636 35.1534 18.8857 15.2612 78.7188C-8.22821 149.372 8.52532 226.628 35.2964 262.945C53.5794 287.748 82.7485 314.383 122 314.383C161.251 314.383 190.421 287.748 208.704 262.945C235.475 226.628 252.228 149.372 228.739 78.7188C208.847 18.8857 152.214 3.78636 122 4.08727ZM195.517 143.261C192.906 127.161 148.292 125.517 145.733 146.242C144.232 158.401 155.28 174.494 170.928 174.396C181.621 174.328 198.344 160.697 195.517 143.261ZM48.4831 143.261C51.0937 127.161 95.7076 125.517 98.2669 146.242C99.7683 158.401 88.7198 174.494 73.0718 174.396C62.3792 174.328 45.6561 160.697 48.4831 143.261Z" stroke="#1E1E1E" stroke-width="2"/>
<ellipse cx="89.4668" cy="206.186" rx="4.06667" ry="2.04144" stroke="#1E1E1E" stroke-width="2"/>
<ellipse cx="89.4668" cy="104.114" rx="4.06667" ry="2.04145" stroke="#1E1E1E" stroke-width="2"/>
<ellipse cx="48.8001" cy="206.186" rx="4.06667" ry="2.04144" stroke="#1E1E1E" stroke-width="2"/>
<ellipse cx="199.267" cy="206.186" rx="4.06667" ry="2.04144" stroke="#1E1E1E" stroke-width="2"/>
<ellipse cx="122" cy="206.186" rx="4.06667" ry="2.04144" stroke="#1E1E1E" stroke-width="2"/>
<ellipse cx="154.533" cy="206.186" rx="4.06666" ry="2.04144" stroke="#1E1E1E" stroke-width="2"/>
<ellipse cx="154.533" cy="104.114" rx="4.06666" ry="2.04145" stroke="#1E1E1E" stroke-width="2"/>
<ellipse cx="195.2" cy="104.114" rx="4.06666" ry="2.04145" stroke="#1E1E1E" stroke-width="2"/>
<ellipse cx="195.2" cy="104.114" rx="4.06666" ry="2.04145" stroke="#1E1E1E" stroke-width="2"/>
<ellipse cx="48.8001" cy="104.114" rx="4.06667" ry="2.04145" stroke="#1E1E1E" stroke-width="2"/>
<ellipse cx="154.533" cy="71.4507" rx="4.06666" ry="2.04145" stroke="#1E1E1E" stroke-width="2"/>
<ellipse cx="89.4668" cy="71.4507" rx="4.06667" ry="2.04145" stroke="#1E1E1E" stroke-width="2"/>
<ellipse cx="154.533" cy="42.8704" rx="4.06666" ry="2.04145" stroke="#1E1E1E" stroke-width="2"/>
<ellipse cx="89.4668" cy="42.8704" rx="4.06667" ry="2.04145" stroke="#1E1E1E" stroke-width="2"/>
<ellipse cx="89.4668" cy="238.849" rx="4.06667" ry="2.04144" stroke="#1E1E1E" stroke-width="2"/>
<ellipse cx="122" cy="238.849" rx="4.06667" ry="2.04144" stroke="#1E1E1E" stroke-width="2"/>
<ellipse cx="154.533" cy="238.849" rx="4.06666" ry="2.04144" stroke="#1E1E1E" stroke-width="2"/>
<ellipse cx="89.4668" cy="267.43" rx="4.06667" ry="2.04144" stroke="#1E1E1E" stroke-width="2"/>
<ellipse cx="122" cy="267.43" rx="4.06667" ry="2.04144" stroke="#1E1E1E" stroke-width="2"/>
<ellipse cx="154.533" cy="267.43" rx="4.06666" ry="2.04144" stroke="#1E1E1E" stroke-width="2"/>
</svg>
