<svg width="495" height="650" viewBox="0 0 495 650" fill="none" xmlns="http://www.w3.org/2000/svg">
<path fill-rule="evenodd" clip-rule="evenodd" d="M247.5 8.27642C186.204 7.6671 71.3154 38.2421 30.9604 159.399C-16.6924 302.467 17.2953 458.904 71.6053 532.444C108.696 582.667 167.871 636.601 247.5 636.601C327.129 636.601 386.304 582.667 423.395 532.444C477.705 458.904 511.692 302.467 464.04 159.399C423.685 38.2421 308.796 7.6671 247.5 8.27642ZM357.759 91.3555C363.37 93.4797 369.159 91.981 370.69 88.0082C372.221 84.0354 368.913 79.0928 363.302 76.9687C357.691 74.8445 351.902 76.3432 350.371 80.316C348.841 84.2888 352.149 89.2314 357.759 91.3555ZM359.836 145.346C365.829 145.749 370.921 142.635 371.211 138.392C371.501 134.149 366.878 130.384 360.886 129.981C354.893 129.579 349.801 132.693 349.511 136.935C349.221 141.178 353.844 144.944 359.836 145.346ZM407.812 154.899C411.206 159.81 416.827 161.844 420.366 159.441C423.905 157.037 424.023 151.107 420.628 146.195C417.234 141.283 411.613 139.25 408.074 141.653C404.535 144.057 404.417 149.987 407.812 154.899ZM425.847 207.737C428.165 213.23 433.252 216.352 437.21 214.711C441.167 213.069 442.497 207.286 440.179 201.794C437.861 196.301 432.774 193.179 428.816 194.82C424.858 196.462 423.529 202.245 425.847 207.737ZM434.618 380.195C435.464 374.3 432.706 369.037 428.459 368.438C424.212 367.839 420.083 372.132 419.237 378.027C418.392 383.921 421.149 389.185 425.397 389.784C429.644 390.382 433.773 386.089 434.618 380.195ZM415.462 446.177C419.486 441.757 420.166 435.864 416.981 433.015C413.796 430.166 407.952 431.44 403.928 435.86C399.905 440.28 399.225 446.173 402.41 449.022C405.595 451.871 411.439 450.597 415.462 446.177ZM298.68 472.241C304.685 472.131 309.489 468.594 309.409 464.342C309.329 460.09 304.396 456.733 298.391 456.844C292.386 456.954 287.583 460.491 287.663 464.743C287.743 468.995 292.675 472.352 298.68 472.241ZM308.868 514.246C309.578 518.44 305.352 522.639 299.428 523.624C293.505 524.609 288.128 522.008 287.418 517.814C286.708 513.62 290.934 509.421 296.858 508.436C302.781 507.451 308.158 510.052 308.868 514.246ZM388.753 391.188C393 391.786 395.758 397.05 394.912 402.945C394.066 408.839 389.938 413.132 385.69 412.533C381.443 411.935 378.685 406.671 379.531 400.776C380.377 394.882 384.505 390.589 388.753 391.188ZM308.541 566.197C309.57 570.325 305.677 574.829 299.847 576.257C294.016 577.685 288.455 575.495 287.426 571.367C286.397 567.238 290.29 562.734 296.121 561.306C301.952 559.878 307.513 562.068 308.541 566.197ZM360.886 193.765C366.878 194.167 371.971 191.053 372.261 186.81C372.551 182.568 367.928 178.802 361.936 178.399C355.943 177.997 350.85 181.111 350.561 185.354C350.271 189.597 354.893 193.362 360.886 193.765ZM320.493 224.565C326.485 224.968 331.578 221.854 331.868 217.611C332.158 213.368 327.535 209.602 321.543 209.2C315.55 208.798 310.458 211.911 310.168 216.154C309.878 220.397 314.501 224.163 320.493 224.565ZM273.886 249.206C279.878 249.608 284.971 246.495 285.261 242.252C285.551 238.009 280.928 234.243 274.936 233.841C268.943 233.438 263.85 236.552 263.561 240.795C263.271 245.038 267.893 248.804 273.886 249.206ZM396.643 290.093C391.347 257.49 300.839 254.162 295.647 296.129C292.601 320.751 315.015 353.338 346.76 353.138C368.452 353.001 402.378 325.398 396.643 290.093ZM185.591 464.342C185.511 468.594 190.315 472.131 196.32 472.241C202.325 472.352 207.257 468.995 207.337 464.743C207.417 460.491 202.614 456.954 196.609 456.844C190.604 456.733 185.671 460.09 185.591 464.342ZM186.132 514.246C185.422 518.44 189.648 522.639 195.572 523.624C201.495 524.609 206.872 522.008 207.582 517.814C208.292 513.62 204.066 509.421 198.142 508.436C192.219 507.451 186.842 510.052 186.132 514.246ZM78.0193 433.015C74.8342 435.864 75.5139 441.757 79.5375 446.177C83.5611 450.597 89.4049 451.871 92.59 449.022C95.7751 446.173 95.0954 440.28 91.0718 435.86C87.0482 431.44 81.2044 430.166 78.0193 433.015ZM66.5411 368.438C62.2937 369.037 59.5361 374.3 60.3817 380.195C61.2273 386.089 65.3559 390.382 69.6033 389.784C73.8506 389.185 76.6082 383.921 75.7627 378.027C74.9171 372.132 70.7884 367.839 66.5411 368.438ZM106.247 391.188C102 391.786 99.2423 397.05 100.088 402.945C100.934 408.839 105.062 413.132 109.309 412.533C113.557 411.935 116.314 406.671 115.469 400.776C114.623 394.882 110.495 390.589 106.247 391.188ZM186.459 566.197C185.43 570.325 189.323 574.829 195.153 576.257C200.984 577.685 206.545 575.495 207.574 571.367C208.603 567.238 204.71 562.734 198.879 561.306C193.048 559.878 187.487 562.068 186.459 566.197ZM57.7902 214.711C61.7479 216.352 66.8353 213.23 69.1531 207.737C71.471 202.245 70.1416 196.462 66.1839 194.82C62.2261 193.179 57.1388 196.301 54.8209 201.794C52.5031 207.286 53.8324 213.069 57.7902 214.711ZM74.6339 159.441C78.1732 161.844 83.794 159.81 87.1883 154.899C90.5826 149.987 90.4651 144.057 86.9258 141.653C83.3865 139.25 77.7658 141.283 74.3715 146.195C70.9771 151.107 71.0947 157.037 74.6339 159.441ZM123.789 138.392C124.079 142.635 129.171 145.749 135.164 145.346C141.156 144.944 145.779 141.178 145.489 136.935C145.199 132.693 140.107 129.579 134.114 129.981C128.122 130.384 123.499 134.149 123.789 138.392ZM122.739 186.81C123.029 191.053 128.122 194.167 134.114 193.765C140.107 193.362 144.729 189.597 144.439 185.354C144.15 181.111 139.057 177.997 133.064 178.399C127.072 178.802 122.449 182.568 122.739 186.81ZM163.132 217.611C163.422 221.854 168.515 224.968 174.507 224.565C180.499 224.163 185.122 220.397 184.832 216.154C184.542 211.911 179.45 208.798 173.457 209.2C167.465 209.602 162.842 213.368 163.132 217.611ZM209.739 242.252C210.029 246.495 215.122 249.608 221.114 249.206C227.106 248.804 231.729 245.038 231.439 240.795C231.15 236.552 226.057 233.438 220.064 233.841C214.072 234.243 209.449 238.009 209.739 242.252ZM124.31 88.0082C125.84 91.981 131.63 93.4797 137.241 91.3555C142.851 89.2314 146.159 84.2888 144.629 80.316C143.098 76.3432 137.309 74.8445 131.698 76.9687C126.087 79.0928 122.779 84.0354 124.31 88.0082ZM98.3571 290.093C103.653 257.49 194.161 254.162 199.353 296.129C202.399 320.751 179.985 353.338 148.24 353.138C126.548 353.001 92.6221 325.398 98.3571 290.093ZM257.583 425.982C257.756 430.231 253.031 433.87 247.03 434.11C241.028 434.349 236.024 431.099 235.851 426.849C235.678 422.6 240.403 418.961 246.405 418.722C252.406 418.482 257.411 421.733 257.583 425.982ZM247.03 508.031C253.031 507.792 257.756 504.153 257.583 499.903C257.411 495.654 252.406 492.404 246.405 492.643C240.403 492.883 235.678 496.522 235.851 500.771C236.024 505.02 241.028 508.271 247.03 508.031ZM247.03 563.472C253.031 563.233 257.756 559.594 257.583 555.345C257.411 551.095 252.406 547.845 246.405 548.084C240.403 548.324 235.678 551.963 235.851 556.212C236.024 560.461 241.028 563.712 247.03 563.472ZM247.03 606.221C253.031 605.982 257.756 602.343 257.583 598.094C257.411 593.844 252.406 590.594 246.405 590.834C240.403 591.073 235.678 594.712 235.851 598.961C236.024 603.21 241.028 606.461 247.03 606.221Z" stroke="#7748FC" stroke-opacity="0.9" stroke-width="1.5"/>
</svg>
