<svg width="175" height="81" viewBox="0 0 175 81" fill="none" xmlns="http://www.w3.org/2000/svg">
<path d="M38.8549 32.54C36.4849 32.54 34.3099 32.18 32.3299 31.46C30.3799 30.71 28.8199 29.615 27.6499 28.175C26.4799 26.735 25.8949 24.995 25.8949 22.955L25.9399 21.965H32.5549L32.5099 22.685C32.5099 24.005 33.0949 25.055 34.2649 25.835C35.4349 26.615 37.0699 27.005 39.1699 27.005C41.3899 27.005 42.9949 26.72 43.9849 26.15C44.9749 25.55 45.4699 24.755 45.4699 23.765C45.4699 22.895 45.1399 22.175 44.4799 21.605C43.8499 21.005 43.0399 20.54 42.0499 20.21C41.0899 19.85 39.7549 19.43 38.0449 18.95C35.6149 18.26 33.6499 17.6 32.1499 16.97C30.6499 16.34 29.3599 15.41 28.2799 14.18C27.1999 12.92 26.6599 11.27 26.6599 9.22996C26.6599 6.40996 27.7999 4.26496 30.0799 2.79496C32.3599 1.32497 35.3899 0.589966 39.1699 0.589966C42.7399 0.589966 45.6499 1.35497 47.8999 2.88497C50.1799 4.38497 51.3199 6.64997 51.3199 9.67997V10.22H44.8399V9.81497C44.8399 8.67497 44.3149 7.77497 43.2649 7.11497C42.2449 6.45497 40.8499 6.12496 39.0799 6.12496C37.1899 6.12496 35.7349 6.37996 34.7149 6.88997C33.7249 7.39997 33.2299 8.10497 33.2299 9.00496C33.2299 9.69497 33.5299 10.295 34.1299 10.805C34.7299 11.285 35.4799 11.69 36.3799 12.02C37.2799 12.32 38.5549 12.695 40.2049 13.145C42.6649 13.805 44.6749 14.465 46.2349 15.125C47.8249 15.755 49.1899 16.7 50.3299 17.96C51.4699 19.22 52.0399 20.87 52.0399 22.91C52.0399 26.21 50.8549 28.64 48.4849 30.2C46.1449 31.76 42.9349 32.54 38.8549 32.54Z" fill="#0038FF"/>
<path d="M10.745 32.54C7.325 32.54 4.7 31.76 2.87 30.2C1.04 28.64 0.125 26.345 0.125 23.315V21.38H6.605V23.225C6.605 24.455 6.95 25.4 7.64 26.06C8.36 26.72 9.395 27.05 10.745 27.05C12.065 27.05 13.055 26.72 13.715 26.06C14.375 25.4 14.705 24.455 14.705 23.225V1.12996H21.275V23.315C21.275 26.345 20.375 28.64 18.575 30.2C16.775 31.76 14.165 32.54 10.745 32.54Z" fill="#0038FF"/>
<path fill-rule="evenodd" clip-rule="evenodd" d="M60.0045 28.58C62.7345 31.22 66.5745 32.54 71.5245 32.54C76.5045 32.54 80.3595 31.22 83.0895 28.58C85.8195 25.91 87.1845 21.905 87.1845 16.565C87.1845 11.225 85.8195 7.23497 83.0895 4.59496C80.3595 1.92497 76.5045 0.589966 71.5245 0.589966C66.5745 0.589966 62.7345 1.92497 60.0045 4.59496C57.2745 7.23497 55.9095 11.225 55.9095 16.565C55.9095 21.905 57.2745 25.91 60.0045 28.58ZM78.1845 24.485C76.6845 26.165 74.4645 27.005 71.5245 27.005C68.5845 27.005 66.3645 26.165 64.8645 24.485C63.3645 22.775 62.6145 20.36 62.6145 17.24V15.89C62.6145 12.77 63.3645 10.37 64.8645 8.68997C66.3645 6.97997 68.5845 6.12496 71.5245 6.12496C74.4645 6.12496 76.6845 6.97997 78.1845 8.68997C79.7145 10.37 80.4795 12.77 80.4795 15.89V17.24C80.4795 20.36 79.7145 22.775 78.1845 24.485Z" fill="#0038FF"/>
<path d="M92.0589 1.12996H98.4039L110.284 17.915C110.644 18.425 111.244 19.43 112.084 20.93L112.309 20.795L112.174 18.185V1.12996H118.519V32H112.174L100.249 15.08C99.6789 14.27 99.0939 13.28 98.4939 12.11L98.2689 12.245C98.3589 13.535 98.4039 14.435 98.4039 14.945V32H92.0589V1.12996Z" fill="#0038FF"/>
<path d="M138.814 30.74C139.774 31.94 141.364 32.54 143.584 32.54C144.244 32.54 144.949 32.465 145.699 32.315C146.479 32.165 147.124 32 147.634 31.82V27.5H145.474C144.184 27.5 143.539 26.855 143.539 25.565V13.37H147.634V8.32997H143.539V1.66997H138.544L137.509 8.32997H134.539V13.37H137.374V26.195C137.374 28.025 137.854 29.54 138.814 30.74Z" fill="#0038FF"/>
<path fill-rule="evenodd" clip-rule="evenodd" d="M162.754 32.54C158.704 32.54 155.689 31.535 153.709 29.525C151.729 27.515 150.739 24.395 150.739 20.165C150.739 15.935 151.729 12.815 153.709 10.805C155.689 8.79496 158.704 7.78996 162.754 7.78996C166.804 7.78996 169.819 8.79496 171.799 10.805C173.809 12.815 174.814 15.935 174.814 20.165C174.814 24.395 173.809 27.515 171.799 29.525C169.819 31.535 166.804 32.54 162.754 32.54ZM162.754 27.5C164.764 27.5 166.219 26.93 167.119 25.79C168.019 24.62 168.469 22.865 168.469 20.525V19.805C168.469 17.465 168.019 15.725 167.119 14.585C166.219 13.415 164.764 12.83 162.754 12.83C160.744 12.83 159.289 13.415 158.389 14.585C157.519 15.725 157.084 17.465 157.084 19.805V20.525C157.084 22.865 157.519 24.62 158.389 25.79C159.289 26.93 160.744 27.5 162.754 27.5Z" fill="#0038FF"/>
<path d="M24.38 41.13H2.015V72H8.54V59.805H22.715V54.27H8.54V46.665H24.38V41.13Z" fill="#0038FF"/>
<path d="M29.6598 39.465H35.8248V45.315H29.6598V39.465Z" fill="#0038FF"/>
<path d="M29.6598 48.33H35.8248V72H29.6598V48.33Z" fill="#0038FF"/>
<path fill-rule="evenodd" clip-rule="evenodd" d="M41.8242 78.66C42.9642 79.68 44.3592 80.19 46.0092 80.19H57.2142C58.8342 80.19 60.3192 79.89 61.6692 79.29C63.0192 78.69 64.0842 77.835 64.8642 76.725C65.6442 75.615 66.0342 74.34 66.0342 72.9C66.0342 71.01 65.4492 69.48 64.2792 68.31C63.1092 67.14 61.6542 66.555 59.9142 66.555H49.1592C48.7092 66.555 48.3492 66.435 48.0792 66.195C47.8092 65.925 47.6742 65.61 47.6742 65.25C47.6742 64.83 47.8242 64.5 48.1242 64.26C48.4542 64.02 48.8892 63.9 49.4292 63.9H53.0292C56.2992 63.9 58.8042 63.18 60.5442 61.74C62.3142 60.3 63.1992 58.335 63.1992 55.845C63.1992 53.625 62.4492 51.81 60.9492 50.4C62.5692 50.04 63.8142 49.365 64.6842 48.375C65.5842 47.355 66.0342 46.02 66.0342 44.37H60.0042C60.0042 44.94 59.7942 45.63 59.3742 46.44C58.9842 47.22 58.3392 47.895 57.4392 48.465C56.0892 48.015 54.4992 47.79 52.6692 47.79C49.3092 47.79 46.7142 48.51 44.8842 49.95C43.0842 51.39 42.1842 53.355 42.1842 55.845C42.1842 58.695 43.3392 60.825 45.6492 62.235C44.4192 62.535 43.4142 63.06 42.6342 63.81C41.8542 64.53 41.4642 65.385 41.4642 66.375C41.4642 67.965 42.2292 69.15 43.7592 69.93C41.3292 71.04 40.1142 72.645 40.1142 74.745C40.1142 76.335 40.6842 77.64 41.8242 78.66ZM55.9542 58.725C55.2042 59.385 54.1092 59.715 52.6692 59.715C51.2292 59.715 50.1342 59.385 49.3842 58.725C48.6642 58.035 48.3042 57.075 48.3042 55.845C48.3042 54.615 48.6642 53.67 49.3842 53.01C50.1342 52.32 51.2292 51.975 52.6692 51.975C54.1092 51.975 55.2042 52.32 55.9542 53.01C56.7042 53.67 57.0792 54.615 57.0792 55.845C57.0792 57.075 56.7042 58.035 55.9542 58.725ZM59.0592 75.33C58.5492 75.72 57.9042 75.915 57.1242 75.915H48.7092C48.0192 75.915 47.4492 75.72 46.9992 75.33C46.5492 74.94 46.3242 74.43 46.3242 73.8C46.3242 73.2 46.5492 72.705 46.9992 72.315C47.4792 71.925 48.0492 71.73 48.7092 71.73H57.3942C58.0842 71.73 58.6542 71.91 59.1042 72.27C59.5842 72.63 59.8242 73.14 59.8242 73.8C59.8242 74.43 59.5692 74.94 59.0592 75.33Z" fill="#0038FF"/>
<path d="M69.7389 48.33H75.0039L75.4539 51.435H75.7689C77.5089 49.005 79.7589 47.79 82.5189 47.79C85.5189 47.79 87.5889 49.005 88.7289 51.435H89.089C90.889 49.005 93.229 47.79 96.1089 47.79C98.3589 47.79 100.144 48.45 101.464 49.77C102.814 51.09 103.489 53.205 103.489 56.115V72H97.3239V57.42C97.3239 54.63 96.1689 53.235 93.8589 53.235C92.659 53.235 91.6689 53.73 90.8889 54.72C90.1089 55.68 89.7189 56.88 89.7189 58.32V72H83.5539V57.42C83.5539 54.63 82.3989 53.235 80.0889 53.235C78.8889 53.235 77.8839 53.73 77.0739 54.72C76.2939 55.68 75.9039 56.88 75.9039 58.32V72H69.7389V48.33Z" fill="#0038FF"/>
<path fill-rule="evenodd" clip-rule="evenodd" d="M110.134 71.1C111.664 72.06 113.344 72.54 115.174 72.54C116.974 72.54 118.429 72.285 119.539 71.775C120.679 71.235 121.684 70.455 122.554 69.435H122.824C123.124 70.425 123.679 71.19 124.489 71.73C125.329 72.27 126.364 72.54 127.594 72.54C129.004 72.54 130.189 72.3 131.149 71.82V67.5H129.889C129.439 67.5 129.064 67.38 128.764 67.14C128.464 66.87 128.314 66.465 128.314 65.925V55.485C128.314 52.995 127.504 51.09 125.884 49.77C124.294 48.45 121.879 47.79 118.639 47.79C115.729 47.79 113.389 48.39 111.619 49.59C109.879 50.79 109.009 52.38 109.009 54.36C109.009 54.84 109.024 55.17 109.054 55.35H114.994V54.675C114.994 54.105 115.279 53.61 115.849 53.19C116.449 52.77 117.439 52.56 118.819 52.56C120.109 52.56 120.979 52.845 121.429 53.415C121.909 53.985 122.149 54.795 122.149 55.845V57.51C117.589 57.51 114.064 58.155 111.574 59.445C109.084 60.705 107.839 62.85 107.839 65.88C107.839 68.4 108.604 70.14 110.134 71.1ZM120.934 66.24C120.124 67.2 118.849 67.68 117.109 67.68C116.089 67.68 115.324 67.455 114.814 67.005C114.334 66.555 114.094 65.955 114.094 65.205C114.094 62.805 116.779 61.605 122.149 61.605V62.325C122.149 63.945 121.744 65.25 120.934 66.24Z" fill="#0038FF"/>
<path fill-rule="evenodd" clip-rule="evenodd" d="M148.784 57.772C149.2 58.02 149.72 58.144 150.344 58.144C150.968 58.144 151.484 58.016 151.892 57.76C152.308 57.504 152.624 57.068 152.84 56.452C153.064 55.828 153.176 54.972 153.176 53.884C153.176 52.796 153.064 51.944 152.84 51.328C152.624 50.704 152.308 50.264 151.892 50.008C151.484 49.752 150.968 49.624 150.344 49.624C149.72 49.624 149.2 49.752 148.784 50.008C148.376 50.256 148.06 50.692 147.836 51.316C147.62 51.94 147.512 52.796 147.512 53.884C147.512 54.972 147.62 55.828 147.836 56.452C148.06 57.076 148.376 57.516 148.784 57.772ZM151.052 56.548C150.892 56.716 150.656 56.8 150.344 56.8C150.032 56.8 149.792 56.716 149.624 56.548C149.464 56.372 149.352 56.108 149.288 55.756C149.232 55.404 149.204 54.92 149.204 54.304V53.464C149.204 52.848 149.232 52.364 149.288 52.012C149.352 51.66 149.464 51.4 149.624 51.232C149.792 51.056 150.032 50.968 150.344 50.968C150.656 50.968 150.892 51.056 151.052 51.232C151.22 51.4 151.332 51.66 151.388 52.012C151.452 52.364 151.484 52.848 151.484 53.464V54.304C151.484 54.92 151.452 55.404 151.388 55.756C151.332 56.108 151.22 56.372 151.052 56.548Z" fill="#0038FF"/>
<path d="M138.02 56.656H139.952V51.76H138.008V50.74C138.368 50.7 138.808 50.588 139.328 50.404C139.856 50.22 140.328 50.008 140.744 49.768H141.596V56.656H143.36V58H138.02V56.656Z" fill="#0038FF"/>
<path d="M144.508 56.356H146.164V58H144.508V56.356Z" fill="#0038FF"/>
</svg>
