<svg width="64" height="83" viewBox="0 0 64 83" fill="none" xmlns="http://www.w3.org/2000/svg">
<path fill-rule="evenodd" clip-rule="evenodd" d="M32 1.00114C24.0578 0.922595 9.17149 4.8641 3.94262 20.4828C-2.23183 38.9259 2.17201 59.0927 9.20905 68.5728C14.015 75.0472 21.6823 82 32 82C42.3177 82 49.985 75.0472 54.7909 68.5728C61.828 59.0927 66.2318 38.9259 60.0574 20.4828C54.8285 4.8641 39.9422 0.922595 32 1.00114ZM46.2865 11.7111C47.0135 11.9849 47.7636 11.7917 47.9619 11.2796C48.1603 10.7674 47.7317 10.1303 47.0047 9.85643C46.2777 9.5826 45.5275 9.7758 45.3292 10.2879C45.1309 10.8001 45.5595 11.4372 46.2865 11.7111ZM46.5556 18.6712C47.332 18.723 47.9919 18.3217 48.0294 17.7747C48.067 17.2277 47.468 16.7423 46.6916 16.6904C45.9151 16.6386 45.2553 17.0399 45.2177 17.5869C45.1801 18.1339 45.7791 18.6193 46.5556 18.6712ZM52.7718 19.9026C53.2116 20.5358 53.9399 20.7979 54.3985 20.4881C54.8571 20.1783 54.8723 19.4138 54.4325 18.7806C53.9927 18.1474 53.2644 17.8853 52.8058 18.1951C52.3473 18.5049 52.332 19.2694 52.7718 19.9026ZM55.1087 26.7141C55.409 27.4222 56.0682 27.8246 56.581 27.6131C57.0938 27.4015 57.2661 26.656 56.9657 25.9479C56.6654 25.2399 56.0062 24.8374 55.4934 25.049C54.9806 25.2605 54.8084 26.0061 55.1087 26.7141ZM56.2452 48.9461C56.3548 48.1862 55.9975 47.5076 55.4471 47.4305C54.8968 47.3533 54.3618 47.9067 54.2523 48.6666C54.1427 49.4264 54.5 50.105 55.0504 50.1822C55.6007 50.2594 56.1356 49.7059 56.2452 48.9461ZM53.7632 57.452C54.2845 56.8822 54.3726 56.1225 53.9599 55.7552C53.5472 55.388 52.79 55.5522 52.2686 56.122C51.7473 56.6918 51.6592 57.4515 52.0719 57.8188C52.4846 58.186 53.2418 58.0218 53.7632 57.452ZM38.6315 60.812C39.4096 60.7977 40.032 60.3418 40.0216 59.7937C40.0113 59.2455 39.3722 58.8128 38.5941 58.827C37.816 58.8413 37.1936 59.2972 37.2039 59.8454C37.2143 60.3935 37.8534 60.8263 38.6315 60.812ZM39.9516 66.227C40.0435 66.7676 39.4959 67.3089 38.7284 67.4359C37.9609 67.5629 37.2642 67.2275 37.1722 66.6868C37.0802 66.1462 37.6279 65.6049 38.3953 65.4779C39.1628 65.3509 39.8596 65.6863 39.9516 66.227ZM50.3023 50.3632C50.8527 50.4404 51.21 51.1189 51.1004 51.8788C50.9908 52.6387 50.4559 53.1921 49.9056 53.1149C49.3552 53.0377 48.9979 52.3591 49.1075 51.5993C49.217 50.8394 49.752 50.286 50.3023 50.3632ZM39.9092 72.924C40.0425 73.4562 39.5381 74.0369 38.7826 74.2209C38.0271 74.405 37.3066 74.1228 37.1733 73.5905C37.04 73.0583 37.5444 72.4776 38.2999 72.2936C39.0554 72.1095 39.7759 72.3918 39.9092 72.924ZM46.6916 24.9129C47.468 24.9647 48.1279 24.5634 48.1655 24.0164C48.203 23.4694 47.604 22.984 46.8276 22.9321C46.0512 22.8803 45.3913 23.2816 45.3537 23.8286C45.3162 24.3756 45.9151 24.861 46.6916 24.9129ZM41.4578 28.8835C42.2343 28.9353 42.8941 28.534 42.9317 27.987C42.9693 27.44 42.3703 26.9546 41.5938 26.9027C40.8174 26.8509 40.1575 27.2522 40.12 27.7992C40.0824 28.3462 40.6814 28.8316 41.4578 28.8835ZM35.4189 32.0599C36.1953 32.1118 36.8552 31.7104 36.8927 31.1635C36.9303 30.6165 36.3313 30.131 35.5549 30.0792C34.7784 30.0273 34.1186 30.4287 34.081 30.9757C34.0434 31.5226 34.6424 32.0081 35.4189 32.0599ZM51.3247 37.3309C50.6384 33.1279 38.9112 32.6989 38.2385 38.109C37.8438 41.283 40.748 45.4838 44.8613 45.4581C47.6719 45.4405 52.0678 41.8821 51.3247 37.3309ZM23.9784 59.7937C23.968 60.3418 24.5904 60.7977 25.3685 60.812C26.1466 60.8263 26.7857 60.3935 26.796 59.8454C26.8064 59.2972 26.184 58.8413 25.4059 58.827C24.6278 58.8128 23.9887 59.2455 23.9784 59.7937ZM24.0484 66.227C23.9565 66.7676 24.5041 67.3089 25.2716 67.4359C26.0391 67.5629 26.7358 67.2275 26.8278 66.6868C26.9198 66.1462 26.3721 65.6049 25.6046 65.4779C24.8372 65.3509 24.1404 65.6863 24.0484 66.227ZM10.0401 55.7552C9.62742 56.1225 9.71549 56.8822 10.2368 57.452C10.7582 58.0218 11.5154 58.186 11.9281 57.8188C12.3408 57.4515 12.2527 56.6918 11.7313 56.122C11.21 55.5522 10.4528 55.388 10.0401 55.7552ZM8.55287 47.4305C8.00253 47.5076 7.64522 48.1862 7.75478 48.9461C7.86435 49.7059 8.3993 50.2594 8.94964 50.1822C9.49997 50.105 9.85729 49.4264 9.74772 48.6666C9.63815 47.9067 9.1032 47.3533 8.55287 47.4305ZM13.6977 50.3632C13.1473 50.4404 12.79 51.1189 12.8996 51.8788C13.0091 52.6387 13.5441 53.1921 14.0944 53.1149C14.6448 53.0377 15.0021 52.3591 14.8925 51.5993C14.783 50.8394 14.248 50.286 13.6977 50.3632ZM24.0908 72.924C23.9575 73.4562 24.4619 74.0369 25.2174 74.2209C25.9729 74.405 26.6934 74.1228 26.8267 73.5905C26.96 73.0583 26.4556 72.4776 25.7001 72.2936C24.9446 72.1095 24.2241 72.3918 24.0908 72.924ZM7.419 27.6131C7.93181 27.8246 8.59098 27.4222 8.89131 26.7141C9.19164 26.0061 9.01939 25.2605 8.50658 25.049C7.99377 24.8374 7.3346 25.2399 7.03427 25.9479C6.73394 26.656 6.90619 27.4015 7.419 27.6131ZM9.60147 20.4881C10.0601 20.7979 10.7884 20.5358 11.2282 19.9026C11.668 19.2694 11.6527 18.5049 11.1941 18.1951C10.7356 17.8853 10.0073 18.1474 9.56746 18.7806C9.12766 19.4138 9.14288 20.1783 9.60147 20.4881ZM15.9705 17.7747C16.0081 18.3217 16.668 18.723 17.4444 18.6712C18.2209 18.6193 18.8199 18.1339 18.7823 17.5869C18.7447 17.0399 18.0849 16.6386 17.3084 16.6904C16.532 16.7423 15.933 17.2277 15.9705 17.7747ZM15.8345 24.0164C15.8721 24.5634 16.532 24.9647 17.3084 24.9129C18.0849 24.861 18.6838 24.3756 18.6463 23.8286C18.6087 23.2816 17.9488 22.8803 17.1724 22.9321C16.396 22.984 15.797 23.4694 15.8345 24.0164ZM21.0683 27.987C21.1059 28.534 21.7657 28.9353 22.5422 28.8835C23.3186 28.8316 23.9176 28.3462 23.88 27.7992C23.8425 27.2522 23.1826 26.8509 22.4062 26.9027C21.6297 26.9546 21.0307 27.44 21.0683 27.987ZM27.1073 31.1635C27.1448 31.7104 27.8047 32.1118 28.5811 32.0599C29.3576 32.0081 29.9566 31.5226 29.919 30.9757C29.8814 30.4287 29.2216 30.0273 28.4451 30.0792C27.6687 30.131 27.0697 30.6165 27.1073 31.1635ZM16.0381 11.2796C16.2364 11.7917 16.9865 11.9849 17.7135 11.7111C18.4405 11.4372 18.8691 10.8001 18.6708 10.2879C18.4725 9.7758 17.7223 9.5826 16.9953 9.85643C16.2683 10.1303 15.8397 10.7674 16.0381 11.2796ZM12.6753 37.3309C13.3616 33.1279 25.0888 32.6989 25.7615 38.109C26.1562 41.283 23.252 45.4838 19.1387 45.4581C16.3281 45.4405 11.9322 41.8821 12.6753 37.3309ZM33.3065 54.8486C33.3289 55.3964 32.7166 55.8655 31.9391 55.8963C31.1615 55.9272 30.513 55.5082 30.4906 54.9604C30.4682 54.4126 31.0805 53.9435 31.8581 53.9127C32.6356 53.8818 33.2841 54.3008 33.3065 54.8486ZM31.9391 65.4258C32.7166 65.3949 33.3289 64.9258 33.3065 64.378C33.2841 63.8302 32.6356 63.4112 31.8581 63.4421C31.0805 63.473 30.4682 63.942 30.4906 64.4898C30.513 65.0376 31.1615 65.4566 31.9391 65.4258ZM31.9391 72.5728C32.7166 72.5419 33.3289 72.0728 33.3065 71.5251C33.2841 70.9773 32.6356 70.5582 31.8581 70.5891C31.0805 70.62 30.4682 71.0891 30.4906 71.6369C30.513 72.1847 31.1615 72.6037 31.9391 72.5728ZM31.9391 78.0837C32.7166 78.0528 33.3289 77.5837 33.3065 77.0359C33.2841 76.4882 32.6356 76.0691 31.8581 76.1C31.0805 76.1309 30.4682 76.6 30.4906 77.1478C30.513 77.6956 31.1615 78.1146 31.9391 78.0837Z" stroke="rgb(39, 39, 39)" stroke-opacity="0.9" stroke-width="1.5"/>
</svg>
