<svg width="62" height="82" viewBox="0 0 62 82" fill="none" xmlns="http://www.w3.org/2000/svg">
<path fill-rule="evenodd" clip-rule="evenodd" d="M31 1.04409C23.3226 0.96722 8.93244 4.82438 3.87787 20.1088C-2.09076 38.1573 2.16628 57.8925 8.96876 67.1698C13.6145 73.5056 21.0263 80.3096 31 80.3096C40.9737 80.3096 48.3856 73.5056 53.0313 67.1698C59.8337 57.8925 64.0908 38.1573 58.1221 20.1088C53.0676 4.82438 38.6774 0.96722 31 1.04409ZM49.6805 36.5964C49.0172 32.4834 37.6808 32.0635 37.0305 37.3578C36.649 40.4639 39.4564 44.5749 43.4326 44.5497C46.1495 44.5325 50.3989 41.0502 49.6805 36.5964ZM12.3195 36.5964C12.9828 32.4834 24.3192 32.0635 24.9695 37.3578C25.351 40.4639 22.5436 44.5749 18.5674 44.5497C15.8505 44.5325 11.6012 41.0502 12.3195 36.5964Z" stroke="#1E1E1E" stroke-width="1.5"/>
<ellipse cx="22.7333" cy="52.6707" rx="1.03333" ry="0.52149" stroke="#1E1E1E" stroke-width="1.5"/>
<ellipse cx="22.7333" cy="26.5961" rx="1.03333" ry="0.52149" stroke="#1E1E1E" stroke-width="1.5"/>
<ellipse cx="12.4" cy="52.6707" rx="1.03333" ry="0.52149" stroke="#1E1E1E" stroke-width="1.5"/>
<ellipse cx="50.6333" cy="52.6707" rx="1.03333" ry="0.52149" stroke="#1E1E1E" stroke-width="1.5"/>
<ellipse cx="31" cy="52.6707" rx="1.03333" ry="0.52149" stroke="#1E1E1E" stroke-width="1.5"/>
<ellipse cx="39.2667" cy="52.6707" rx="1.03333" ry="0.52149" stroke="#1E1E1E" stroke-width="1.5"/>
<ellipse cx="39.2667" cy="26.5961" rx="1.03333" ry="0.52149" stroke="#1E1E1E" stroke-width="1.5"/>
<ellipse cx="49.6" cy="26.5961" rx="1.03333" ry="0.52149" stroke="#1E1E1E" stroke-width="1.5"/>
<ellipse cx="49.6" cy="26.5961" rx="1.03333" ry="0.52149" stroke="#1E1E1E" stroke-width="1.5"/>
<ellipse cx="12.4" cy="26.5961" rx="1.03333" ry="0.52149" stroke="#1E1E1E" stroke-width="1.5"/>
<ellipse cx="39.2667" cy="18.2522" rx="1.03333" ry="0.521491" stroke="#1E1E1E" stroke-width="1.5"/>
<ellipse cx="22.7333" cy="18.2522" rx="1.03333" ry="0.521491" stroke="#1E1E1E" stroke-width="1.5"/>
<ellipse cx="39.2667" cy="10.9513" rx="1.03333" ry="0.521492" stroke="#1E1E1E" stroke-width="1.5"/>
<ellipse cx="22.7333" cy="10.9513" rx="1.03333" ry="0.521492" stroke="#1E1E1E" stroke-width="1.5"/>
<ellipse cx="22.7333" cy="61.0144" rx="1.03333" ry="0.521492" stroke="#1E1E1E" stroke-width="1.5"/>
<ellipse cx="31" cy="61.0144" rx="1.03333" ry="0.521492" stroke="#1E1E1E" stroke-width="1.5"/>
<ellipse cx="39.2667" cy="61.0144" rx="1.03333" ry="0.521492" stroke="#1E1E1E" stroke-width="1.5"/>
<ellipse cx="22.7333" cy="68.3153" rx="1.03333" ry="0.521488" stroke="#1E1E1E" stroke-width="1.5"/>
<ellipse cx="31" cy="68.3153" rx="1.03333" ry="0.521488" stroke="#1E1E1E" stroke-width="1.5"/>
<ellipse cx="39.2667" cy="68.3153" rx="1.03333" ry="0.521488" stroke="#1E1E1E" stroke-width="1.5"/>
</svg>
