<svg xmlns="http://www.w3.org/2000/svg" fill="none" viewBox="0 0 138 183">
  <defs/>
  <path fill="url(#paint0_radial)" fill-rule="evenodd" d="M6.55 44.017C18.188 8.73 51.322-.175 69 .003c17.678-.178 50.812 8.727 62.45 44.014 13.743 41.667 3.941 87.229-11.722 108.648C109.031 167.292 91.965 183 69 183s-40.031-15.708-50.728-30.335C2.609 131.246-7.193 85.685 6.55 44.017zm88.988 25.701c-5.67.388-11.532 2.648-11.837 8.567-.382 7.4 5.346 15.188 12.982 15.188 7.637 0 12.601-8.178 12.983-14.02.382-5.84-7.468-10.19-14.128-9.735zm-42.382 8.567c-.305-5.919-6.167-8.179-11.837-8.567-6.66-.455-14.51 3.894-14.128 9.736.382 5.841 5.346 14.019 12.982 14.019 7.637 0 13.365-7.788 12.983-15.188zm-9.52-58.325c.828 1.339.119 3.312-1.584 4.407-1.703 1.095-3.754.898-4.582-.44-.828-1.34-.119-3.313 1.584-4.408 1.703-1.095 3.754-.898 4.582.441zm-3.111 19.03c1.702-1.095 2.412-3.068 1.584-4.407-.828-1.338-2.88-1.536-4.582-.44-1.703 1.095-2.413 3.068-1.585 4.406.828 1.339 2.88 1.536 4.583.441zm3.199 9.751c1.125 1.82.446 4.317-1.516 5.579-1.962 1.262-4.465.81-5.59-1.009s-.446-4.317 1.516-5.579c1.962-1.262 4.465-.81 5.59 1.01zm11.72 10.074c2.32 0 4.2-1.744 4.2-3.895 0-2.15-1.88-3.894-4.2-3.894-2.32 0-4.2 1.744-4.2 3.894 0 2.151 1.88 3.895 4.2 3.895zm12.22 64.643c2.32 0 4.2-1.395 4.2-3.115 0-1.721-1.88-3.116-4.2-3.116-2.32 0-4.2 1.395-4.2 3.116 0 1.72 1.88 3.115 4.2 3.115zm-46.166-81.25c.856-1.858.693-3.775-.366-4.282-1.058-.508-2.61.587-3.466 2.445-.857 1.859-.693 3.776.365 4.283 1.059.508 2.61-.587 3.467-2.446zM19.86 58.612c1.166.091 1.987 1.824 1.833 3.871-.154 2.048-1.223 3.633-2.39 3.542-1.165-.09-1.986-1.824-1.832-3.871.153-2.047 1.223-3.633 2.389-3.542zm37.876 84.317c1.898 0 3.436-1.569 3.436-3.505 0-1.935-1.538-3.504-3.436-3.504s-3.437 1.569-3.437 3.504c0 1.936 1.539 3.505 3.437 3.505zm-11.603-.346c-1.28.704-3.049-.106-3.95-1.81-.9-1.704-.592-3.656.689-4.36 1.28-.704 3.05.106 3.95 1.81.9 1.704.592 3.656-.689 4.36zm-14.641 5.981c.9 1.704 2.407 2.658 3.364 2.132.957-.526 1.003-2.334.103-4.038-.9-1.704-2.407-2.658-3.364-2.132-.958.526-1.004 2.334-.103 4.038zm-10.689-26.401c-1.003.427-2.41-.674-3.141-2.46-.731-1.787-.51-3.581.493-4.008 1.004-.428 2.41.674 3.141 2.46.732 1.786.51 3.581-.493 4.008zm1.982-9.5c.731 1.786 2.354 2.796 3.625 2.254 1.271-.541 1.709-2.427.977-4.214-.731-1.786-2.354-2.795-3.625-2.254-1.27.541-1.708 2.428-.977 4.214zm38.42 43.385c-.367 1.59-2.162 2.519-4.01 2.077-1.847-.443-3.048-2.09-2.682-3.68.366-1.59 2.16-2.52 4.009-2.077 1.847.443 3.048 2.09 2.682 3.68zm-2.497 15.502c1.848.443 3.575-.195 3.859-1.426.283-1.23-.985-2.586-2.833-3.028-1.848-.443-3.575.195-3.858 1.426-.284 1.23.985 2.586 2.832 3.028zM91.691 19.96c-.828 1.339-.118 3.312 1.584 4.407 1.703 1.095 3.754.898 4.582-.44.828-1.34.119-3.313-1.584-4.408-1.703-1.095-3.754-.898-4.582.441zm3.112 19.03c-1.703-1.095-2.412-3.068-1.584-4.407.827-1.338 2.879-1.536 4.582-.44 1.702 1.095 2.412 3.068 1.584 4.406-.828 1.339-2.88 1.536-4.582.441zm-3.2 9.751c-1.125 1.82-.446 4.317 1.516 5.579 1.962 1.262 4.465.81 5.59-1.009s.446-4.317-1.516-5.579c-1.962-1.262-4.465-.81-5.59 1.01zm-15.92 6.18c0 2.15 1.88 3.894 4.2 3.894 2.32 0 4.2-1.744 4.2-3.895 0-2.15-1.88-3.894-4.2-3.894-2.32 0-4.2 1.744-4.2 3.894zm38.146-12.712c-.856-1.859-.692-3.776.366-4.283 1.058-.508 2.61.587 3.467 2.445.856 1.859.692 3.776-.366 4.283-1.059.508-2.611-.587-3.467-2.446zm1.638 16.403c-1.166.091-1.986 1.824-1.833 3.871.154 2.048 1.224 3.633 2.39 3.542 1.165-.09 1.986-1.824 1.832-3.871-.153-2.047-1.223-3.633-2.389-3.542zm-37.876 84.317c-1.898 0-3.436-1.569-3.436-3.505 0-1.935 1.538-3.504 3.436-3.504s3.437 1.569 3.437 3.504c0 1.936-1.539 3.505-3.437 3.505zm11.603-.346c1.28.704 3.05-.106 3.95-1.81.9-1.704.592-3.656-.689-4.36-1.28-.704-3.049.106-3.95 1.81-.9 1.704-.592 3.656.689 4.36zm14.641 5.981c-.9 1.704-2.406 2.658-3.364 2.132-.957-.526-1.003-2.334-.103-4.038.901-1.704 2.407-2.658 3.364-2.132.958.526 1.004 2.334.103 4.038zm10.689-26.401c1.004.427 2.41-.674 3.141-2.46.731-1.787.511-3.581-.493-4.008-1.003-.428-2.41.674-3.141 2.46-.731 1.786-.511 3.581.493 4.008zm-1.982-9.5c-.731 1.786-2.354 2.796-3.625 2.254-1.271-.541-1.708-2.427-.977-4.214.731-1.786 2.354-2.795 3.625-2.254 1.271.541 1.708 2.428.977 4.214zm-38.419 43.385c.366 1.59 2.16 2.519 4.008 2.077 1.848-.443 3.05-2.09 2.683-3.68-.366-1.59-2.16-2.52-4.008-2.077-1.848.443-3.05 2.09-2.683 3.68zm2.496 15.502c-1.848.443-3.575-.195-3.859-1.426-.283-1.23.985-2.586 2.833-3.028 1.848-.443 3.575.195 3.858 1.426.284 1.23-.984 2.586-2.832 3.028z" clip-rule="evenodd"/>
  <defs>
    <radialGradient id="paint0_radial" cx="0" cy="0" r="1" gradientTransform="matrix(0 -106.701 75.1149 0 68.731 91.124)" gradientUnits="userSpaceOnUse">
      <stop stop-color="#0038FF"/>
      <stop offset=".796" stop-color="#FF9179"/>
    </radialGradient>
  </defs>
</svg>
