<svg xmlns="http://www.w3.org/2000/svg" fill="none" viewBox="0 0 176 81">
  <defs/>
  <path fill="#0038FF" d="M38.855 32.54c-6.36 0-13.25-3.197-12.915-10.575h6.615c-.241 3.856 3.37 5.04 6.615 5.04 2.147 0 6.3-.208 6.3-3.24 0-3.285-5-4.134-7.425-4.815-5.13-1.456-11.385-3.408-11.385-9.72 0-6.65 6.999-8.64 12.51-8.64 6.069 0 12.15 2.862 12.15 9.63h-6.48v-.405c0-2.914-3.45-3.69-5.76-3.69-1.859 0-5.85.207-5.85 2.88 0 2.95 4.929 3.582 6.975 4.14 5.154 1.383 11.835 3.37 11.835 9.765 0 7.344-6.905 9.63-13.185 9.63zM10.745 32.54c-5.858 0-10.62-2.938-10.62-9.225V21.38h6.48v1.845c0 2.502 1.733 3.825 4.14 3.825 2.387 0 3.96-1.395 3.96-3.825V1.13h6.57v22.185c0 6.27-4.663 9.225-10.53 9.225z"/>
  <path fill="#0038FF" fill-rule="evenodd" d="M60.005 28.58c5.697 5.51 17.387 5.51 23.084 0 5.748-5.62 5.797-18.38 0-23.985-5.689-5.564-17.396-5.564-23.084 0-5.797 5.606-5.748 18.364 0 23.985zm18.18-4.095c-3.12 3.493-10.202 3.493-13.32 0-2.101-2.395-2.25-5.571-2.25-8.595 0-3.12.75-5.52 2.25-7.2 3.111-3.547 10.208-3.547 13.32 0 1.53 1.68 2.294 4.08 2.294 7.2 0 3.034-.162 6.211-2.294 8.595z" clip-rule="evenodd"/>
  <path fill="#0038FF" d="M92.059 1.13h6.345l11.88 16.785c.36.51.96 1.515 1.8 3.015l.225-.135-.135-2.61V1.13h6.345V32h-6.345l-11.925-16.92c-.57-.81-1.155-1.8-1.755-2.97l-.225.135c.09 1.29.135 2.19.135 2.7V32h-6.345V1.13zM143.584 32.54c1.354 0 2.774-.27 4.05-.72V27.5h-2.16c-1.29 0-1.935-.645-1.935-1.935V13.37h4.095V8.33h-4.095V1.67h-4.995l-1.035 6.66h-2.97v5.04h2.835v12.825c0 3.843 2.338 6.345 6.21 6.345z"/>
  <path fill="#0038FF" fill-rule="evenodd" d="M153.709 29.525c-4.254-4.32-4.254-14.4 0-18.72 4.209-4.273 13.881-4.273 18.09 0 4.31 4.31 4.31 14.41 0 18.72-4.209 4.273-13.881 4.273-18.09 0zm13.41-3.735c2.019-2.625 2.079-8.572 0-11.205-1.881-2.446-6.849-2.446-8.73 0-2.023 2.65-1.964 8.563 0 11.205 1.888 2.391 6.842 2.391 8.73 0z" clip-rule="evenodd"/>
  <path fill="#0038FF" d="M24.38 41.13H2.015V72H8.54V59.805h14.175V54.27H8.54v-7.605h15.84V41.13zM29.66 39.465h6.165v5.85H29.66v-5.85zM29.66 48.33h6.165V72H29.66V48.33z"/>
  <path fill="#0038FF" fill-rule="evenodd" d="M46.01 80.19h11.204c4.297 0 8.82-2.607 8.82-7.29 0-3.504-2.542-6.345-6.12-6.345H49.16c-2.162 0-1.646-2.655.27-2.655h3.6c3.27 0 5.775-.72 7.515-2.16 3.381-2.75 3.583-8.353.405-11.34 3.048-.677 5.085-2.838 5.085-6.03h-6.03c0 1.668-1.221 3.244-2.565 4.095-3.864-1.288-9.284-1.089-12.555 1.485-3.92 3.136-3.511 9.675.765 12.285-1.97.48-4.185 1.877-4.185 4.14 0 1.59.765 2.775 2.295 3.555-5.803 2.651-3.674 10.26 2.25 10.26zm9.944-21.465c-1.605 1.412-4.965 1.412-6.57 0-1.46-1.4-1.51-4.33 0-5.715 1.595-1.467 4.976-1.467 6.57 0 1.565 1.377 1.514 4.322 0 5.715zm1.17 17.19H48.71c-1.24 0-2.385-.794-2.385-2.115 0-1.293 1.183-2.07 2.385-2.07h8.685c1.236 0 2.43.729 2.43 2.07 0 1.436-1.437 2.115-2.7 2.115z" clip-rule="evenodd"/>
  <path fill="#0038FF" d="M69.739 48.33h5.265l.45 3.105h.315c1.74-2.43 3.99-3.645 6.75-3.645 3 0 5.07 1.215 6.21 3.645h.36c1.8-2.43 4.14-3.645 7.02-3.645 4.974 0 7.38 3.65 7.38 8.325V72h-6.165V57.42c0-2.79-1.155-4.185-3.465-4.185-2.683 0-4.14 2.681-4.14 5.085V72h-6.165V57.42c0-2.79-1.155-4.185-3.465-4.185-2.7 0-4.185 2.655-4.185 5.085V72h-6.165V48.33z"/>
  <path fill="#0038FF" fill-rule="evenodd" d="M115.174 72.54c2.911 0 5.456-.849 7.38-3.105h.27c1.04 3.432 5.516 3.79 8.325 2.385V67.5c-1.214 0-2.835.105-2.835-1.575v-10.44c0-5.598-4.691-7.695-9.675-7.695-4.066 0-9.63 1.603-9.63 6.57 0 .48.015.81.045.99h5.94v-.675c0-1.864 2.47-2.115 3.825-2.115 2.15 0 3.33 1.118 3.33 3.285v1.665c-5.731 0-14.31.935-14.31 8.37 0 4.322 3.187 6.66 7.335 6.66zm1.935-4.86c-1.582 0-3.015-.726-3.015-2.475 0-2.4 2.685-3.6 8.055-3.6 0 3.215-1.4 6.075-5.04 6.075z" clip-rule="evenodd"/>
  <path fill="#0038FF" d="M138.548 55.384c.871-.8 2.058-1.374 2.712-2.388.523-.817.322-2.028-.792-2.028-1.062 0-1.188.777-1.188 1.632h-1.632c-.187-.841.08-1.825.78-2.352.983-.73 2.789-.94 3.828-.192.646.465.972 1.19.972 1.98 0 1.01-.505 1.906-1.26 2.556-.73.626-1.933 1.085-2.424 1.944h3.732V58h-5.76c0-1.019.264-1.89 1.032-2.616zM144.508 56.356h1.656V58h-1.656v-1.644z"/>
  <path fill="#0038FF" fill-rule="evenodd" d="M148.784 57.772c.875.522 2.24.533 3.108-.012.416-.256.732-.692.948-1.308.224-.624.336-1.48.336-2.568s-.112-1.94-.336-2.556c-.216-.624-.532-1.064-.948-1.32-.869-.545-2.237-.536-3.108 0-.408.248-.724.684-.948 1.308-.216.624-.324 1.48-.324 2.568s.108 1.944.324 2.568c.224.624.54 1.064.948 1.32zm2.268-1.224c-.341.358-1.083.345-1.428 0-.16-.176-.272-.44-.336-.792-.056-.352-.084-.836-.084-1.452v-.84c0-.616.028-1.1.084-1.452.064-.352.176-.612.336-.78.343-.359 1.089-.372 1.428 0 .168.168.28.428.336.78.064.352.096.836.096 1.452v.84c0 .616-.032 1.1-.096 1.452-.056.352-.168.616-.336.792z" clip-rule="evenodd"/>
</svg>
