<svg width="173" height="84" viewBox="0 0 173 84" fill="rgb(39, 39, 39)" xmlns="http://www.w3.org/2000/svg">
<path d="M11.745 35.54C8.325 35.54 5.7 34.76 3.87 33.2C2.04 31.64 1.125 29.345 1.125 26.315V24.38H7.605V26.225C7.605 27.455 7.95 28.4 8.64 29.06C9.36 29.72 10.395 30.05 11.745 30.05C13.065 30.05 14.055 29.72 14.715 29.06C15.375 28.4 15.705 27.455 15.705 26.225V4.13H22.275V26.315C22.275 29.345 21.375 31.64 19.575 33.2C17.775 34.76 15.165 35.54 11.745 35.54ZM38.9549 35.54C36.5849 35.54 34.4099 35.18 32.4299 34.46C30.4799 33.71 28.9199 32.615 27.7499 31.175C26.5799 29.735 25.9949 27.995 25.9949 25.955L26.0399 24.965H32.6549L32.6099 25.685C32.6099 27.005 33.1949 28.055 34.3649 28.835C35.5349 29.615 37.1699 30.005 39.2699 30.005C41.4899 30.005 43.0949 29.72 44.0849 29.15C45.0749 28.55 45.5699 27.755 45.5699 26.765C45.5699 25.895 45.2399 25.175 44.5799 24.605C43.9499 24.005 43.1399 23.54 42.1499 23.21C41.1899 22.85 39.8549 22.43 38.1449 21.95C35.7149 21.26 33.7499 20.6 32.2499 19.97C30.7499 19.34 29.4599 18.41 28.3799 17.18C27.2999 15.92 26.7599 14.27 26.7599 12.23C26.7599 9.41 27.8999 7.265 30.1799 5.795C32.4599 4.325 35.4899 3.59 39.2699 3.59C42.8399 3.59 45.7499 4.355 47.9999 5.885C50.2799 7.385 51.4199 9.65 51.4199 12.68V13.22H44.9399V12.815C44.9399 11.675 44.4149 10.775 43.3649 10.115C42.3449 9.455 40.9499 9.125 39.1799 9.125C37.2899 9.125 35.8349 9.38 34.8149 9.89C33.8249 10.4 33.3299 11.105 33.3299 12.005C33.3299 12.695 33.6299 13.295 34.2299 13.805C34.8299 14.285 35.5799 14.69 36.4799 15.02C37.3799 15.32 38.6549 15.695 40.3049 16.145C42.7649 16.805 44.7749 17.465 46.3349 18.125C47.9249 18.755 49.2899 19.7 50.4299 20.96C51.5699 22.22 52.1399 23.87 52.1399 25.91C52.1399 29.21 50.9549 31.64 48.5849 33.2C46.2449 34.76 43.0349 35.54 38.9549 35.54ZM70.7245 35.54C65.7745 35.54 61.9345 34.22 59.2045 31.58C56.4745 28.91 55.1095 24.905 55.1095 19.565C55.1095 14.225 56.4745 10.235 59.2045 7.595C61.9345 4.925 65.7745 3.59 70.7245 3.59C75.7045 3.59 79.5595 4.925 82.2895 7.595C85.0195 10.235 86.3845 14.225 86.3845 19.565C86.3845 24.905 85.0195 28.91 82.2895 31.58C79.5595 34.22 75.7045 35.54 70.7245 35.54ZM70.7245 30.005C73.6645 30.005 75.8845 29.165 77.3845 27.485C78.9145 25.775 79.6795 23.36 79.6795 20.24V18.89C79.6795 15.77 78.9145 13.37 77.3845 11.69C75.8845 9.98 73.6645 9.125 70.7245 9.125C67.7845 9.125 65.5645 9.98 64.0645 11.69C62.5645 13.37 61.8145 15.77 61.8145 18.89V20.24C61.8145 23.36 62.5645 25.775 64.0645 27.485C65.5645 29.165 67.7845 30.005 70.7245 30.005ZM90.3589 4.13H96.7039L108.584 20.915C108.944 21.425 109.544 22.43 110.384 23.93L110.609 23.795L110.474 21.185V4.13H116.819V35H110.474L98.5489 18.08C97.9789 17.27 97.3939 16.28 96.7939 15.11L96.5689 15.245C96.6589 16.535 96.7039 17.435 96.7039 17.945V35H90.3589V4.13ZM140.084 35.54C137.864 35.54 136.274 34.94 135.314 33.74C134.354 32.54 133.874 31.025 133.874 29.195V16.37H131.039V11.33H134.009L135.044 4.67H140.039V11.33H144.134V16.37H140.039V28.565C140.039 29.855 140.684 30.5 141.974 30.5H144.134V34.82C143.624 35 142.979 35.165 142.199 35.315C141.449 35.465 140.744 35.54 140.084 35.54ZM158.354 35.54C154.304 35.54 151.289 34.535 149.309 32.525C147.329 30.515 146.339 27.395 146.339 23.165C146.339 18.935 147.329 15.815 149.309 13.805C151.289 11.795 154.304 10.79 158.354 10.79C162.404 10.79 165.419 11.795 167.399 13.805C169.409 15.815 170.414 18.935 170.414 23.165C170.414 27.395 169.409 30.515 167.399 32.525C165.419 34.535 162.404 35.54 158.354 35.54ZM158.354 30.5C160.364 30.5 161.819 29.93 162.719 28.79C163.619 27.62 164.069 25.865 164.069 23.525V22.805C164.069 20.465 163.619 18.725 162.719 17.585C161.819 16.415 160.364 15.83 158.354 15.83C156.344 15.83 154.889 16.415 153.989 17.585C153.119 18.725 152.684 20.465 152.684 22.805V23.525C152.684 25.865 153.119 27.62 153.989 28.79C154.889 29.93 156.344 30.5 158.354 30.5ZM3.015 44.13H25.38V49.665H9.54V57.27H23.715V62.805H9.54V75H3.015V44.13ZM29.7598 42.465H35.9248V48.315H29.7598V42.465ZM29.7598 51.33H35.9248V75H29.7598V51.33ZM45.2092 83.19C43.5592 83.19 42.1642 82.68 41.0242 81.66C39.8842 80.64 39.3142 79.335 39.3142 77.745C39.3142 75.645 40.5292 74.04 42.9592 72.93C41.4292 72.15 40.6642 70.965 40.6642 69.375C40.6642 68.385 41.0542 67.53 41.8342 66.81C42.6142 66.06 43.6192 65.535 44.8492 65.235C42.5392 63.825 41.3842 61.695 41.3842 58.845C41.3842 56.355 42.2842 54.39 44.0842 52.95C45.9142 51.51 48.5092 50.79 51.8692 50.79C53.6992 50.79 55.2892 51.015 56.6392 51.465C57.5392 50.895 58.1842 50.22 58.5742 49.44C58.9942 48.63 59.2042 47.94 59.2042 47.37H65.2342C65.2342 49.02 64.7842 50.355 63.8842 51.375C63.0142 52.365 61.7692 53.04 60.1492 53.4C61.6492 54.81 62.3992 56.625 62.3992 58.845C62.3992 61.335 61.5142 63.3 59.7442 64.74C58.0042 66.18 55.4992 66.9 52.2292 66.9H48.6292C48.0892 66.9 47.6542 67.02 47.3242 67.26C47.0242 67.5 46.8742 67.83 46.8742 68.25C46.8742 68.61 47.0092 68.925 47.2792 69.195C47.5492 69.435 47.9092 69.555 48.3592 69.555H59.1142C60.8542 69.555 62.3092 70.14 63.4792 71.31C64.6492 72.48 65.2342 74.01 65.2342 75.9C65.2342 77.34 64.8442 78.615 64.0642 79.725C63.2842 80.835 62.2192 81.69 60.8692 82.29C59.5192 82.89 58.0342 83.19 56.4142 83.19H45.2092ZM51.8692 62.715C53.3092 62.715 54.4042 62.385 55.1542 61.725C55.9042 61.035 56.2792 60.075 56.2792 58.845C56.2792 57.615 55.9042 56.67 55.1542 56.01C54.4042 55.32 53.3092 54.975 51.8692 54.975C50.4292 54.975 49.3342 55.32 48.5842 56.01C47.8642 56.67 47.5042 57.615 47.5042 58.845C47.5042 60.075 47.8642 61.035 48.5842 61.725C49.3342 62.385 50.4292 62.715 51.8692 62.715ZM56.3242 78.915C57.1042 78.915 57.7492 78.72 58.2592 78.33C58.7692 77.94 59.0242 77.43 59.0242 76.8C59.0242 76.14 58.7842 75.63 58.3042 75.27C57.8542 74.91 57.2842 74.73 56.5942 74.73H47.9092C47.2492 74.73 46.6792 74.925 46.1992 75.315C45.7492 75.705 45.5242 76.2 45.5242 76.8C45.5242 77.43 45.7492 77.94 46.1992 78.33C46.6492 78.72 47.2192 78.915 47.9092 78.915H56.3242ZM68.0389 51.33H73.3039L73.7539 54.435H74.0689C75.8089 52.005 78.0589 50.79 80.8189 50.79C83.8189 50.79 85.8889 52.005 87.0289 54.435H87.389C89.189 52.005 91.5289 50.79 94.4089 50.79C96.659 50.79 98.444 51.45 99.7639 52.77C101.114 54.09 101.789 56.205 101.789 59.115V75H95.6239V60.42C95.6239 57.63 94.4689 56.235 92.159 56.235C90.959 56.235 89.9689 56.73 89.1889 57.72C88.4089 58.68 88.019 59.88 88.019 61.32V75H81.8539V60.42C81.8539 57.63 80.6989 56.235 78.3889 56.235C77.1889 56.235 76.1839 56.73 75.3739 57.72C74.5939 58.68 74.2039 59.88 74.2039 61.32V75H68.0389V51.33ZM112.574 75.54C110.744 75.54 109.064 75.06 107.534 74.1C106.004 73.14 105.239 71.4 105.239 68.88C105.239 65.85 106.484 63.705 108.974 62.445C111.464 61.155 114.989 60.51 119.549 60.51V58.845C119.549 57.795 119.309 56.985 118.829 56.415C118.379 55.845 117.509 55.56 116.219 55.56C114.839 55.56 113.849 55.77 113.249 56.19C112.679 56.61 112.394 57.105 112.394 57.675V58.35H106.454C106.424 58.17 106.409 57.84 106.409 57.36C106.409 55.38 107.279 53.79 109.019 52.59C110.789 51.39 113.129 50.79 116.039 50.79C119.279 50.79 121.694 51.45 123.284 52.77C124.904 54.09 125.714 55.995 125.714 58.485V68.925C125.714 69.465 125.864 69.87 126.164 70.14C126.464 70.38 126.839 70.5 127.289 70.5H128.549V74.82C127.589 75.3 126.404 75.54 124.994 75.54C123.764 75.54 122.729 75.27 121.889 74.73C121.079 74.19 120.524 73.425 120.224 72.435H119.954C119.084 73.455 118.079 74.235 116.939 74.775C115.829 75.285 114.374 75.54 112.574 75.54ZM114.509 70.68C116.249 70.68 117.524 70.2 118.334 69.24C119.144 68.25 119.549 66.945 119.549 65.325V64.605C114.179 64.605 111.494 65.805 111.494 68.205C111.494 68.955 111.734 69.555 112.214 70.005C112.724 70.455 113.489 70.68 114.509 70.68Z"/>
<path d="M133.602 60.496C133.602 59.964 133.719 59.488 133.952 59.068C134.185 58.6387 134.47 58.2653 134.806 57.948C135.151 57.6307 135.599 57.2713 136.15 56.87C136.626 56.506 136.999 56.2027 137.27 55.96C137.55 55.7173 137.783 55.4513 137.97 55.162C138.203 54.798 138.32 54.3873 138.32 53.93C138.32 53.6313 138.208 53.37 137.984 53.146C137.769 52.9127 137.457 52.796 137.046 52.796C136.122 52.796 135.66 53.2393 135.66 54.126V54.7H133.756C133.719 54.532 133.7 54.3453 133.7 54.14C133.7 53.1693 134.022 52.4413 134.666 51.956C135.319 51.4707 136.141 51.228 137.13 51.228C137.998 51.228 138.665 51.396 139.132 51.732C139.599 52.068 139.902 52.446 140.042 52.866C140.191 53.286 140.266 53.678 140.266 54.042C140.266 54.686 140.121 55.26 139.832 55.764C139.543 56.2587 139.197 56.6787 138.796 57.024C138.404 57.36 137.914 57.7287 137.326 58.13C136.878 58.438 136.542 58.69 136.318 58.886C136.159 59.026 136.043 59.1613 135.968 59.292H140.322V61H133.602V60.496ZM141.759 59.082H143.691V61H141.759V59.082ZM148.554 61.168C147.527 61.168 146.706 60.888 146.09 60.328C145.483 59.7587 145.18 58.9887 145.18 58.018H147.154C147.154 58.5127 147.275 58.9 147.518 59.18C147.77 59.46 148.115 59.6 148.554 59.6C148.983 59.6 149.319 59.4553 149.562 59.166C149.814 58.8673 149.94 58.4333 149.94 57.864C149.94 57.3413 149.814 56.9447 149.562 56.674C149.31 56.4033 148.978 56.268 148.568 56.268C148.288 56.268 148.05 56.3287 147.854 56.45C147.658 56.5713 147.48 56.7347 147.322 56.94L145.502 56.716L145.88 51.396H151.438V53.104H147.574L147.448 55.232C147.672 55.092 147.914 54.98 148.176 54.896C148.437 54.8027 148.754 54.756 149.128 54.756C149.949 54.756 150.616 55.022 151.13 55.554C151.652 56.0767 151.914 56.8467 151.914 57.864C151.914 58.9093 151.615 59.7213 151.018 60.3C150.42 60.8787 149.599 61.168 148.554 61.168Z"/>
</svg>
