<svg xmlns="http://www.w3.org/2000/svg" fill="none" viewBox="0 0 178 84">
  <defs/>
  <path fill="#0038FF" d="M11.745 35.54c-3.42 0-6.045-.78-7.875-2.34-1.83-1.56-2.745-3.855-2.745-6.885V24.38h6.48v1.845c0 1.23.345 2.175 1.035 2.835.72.66 1.755.99 3.105.99 1.32 0 2.31-.33 2.97-.99.66-.66.99-1.605.99-2.835V4.13h6.57v22.185c0 3.03-.9 5.325-2.7 6.885-1.8 1.56-4.41 2.34-7.83 2.34zm28.11 0c-2.37 0-4.545-.36-6.525-1.08-1.95-.75-3.51-1.845-4.68-3.285-1.17-1.44-1.755-3.18-1.755-5.22l.045-.99h6.615l-.045.72c0 1.32.585 2.37 1.755 3.15 1.17.78 2.805 1.17 4.905 1.17 2.22 0 3.825-.285 4.815-.855.99-.6 1.485-1.395 1.485-2.385 0-.87-.33-1.59-.99-2.16-.63-.6-1.44-1.065-2.43-1.395-.96-.36-2.295-.78-4.005-1.26-2.43-.69-4.395-1.35-5.895-1.98-1.5-.63-2.79-1.56-3.87-2.79-1.08-1.26-1.62-2.91-1.62-4.95 0-2.82 1.14-4.965 3.42-6.435 2.28-1.47 5.31-2.205 9.09-2.205 3.57 0 6.48.765 8.73 2.295 2.28 1.5 3.42 3.765 3.42 6.795v.54h-6.48v-.405c0-1.14-.525-2.04-1.575-2.7-1.02-.66-2.415-.99-4.185-.99-1.89 0-3.345.255-4.365.765-.99.51-1.485 1.215-1.485 2.115 0 .69.3 1.29.9 1.8.6.48 1.35.885 2.25 1.215.9.3 2.175.675 3.825 1.125 2.46.66 4.47 1.32 6.03 1.98 1.59.63 2.955 1.575 4.095 2.835 1.14 1.26 1.71 2.91 1.71 4.95 0 3.3-1.185 5.73-3.555 7.29-2.34 1.56-5.55 2.34-9.63 2.34zm32.67 0c-4.95 0-8.79-1.32-11.52-3.96-2.73-2.67-4.096-6.675-4.096-12.015 0-5.34 1.366-9.33 4.096-11.97 2.73-2.67 6.57-4.005 11.52-4.005 4.98 0 8.834 1.335 11.564 4.005 2.73 2.64 4.096 6.63 4.096 11.97 0 5.34-1.365 9.345-4.096 12.015-2.73 2.64-6.585 3.96-11.564 3.96zm0-5.535c2.94 0 5.16-.84 6.66-2.52 1.53-1.71 2.294-4.125 2.294-7.245v-1.35c0-3.12-.764-5.52-2.294-7.2-1.5-1.71-3.72-2.565-6.66-2.565s-5.16.855-6.66 2.565c-1.5 1.68-2.25 4.08-2.25 7.2v1.35c0 3.12.75 5.535 2.25 7.245 1.5 1.68 3.72 2.52 6.66 2.52zM93.059 4.13h6.345l11.88 16.785c.36.51.96 1.515 1.8 3.015l.225-.135-.135-2.61V4.13h6.345V35h-6.345l-11.925-16.92c-.57-.81-1.155-1.8-1.755-2.97l-.225.135c.09 1.29.135 2.19.135 2.7V35h-6.345V4.13zm51.525 31.41c-2.22 0-3.81-.6-4.77-1.8-.96-1.2-1.44-2.715-1.44-4.545V16.37h-2.835v-5.04h2.97l1.035-6.66h4.995v6.66h4.095v5.04h-4.095v12.195c0 1.29.645 1.935 1.935 1.935h2.16v4.32c-.51.18-1.155.345-1.935.495-.75.15-1.455.225-2.115.225zm19.17 0c-4.05 0-7.065-1.005-9.045-3.015-1.98-2.01-2.97-5.13-2.97-9.36 0-4.23.99-7.35 2.97-9.36 1.98-2.01 4.995-3.015 9.045-3.015s7.065 1.005 9.045 3.015c2.01 2.01 3.015 5.13 3.015 9.36 0 4.23-1.005 7.35-3.015 9.36-1.98 2.01-4.995 3.015-9.045 3.015zm0-5.04c2.01 0 3.465-.57 4.365-1.71.9-1.17 1.35-2.925 1.35-5.265v-.72c0-2.34-.45-4.08-1.35-5.22-.9-1.17-2.355-1.755-4.365-1.755-2.01 0-3.465.585-4.365 1.755-.87 1.14-1.305 2.88-1.305 5.22v.72c0 2.34.435 4.095 1.305 5.265.9 1.14 2.355 1.71 4.365 1.71zM3.015 44.13H25.38v5.535H9.54v7.605h14.175v5.535H9.54V75H3.015V44.13zm27.645-1.665h6.165v5.85H30.66v-5.85zm0 8.865h6.165V75H30.66V51.33zm16.35 31.86c-1.65 0-3.046-.51-4.186-1.53-1.14-1.02-1.71-2.325-1.71-3.915 0-2.1 1.215-3.705 3.645-4.815-1.53-.78-2.295-1.965-2.295-3.555 0-.99.39-1.845 1.17-2.565.78-.75 1.785-1.275 3.015-1.575-2.31-1.41-3.465-3.54-3.465-6.39 0-2.49.9-4.455 2.7-5.895 1.83-1.44 4.425-2.16 7.785-2.16 1.83 0 3.42.225 4.77.675.9-.57 1.545-1.245 1.935-2.025.42-.81.63-1.5.63-2.07h6.03c0 1.65-.45 2.985-1.35 4.005-.87.99-2.115 1.665-3.735 2.025 1.5 1.41 2.25 3.225 2.25 5.445 0 2.49-.885 4.455-2.655 5.895-1.74 1.44-4.245 2.16-7.515 2.16h-3.6c-.54 0-.975.12-1.305.36-.3.24-.45.57-.45.99 0 .36.135.675.405.945.27.24.63.36 1.08.36h10.755c1.74 0 3.195.585 4.365 1.755 1.17 1.17 1.755 2.7 1.755 4.59 0 1.44-.39 2.715-1.17 3.825-.78 1.11-1.845 1.965-3.195 2.565-1.35.6-2.835.9-4.455.9H47.01zm6.66-20.475c1.44 0 2.534-.33 3.284-.99.75-.69 1.125-1.65 1.125-2.88s-.375-2.175-1.125-2.835c-.75-.69-1.845-1.035-3.285-1.035-1.44 0-2.535.345-3.285 1.035-.72.66-1.08 1.605-1.08 2.835s.36 2.19 1.08 2.88c.75.66 1.845.99 3.285.99zm4.454 16.2c.78 0 1.425-.195 1.935-.585.51-.39.765-.9.765-1.53 0-.66-.24-1.17-.72-1.53-.45-.36-1.02-.54-1.71-.54H49.71c-.66 0-1.23.195-1.71.585a1.88 1.88 0 00-.675 1.485c0 .63.225 1.14.675 1.53.45.39 1.02.585 1.71.585h8.415zM70.74 51.33h5.265l.45 3.105h.315c1.74-2.43 3.99-3.645 6.75-3.645 3 0 5.07 1.215 6.21 3.645h.36c1.8-2.43 4.14-3.645 7.02-3.645 2.25 0 4.035.66 5.355 1.98 1.35 1.32 2.025 3.435 2.025 6.345V75h-6.165V60.42c0-2.79-1.155-4.185-3.465-4.185-1.2 0-2.19.495-2.97 1.485-.78.96-1.17 2.16-1.17 3.6V75h-6.165V60.42c0-2.79-1.155-4.185-3.465-4.185-1.2 0-2.205.495-3.015 1.485-.78.96-1.17 2.16-1.17 3.6V75h-6.165V51.33zm45.435 24.21c-1.83 0-3.51-.48-5.04-1.44-1.53-.96-2.295-2.7-2.295-5.22 0-3.03 1.245-5.175 3.735-6.435 2.49-1.29 6.015-1.935 10.575-1.935v-1.665c0-1.05-.24-1.86-.72-2.43-.45-.57-1.32-.855-2.61-.855-1.38 0-2.37.21-2.97.63-.57.42-.855.915-.855 1.485v.675h-5.94c-.03-.18-.045-.51-.045-.99 0-1.98.87-3.57 2.61-4.77 1.77-1.2 4.11-1.8 7.02-1.8 3.24 0 5.655.66 7.245 1.98 1.62 1.32 2.43 3.225 2.43 5.715v10.44c0 .54.15.945.45 1.215.3.24.675.36 1.125.36h1.26v4.32c-.96.48-2.145.72-3.555.72-1.23 0-2.265-.27-3.105-.81-.81-.54-1.365-1.305-1.665-2.295h-.27c-.87 1.02-1.875 1.8-3.015 2.34-1.11.51-2.565.765-4.365.765zm1.935-4.86c1.74 0 3.015-.48 3.825-1.44.81-.99 1.215-2.295 1.215-3.915v-.72c-5.37 0-8.055 1.2-8.055 3.6 0 .75.24 1.35.72 1.8.51.45 1.275.675 2.295.675zM138.516 60.568c0-.456.1-.864.3-1.224.2-.368.444-.688.732-.96.296-.272.68-.58 1.152-.924.408-.312.728-.572.96-.78.24-.208.44-.436.6-.684.2-.312.3-.664.3-1.056a.921.921 0 00-.288-.672c-.184-.2-.452-.3-.804-.3-.792 0-1.188.38-1.188 1.14v.492h-1.632a2.217 2.217 0 01-.048-.48c0-.832.276-1.456.828-1.872.56-.416 1.264-.624 2.112-.624.744 0 1.316.144 1.716.432.4.288.66.612.78.972.128.36.192.696.192 1.008 0 .552-.124 1.044-.372 1.476a4.22 4.22 0 01-.888 1.08c-.336.288-.756.604-1.26.948-.384.264-.672.48-.864.648-.136.12-.236.236-.3.348h3.732V61h-5.76v-.432zm6.992-1.212h1.656V61h-1.656v-1.644zm5.836 1.788c-.624 0-1.144-.124-1.56-.372-.408-.256-.724-.696-.948-1.32-.216-.624-.324-1.48-.324-2.568s.108-1.944.324-2.568c.224-.624.54-1.06.948-1.308.416-.256.936-.384 1.56-.384s1.14.128 1.548.384c.416.256.732.696.948 1.32.224.616.336 1.468.336 2.556s-.112 1.944-.336 2.568c-.216.616-.532 1.052-.948 1.308-.408.256-.924.384-1.548.384zm0-1.344c.312 0 .548-.084.708-.252.168-.176.28-.44.336-.792.064-.352.096-.836.096-1.452v-.84c0-.616-.032-1.1-.096-1.452-.056-.352-.168-.612-.336-.78-.16-.176-.396-.264-.708-.264-.312 0-.552.088-.72.264-.16.168-.272.428-.336.78-.056.352-.084.836-.084 1.452v.84c0 .616.028 1.1.084 1.452.064.352.176.616.336.792.168.168.408.252.72.252z"/>
</svg>
