<svg width="262" height="134" viewBox="0 0 262 134" fill="none" xmlns="http://www.w3.org/2000/svg">
<path d="M93.2194 0.699313L93.4755 0.789547H93.6035L95.1397 0.699313L95.2677 0.879781V0.970015H95.1397C94.4356 0.970015 92.6433 1.24072 89.7628 1.78212C89.1014 1.78212 87.9919 2.05282 86.4343 2.59422C80.6947 3.25594 77.1955 3.79734 75.9366 4.21844C74.8271 4.23347 73.9309 4.41394 73.2481 4.75984C73.4188 4.81999 73.5469 4.85007 73.6322 4.85007L80.6734 4.1282C93.3048 2.56415 99.7485 1.78212 100.005 1.78212L100.133 1.96259V2.05282C99.0017 2.05282 95.2037 2.83485 88.7387 4.3989C84.9834 4.68464 82.4657 5.10574 81.1854 5.66218L75.4245 6.56452V6.83522H75.6805C78.305 6.47428 80.6094 6.29382 82.5937 6.29382H84.2579C84.386 6.29382 84.514 6.38405 84.642 6.56452C83.8739 6.74498 82.4657 6.98561 80.4173 7.28639C80.1613 7.4067 78.753 7.6774 76.1926 8.09849C75.9579 8.09849 75.1045 8.03834 73.6322 7.91803C73.2268 7.91803 71.8186 8.24888 69.4075 8.9106C67.2098 9.21138 64.8201 9.42192 62.2384 9.54224C60.7661 9.67759 59.2725 10.1889 57.7576 11.0762C56.9041 11.1965 56.136 11.2567 55.4532 11.2567H55.3252C54.8558 11.6176 54.5571 11.7981 54.4291 11.7981L54.173 11.7078C53.3196 11.7078 52.8502 12.6703 52.7648 14.5953V14.9563C52.7648 15.0916 52.8075 15.2119 52.8928 15.3172C52.8928 16.2045 52.2527 17.7084 50.9725 19.8289C50.9725 20.265 50.5884 21.3178 49.8203 22.9871C49.8203 24.3406 48.9242 27.3183 47.1319 31.9202C47.1319 33.0632 46.3638 35.3491 44.8275 38.778L41.499 47.26C41.499 48.1172 40.8589 49.7114 39.5787 52.0424C39.5787 52.7793 39.0666 54.0727 38.0424 55.9225V57.276C38.0424 57.4113 38.0851 57.5316 38.1704 57.6369C37.4023 58.4941 37.0182 59.0055 37.0182 59.1709V60.3439C36.8475 61.3666 36.7622 61.9381 36.7622 62.0584V62.1486C37.2743 63.5322 37.5303 64.3744 37.5303 64.6752C37.5303 64.8406 37.1036 64.9609 36.2501 65.0361H34.3298C33.7324 65.9234 33.1776 66.3746 32.6655 66.3896C32.3881 66.3896 31.5347 66.0587 30.1051 65.397C29.6144 65.5173 28.8889 66.2693 27.9287 67.6529C27.3313 67.7882 27.0326 67.8785 27.0326 67.9236C26.1578 67.9236 24.9203 66.4498 23.32 63.5021C23.128 63.2465 22.4452 63.0058 21.2717 62.7802C17.6231 57.3662 15.6174 53.1252 15.2547 50.0573C15.1693 49.952 15.1267 49.8317 15.1267 49.6963C15.1907 49.2151 15.3187 48.9745 15.5107 48.9745H15.6387C16.2362 50.7039 17.2177 52.5688 18.5832 54.569L18.8393 54.6592H19.0953V54.569C19.0953 54.3735 18.3699 52.3281 16.919 48.4331C16.919 47.9368 16.4495 46.7336 15.5107 44.8237C15.4254 44.0417 15.3827 43.41 15.3827 42.9288C15.468 42.8085 15.5107 42.7182 15.5107 42.6581H15.6387C16.1935 43.0641 16.8336 44.1469 17.5591 45.9065C18.0071 46.0419 18.6046 47.1848 19.3513 49.3354L19.9915 49.7866H20.1195V49.4256C17.2177 42.643 15.7668 38.2517 15.7668 36.2515C15.9375 35.7702 16.1082 35.5296 16.2788 35.5296C16.5136 35.7552 16.8976 36.6575 17.431 38.2366C19.5647 41.3196 20.6316 43.5755 20.6316 45.0042C21.7411 47.636 22.4665 48.9895 22.8079 49.0647H23.064V48.3428C23.064 47.7864 22.5519 46.4629 21.5277 44.3725V44.1921C21.5277 43.786 21.6131 43.3048 21.7837 42.7483H22.1678C22.3172 42.7483 22.7866 43.5303 23.576 45.0944L24.9843 48.0721C26.7126 50.5987 27.9501 51.8619 28.6969 51.8619C29.8064 51.1701 30.3611 50.0272 30.3611 48.4331V47.7112C30.3611 47.4856 30.2331 46.9141 29.9771 45.9967C31.428 42.9438 32.1534 40.7481 32.1534 39.4097C32.1534 38.0261 32.8789 36.071 34.3298 33.5445C34.5645 32.8376 34.8205 31.7548 35.0979 30.296C36.4635 25.2129 37.5303 21.5734 38.2984 19.3777C38.4691 19.3777 38.5545 19.1672 38.5545 18.7461C38.1277 18.3852 37.9144 18.1145 37.9144 17.934C38.4265 17.0918 38.6825 16.5805 38.6825 16.4C38.3198 15.1367 38.1064 14.5051 38.0424 14.5051C38.0424 13.9336 38.7679 13.2719 40.2188 12.52L40.3468 12.3395V12.2493C40.2401 12.0086 39.856 11.8883 39.1946 11.8883C36.5702 12.1289 34.1804 12.55 32.0254 13.1516C31.8121 13.1516 31.4707 13.1817 31.0013 13.2418L30.8732 13.0614V12.9711C31.4707 12.6252 31.7694 12.3545 31.7694 12.159L31.3853 11.9786H27.5447C26.6272 11.9786 25.5604 12.159 24.3442 12.52C24.1948 12.52 23.512 11.9184 22.2958 10.7153V10.3543C22.9786 9.81294 23.32 9.33169 23.32 8.9106V8.00826C23.7681 7.10592 24.5789 6.65475 25.7524 6.65475C27.9287 6.71491 29.209 6.74498 29.593 6.74498C30.4252 6.74498 31.3213 6.47428 32.2815 5.93288C32.8149 5.75241 34.0951 5.66218 36.1221 5.66218H37.7864C39.4933 5.24109 42.6938 4.81999 47.3879 4.3989C47.3879 4.24851 48.7535 4.1282 51.4846 4.03797C54.1304 3.33114 58.3551 2.75965 64.1587 2.32352C64.8201 2.0829 66.7831 1.84228 70.0476 1.60165C70.1543 1.60165 70.581 1.63173 71.3278 1.69189C72.3093 1.51142 73.3335 1.42118 74.4003 1.42118H75.4245V1.51142C75.4245 1.70692 73.6749 2.0077 70.1756 2.41376C67.4445 2.83485 66.079 3.13563 66.079 3.3161V3.40633C66.4844 3.40633 66.9111 3.37625 67.3592 3.3161C68.6181 3.37625 69.7276 3.40633 70.6877 3.40633C72.9494 3.04539 74.5284 2.86493 75.4245 2.86493H76.8327C81.8256 2.02274 85.5808 1.48134 88.0986 1.24072H88.3546C88.4186 1.24072 88.6747 1.27079 89.1227 1.33095C91.8325 0.954976 93.1981 0.74443 93.2194 0.699313ZM19.9915 49.967C20.2048 50.8092 20.4182 51.2303 20.6316 51.2303H20.7596V50.9596C20.5462 50.2979 20.3328 49.967 20.1195 49.967H19.9915Z" fill="#FF63A4"/>
<path d="M85.3461 10.5123H85.4741C86.1356 10.5123 86.6477 10.813 87.0104 11.4146C86.669 12.1665 86.4983 12.6177 86.4983 12.7681C86.4983 13.3245 87.2238 13.9562 88.6747 14.663C88.6747 14.7232 88.8027 14.9337 89.0587 15.2946C89.0587 15.9714 87.6505 16.573 84.834 17.0993C84.4927 17.355 84.322 17.5956 84.322 17.8212V18.4528C84.322 18.513 84.3646 18.5431 84.45 18.5431C84.45 19.0394 83.4685 19.7311 81.5055 20.6184C80.6094 22.2427 79.5425 23.0548 78.305 23.0548C77.0461 23.2503 75.5099 24.1827 73.6962 25.852C70.9651 28.6793 69.5996 30.2735 69.5996 30.6344V30.9953C69.5996 31.0856 69.7276 31.1758 69.9836 31.2661H70.1116C71.6692 30.6795 74.5284 29.9276 78.689 29.0102C79.3932 28.8899 80.0759 28.7997 80.7374 28.7395C82.0816 28.8448 84.8554 29.326 89.0587 30.1832C93.2407 30.6194 95.3318 31.6721 95.3318 33.3414C95.4171 33.7475 95.4598 34.0783 95.4598 34.334C95.4598 35.7627 94.3076 38.3193 92.0032 42.0039C91.2137 42.7258 89.8909 44.4101 88.0346 47.057C87.9919 47.057 87.6932 47.2375 87.1384 47.5984H87.0104L88.6747 45.2523C89.1014 44.4853 89.3148 43.9138 89.3148 43.5379H88.9307C88.9307 43.7183 87.8639 44.8312 85.7302 46.8765C85.2821 48.0195 84.386 49.1023 83.0417 50.1249C82.8924 51.1025 81.7402 52.4259 79.5852 54.0952C78.433 54.8923 77.5368 55.6743 76.8967 56.4413C76.4913 56.5616 76.1073 56.8925 75.7446 57.4339C75.5739 57.5542 75.3178 57.6144 74.9764 57.6144V57.5241H74.8484C74.6777 57.5392 74.5924 57.5993 74.5924 57.7046V57.7948H74.8484V57.9753C74.379 58.637 73.2695 59.5093 71.5199 60.5921C71.3705 60.8628 71.0718 61.1034 70.6237 61.3139H70.3677V61.2237C72.288 59.8552 73.2695 58.9528 73.3122 58.5167C75.9579 55.9901 77.2808 54.4862 77.2808 54.005V53.9148H77.1528C74.379 55.7796 72.6721 57.2835 72.032 58.4265C69.7062 59.9905 68.3834 60.7725 68.0633 60.7725C66.1217 62.4419 63.5612 63.645 60.382 64.3819C57.2669 64.9233 54.7065 65.7354 52.7008 66.8182C52.1034 67.0588 51.6766 67.1791 51.4206 67.1791H51.1645C51.8687 66.5926 53.3622 65.9911 55.6453 65.3745C55.6453 65.1188 56.4987 64.8481 58.2057 64.5624C58.9952 64.036 60.318 63.4645 62.1743 62.8479C62.6011 62.6073 64.6494 61.0132 68.3193 58.0655L68.0633 57.9753C66.8898 57.9753 64.5427 58.9378 61.0222 60.8628C59.5499 61.1335 57.843 61.9456 55.9013 63.2991C54.5998 63.7803 53.8316 64.021 53.5969 64.021H53.4689C53.8743 63.6299 55.1119 63.0585 57.1815 62.3065L62.1743 58.9679C62.6651 58.9679 64.372 57.9753 67.2952 55.9901C69.8769 54.6366 71.3278 53.4034 71.6479 52.2906H71.3918L63.9666 57.2534H63.4546C63.4546 56.8925 64.5641 55.9901 66.7831 54.5464C67.5512 53.4335 69.1301 52.0499 71.5199 50.3956C72.0533 49.4181 72.9921 48.4556 74.3363 47.5082C74.3363 47.3878 75.2751 46.3351 77.1528 44.35C77.4088 43.5379 78.0063 42.4551 78.9451 41.1015C79.1158 40.1992 79.2011 39.5676 79.2011 39.2066C79.2011 38.6051 78.6037 38.184 77.4088 37.9434C77.3235 37.8381 77.2808 37.7178 77.2808 37.5824H75.8726C75.3392 37.5824 73.5042 38.2742 70.3677 39.6578C69.7062 39.6879 68.7247 40.2293 67.4232 41.282C64.6707 42.6656 62.5371 43.3574 61.0222 43.3574H60.6381C58.099 43.3574 56.3921 42.0039 55.5173 39.2969C55.5173 38.575 54.3224 37.9133 51.9327 37.3117C51.5059 36.8154 51.2926 36.3041 51.2926 35.7777C51.2926 31.5368 53.0849 27.5364 56.6694 23.7766C58.7605 21.8216 61.3635 19.9567 64.4787 18.1821C65.9296 16.9339 68.1487 15.821 71.1358 14.8435C71.4132 14.8435 72.48 14.3322 74.3363 13.3095C76.0433 12.8884 77.7502 12.3169 79.4572 11.5951C80.0333 11.6552 80.5027 11.6853 80.8654 11.6853H81.1214C82.2309 10.9033 83.6392 10.5123 85.3461 10.5123Z" fill="#FF63A4"/>
<path d="M110.854 11.5048H111.494C111.772 11.5048 112.881 12.0763 114.823 13.2193C117.959 14.0013 119.837 14.5427 120.456 14.8435C120.797 15.1443 121.053 15.5653 121.224 16.1068C120.456 17.4151 120.072 18.1671 120.072 18.3626V19.1747C120.072 19.3101 120.242 19.8214 120.584 20.7087C120.157 22.2727 119.858 24.8895 119.688 28.559C118.856 32.3188 117.703 35.0559 116.231 36.7703C116.231 37.3117 115.89 38.2441 115.207 39.5676C115.207 40.4699 114.396 41.8836 112.775 43.8086L111.878 46.1546C110.961 47.4179 110.108 49.4031 109.318 52.1101C108.187 53.4937 107.035 55.178 105.861 57.1632C105.243 57.6595 104.816 57.9302 104.581 57.9753H104.453V57.7948C106.075 56.7722 106.886 55.4187 106.886 53.7343C107.078 53.7343 107.206 53.4636 107.27 52.9222V52.6515C107.27 52.5312 107.184 52.471 107.014 52.471H106.886C106.886 52.6515 106.502 53.3433 105.733 54.5464C105.733 55.4939 103.6 57.0579 99.3324 59.2386C98.9483 59.419 98.1802 59.5995 97.028 59.78C94.4676 59.404 93.1874 58.9227 93.1874 58.3362C92.974 58.1407 92.5046 57.9602 91.7792 57.7948C91.7578 57.5241 90.9897 56.9526 89.4748 56.0804L86.7864 52.5613C86.1036 51.0273 85.7622 49.9745 85.7622 49.4031V48.8617C84.9941 47.7187 84.61 46.696 84.61 45.7937C84.61 45.0568 85.1221 43.192 86.1463 40.1992C86.1463 36.6049 88.0666 32.7248 91.9072 28.559C92.3126 27.6417 92.7393 26.228 93.1874 24.318C94.7237 22.754 95.6625 21.4306 96.0039 20.3477C98.5643 18.2423 99.8445 16.588 99.8445 15.3849C101.871 12.9185 103.706 11.6853 105.349 11.6853L106.246 11.7755H107.398C108.614 11.7755 109.766 11.6853 110.854 11.5048ZM112.903 14.663C112.903 14.8435 112.263 14.9638 110.982 15.0239C110.065 15.43 109.467 16.0015 109.19 16.7384C107.739 20.4681 106.672 22.3329 105.989 22.3329C104.453 23.13 103.685 24.4534 103.685 26.3032C102.832 27.0852 102.405 27.8973 102.405 28.7395C101.295 29.0252 100.741 29.5967 100.741 30.4539C100.741 31.0555 100.229 32.409 99.2044 34.5145C99.2044 34.7701 98.735 36.4545 97.7962 39.5676V40.2894C97.2841 41.1316 97.028 41.5828 97.028 41.6429V42.816C96.0039 44.1545 95.4918 45.508 95.4918 46.8765C95.4918 48.1699 95.4491 49.5835 95.3638 51.1175C95.7478 52.3808 96.4306 53.0124 97.4121 53.0124C98.8417 52.456 99.8232 51.6138 100.357 50.4859C101.722 50.14 102.405 49.4482 102.405 48.4105C102.96 48.4105 103.557 47.1472 104.197 44.6207C105.371 42.9513 106.608 40.4849 107.91 37.2215C108.337 36.4996 108.635 36.1387 108.806 36.1387H108.934L109.19 36.2289C108.593 38.2441 108.294 39.357 108.294 39.5676H108.422C108.614 39.5375 108.955 38.966 109.446 37.8531C110.129 36.9809 110.47 36.3191 110.47 35.868V35.507C110.47 35.4168 110.385 34.9356 110.214 34.0633C110.705 33.3865 111.089 32.0932 111.366 30.1832C112.113 28.4688 112.583 26.7243 112.775 24.9497C114.055 21.4606 114.695 19.295 114.695 18.4528V18.0017C114.695 17.5655 114.439 16.964 113.927 16.197C113.927 15.1743 113.585 14.663 112.903 14.663ZM93.4434 58.0655V58.3362H93.6995V58.0655H93.4434Z" fill="#FF63A4"/>
<path d="M153.709 0H153.837L153.965 0.45117C152.685 3.8199 151.917 6.25622 151.661 7.76012C150.807 8.82788 150.381 10.1513 150.381 11.7304V13.2644C150.381 13.5802 149.698 15.3849 148.332 18.6784C148.332 20.1222 147.735 22.8893 146.54 26.9799H146.924C146.924 26.2881 147.65 24.7241 149.101 22.2878L149.357 22.1975C149.357 22.2276 149.442 22.3179 149.613 22.4682V22.6487C149.613 24.5135 148.674 28.0627 146.796 33.2963C146.796 33.4918 146.839 34.0031 146.924 34.8303L146.156 39.9736V43.9439C144.961 48.0796 144.364 50.4859 144.364 51.1626V55.8548L145.004 59.2837C144.748 61.9305 143.809 63.254 142.187 63.254C142.187 63.3141 142.017 63.3442 141.675 63.3442C138.091 62.7577 136.298 61.7952 136.298 60.4567C135.872 59.3739 135.104 58.8325 133.994 58.8325C132.949 58.5317 132.223 58.1106 131.818 57.5692C131.498 56.2608 131.199 54.3659 130.922 51.8845C130.538 51.8845 130.281 50.6212 130.153 48.0947C129.641 46.7412 128.959 43.5228 128.105 38.4396C127.998 38.4396 127.913 38.2291 127.849 37.808C128.276 36.635 128.489 35.9131 128.489 35.6424V35.1912L127.849 35.101H127.593C127.593 36.0484 126.996 36.8606 125.801 37.5373C125.801 38.3193 125.161 39.9135 123.88 42.3197C123.091 45.3877 122.323 47.3728 121.576 48.2751C121.256 48.7113 120.829 50.2452 120.296 52.8771C119.89 54.2456 119.464 55.148 119.016 55.5841H118.888C118.888 54.1403 119.357 51.4634 120.296 47.5533C120.381 47.3878 120.424 46.9367 120.424 46.1998H120.168C120.168 46.7863 119.229 49.0121 117.351 52.8771C116.925 55.9901 116.199 58.3663 115.175 60.0056C114.407 60.968 113.681 62.8329 112.999 65.6001C112.657 66.0211 112.444 66.2317 112.359 66.2317H112.231L112.102 65.7805V65.4196C112.102 65.0737 112.999 61.9757 114.791 56.1255C114.791 55.3435 115.516 53.0575 116.967 49.2677C117.053 49.1775 117.095 48.997 117.095 48.7263L116.839 48.6361C116.327 49.1775 115.772 50.4408 115.175 52.4259C114.45 53.9298 114.023 54.6818 113.895 54.6818H113.767V54.5013H113.511V54.772C113.511 54.8923 113.639 54.9525 113.895 54.9525C113.127 56.6519 112.7 57.7347 112.615 58.2009L112.359 58.1106C112.359 57.2083 113.041 54.8021 114.407 50.8919C114.407 50.0798 114.876 48.6361 115.815 46.5607C115.9 46.5005 115.943 46.2599 115.943 45.8388V45.3877H115.815C115.047 46.1697 114.663 47.1021 114.663 48.1849C113.639 49.4181 113.127 50.7716 113.127 52.2454C112.849 52.9071 112.636 53.238 112.487 53.238C112.316 53.238 112.231 53.1779 112.231 53.0575V52.9673C112.487 52.3958 112.615 52.0349 112.615 51.8845V51.4333C112.615 51.0874 112.572 50.6062 112.487 49.9896C113.425 47.9894 113.895 46.696 113.895 46.1095C114.386 45.523 114.812 43.959 115.175 41.4174C116.626 38.59 117.607 36.0635 118.119 33.8377C119.976 31.4315 120.957 29.5967 121.064 28.3334C121.064 26.4987 121.747 25.085 123.112 24.0925C123.624 23.2803 123.88 22.7389 123.88 22.4682V21.7464C123.88 21.6862 123.838 21.6561 123.752 21.6561C124.136 18.7536 124.521 16.8286 124.905 15.8812C125.758 14.3171 126.569 13.5351 127.337 13.5351C127.7 13.2193 128.126 12.5275 128.617 11.4597C128.852 11.3093 129.321 11.189 130.025 11.0988C131.903 11.3544 132.842 12.0462 132.842 13.1742C132.671 13.5351 132.287 13.9863 131.69 14.5277V15.7007C132.372 16.4978 133.269 17.0692 134.378 17.4151C134.378 17.5355 134.549 17.746 134.89 18.0468C134.549 19.0394 134.378 19.7612 134.378 20.2124C135.061 21.4456 135.402 22.2878 135.402 22.7389C135.232 24.0173 135.146 24.7692 135.146 24.9948V25.446C136.085 28.8899 136.554 31.627 136.554 33.6572V34.7401C136.576 34.8604 136.661 34.9205 136.811 34.9205H136.939C136.939 34.6197 137.323 32.9354 138.091 29.8674C139.563 23.6112 140.801 19.8214 141.803 18.498H141.931V18.6784C141.931 19.1296 141.675 20.062 141.163 21.4757C141.249 22.769 141.291 23.7014 141.291 24.2729C140.865 25.9422 140.651 26.8145 140.651 26.8897L140.907 27.8823C140.566 28.7094 140.395 30.1231 140.395 32.1233L140.651 32.2135C141.014 31.9578 141.313 30.9051 141.547 29.0553C142.059 27.6417 142.315 26.6491 142.315 26.0776V24.2729C143.681 18.7987 144.364 15.8812 144.364 15.5202C144.364 14.1366 145.004 12.1515 146.284 9.56479C146.54 8.78277 146.796 8.39175 147.052 8.39175L147.18 8.57222V8.66246C146.412 12.5576 146.028 15.1142 146.028 16.3323H146.412C146.412 15.9714 146.924 14.7081 147.948 12.5425C147.948 11.3996 148.546 9.98589 149.741 8.30152C149.741 7.54957 150.466 5.8652 151.917 3.24842C151.917 2.3912 152.514 1.30839 153.709 0ZM145.772 29.1456L145.644 29.9577H146.028L146.156 29.326V29.1456H145.772ZM112.359 58.2009L112.615 58.2911C112.401 59.4341 112.188 60.0056 111.974 60.0056H111.846C111.761 59.795 111.718 59.6747 111.718 59.6446C112.145 58.9528 112.359 58.4716 112.359 58.2009Z" fill="#FF63A4"/>
<path d="M64.7988 44.4067L65.0548 44.4969H66.7191L66.9751 44.4067V44.4969C66.9751 44.7977 65.6522 45.0383 63.0065 45.2188C60.8941 45.8053 59.8273 46.1361 59.806 46.2113V46.3016H61.7263C62.5797 46.3016 63.0065 46.2414 63.0065 46.1211L63.6466 46.2113H63.9026C65.0548 46.2113 67.4019 45.9707 70.9438 45.4895C70.9438 45.6699 71.0291 45.7602 71.1998 45.7602H71.7119V45.3992C72.8428 45.1586 73.7389 45.0082 74.4003 44.9481V45.0383C74.7204 44.918 75.0618 44.8578 75.4245 44.8578L76.3207 44.9481V45.0383C76.3207 45.1736 75.8086 45.3541 74.7844 45.5797C74.7844 45.5195 74.7417 45.4895 74.6564 45.4895L74.7844 45.309V45.1285H74.6564C74.4857 45.1285 73.5895 45.2488 71.9679 45.4895V45.5797L72.224 45.8504C72.0106 45.8504 69.0661 46.452 63.3905 47.6551V47.9258H64.0306L69.9196 47.4746L78.625 46.0309C80.0973 46.091 81.2921 46.1211 82.2096 46.1211C82.551 46.1211 82.7644 46.2414 82.8497 46.482C81.9536 46.8279 79.4358 47.1588 75.2965 47.4746C70.581 48.2566 66.8684 49.0086 64.1587 49.7305C64.0093 49.6703 63.8386 49.6402 63.6466 49.6402C62.089 50.0613 60.8941 50.332 60.062 50.4523V50.6328C62.1317 50.5125 63.7959 50.4523 65.0548 50.4523C67.0178 50.4523 67.9993 50.5426 67.9993 50.723C67.4232 51.2193 64.5641 51.6103 59.4219 51.8961C58.5684 51.9261 58.0563 52.0465 57.8856 52.257V52.3472C57.8856 52.6029 59.2512 52.8736 61.9823 53.1593V53.3398H61.4702C61.2142 53.3398 60.2327 53.43 58.5257 53.6105C57.971 53.6105 57.1175 53.5804 55.9653 53.5203C55.3252 53.5203 53.2769 53.7609 49.8203 54.2421C48.7535 54.2421 47.7293 54.5429 46.7478 55.1445C45.2116 55.325 44.4434 55.7761 44.4434 56.498V56.6785C44.4434 56.8138 44.4861 56.9341 44.5715 57.0394C44.0594 57.3251 43.6326 58.3779 43.2913 60.1976C43.2913 62.5437 42.8645 63.7167 42.011 63.7167C40.9229 64.8296 39.2159 68.3788 36.8902 74.3643C36.5275 74.8155 36.0581 76.5901 35.482 79.6881C33.1776 85.1322 32.0254 88.2603 32.0254 89.0724C31.0866 93.7195 30.0624 97.2687 28.9529 99.72L28.4408 99.9907H28.3128C28.3128 99.8704 28.2701 99.8103 28.1848 99.8103C28.1848 99.3892 28.3982 97.4943 28.8249 94.1255V93.9451H28.6969C28.4195 94.1105 28.0354 95.2535 27.5447 97.374C26.5205 99.4193 26.0084 101.284 26.0084 102.968C24.9843 105.209 24.3442 107.495 24.0881 109.826C22.8079 112.022 22.1678 114.398 22.1678 116.955C21.9971 117.316 21.6984 117.496 21.2717 117.496C21.0156 116.564 20.8876 115.361 20.8876 113.887V112.804C20.8876 112.308 20.9729 111.405 21.1436 110.097C21.0583 109.225 21.0156 108.743 21.0156 108.653C21.6984 106.442 22.0398 104.698 22.0398 103.42H21.9118C21.7837 103.42 21.5277 104.202 21.1436 105.766C20.9943 105.766 20.8236 106.217 20.6316 107.119C20.7169 107.991 20.7596 108.473 20.7596 108.563C18.9673 114.699 17.8151 119.09 17.303 121.737H17.047C16.7696 121.737 16.5989 121.346 16.5349 120.564V120.203C16.7056 119.331 16.7909 118.88 16.7909 118.85C16.7909 118.714 16.7483 118.383 16.6629 117.857C16.983 116.233 17.2817 113.616 17.5591 110.007C17.6444 110.007 17.7298 109.525 17.8151 108.563C17.8151 108.367 17.7298 107.826 17.5591 106.939C17.7298 106.352 18.1138 105.51 18.7112 104.412L18.5832 103.51L18.7112 102.878H18.4552C18.4552 103.074 17.9004 104.367 16.7909 106.758C16.7909 108.082 16.3642 109.345 15.5107 110.548C15.02 112.654 14.6786 113.706 14.4866 113.706H14.3585C14.2092 113.706 14.0812 113.526 13.9745 113.165C14.3372 113.165 14.7213 111.029 15.1267 106.758C16.4922 102.848 17.3884 99.7802 17.8151 97.5544C18.3272 95.7197 18.9673 93.8849 19.7354 92.0502V91.8697H19.6074C19.394 91.8697 18.7112 93.3134 17.5591 96.2009C16.7696 98.0507 16.2575 99.0734 16.0228 99.2689C16.0228 99.329 15.9801 99.3591 15.8948 99.3591H15.6387V99.2689C15.8948 97.2687 16.7056 94.321 18.0711 90.4259C18.4765 89.4935 18.9459 87.5685 19.4794 84.651C20.8236 82.0041 21.8051 79.5678 22.4239 77.342C22.8293 77.1164 23.64 75.402 24.8562 72.1987C26.0298 70.8903 26.8832 69.5368 27.4167 68.1382C27.8647 67.5817 28.4622 66.138 29.209 63.8069C30.2331 61.912 30.7452 60.1074 30.7452 58.3929V58.032C30.7452 57.9417 30.5745 57.8214 30.2331 57.671H29.593L27.5447 57.9417L26.7766 57.8515C24.8562 57.8515 23.5334 58.1222 22.8079 58.6636H22.0398C21.6131 58.6636 20.4609 58.7538 18.5832 58.9343C17.6017 58.9343 16.8763 58.5734 16.4069 57.8515C15.212 57.6109 14.4866 57.4906 14.2305 57.4906C13.6117 57.5507 13.2277 57.6109 13.0783 57.671C9.8778 57.1597 8.21353 56.8589 8.08551 56.7687C7.91482 56.7687 7.82947 56.5882 7.82947 56.2273C8.36289 55.325 9.42973 54.8738 11.03 54.8738C11.7981 54.8738 12.1822 54.573 12.1822 53.9714C12.1822 52.9488 13.3344 52.1968 15.6387 51.7156C16.8763 50.8734 17.6871 50.4523 18.0711 50.4523C18.4552 50.332 19.0526 50.2117 19.8634 50.0914C20.1195 50.0914 20.2475 50.1215 20.2475 50.1816C21.101 50.1215 21.7411 50.0914 22.1678 50.0914H24.6002C24.9843 50.0914 26.4352 49.6402 28.9529 48.7379C30.2545 48.7379 31.62 48.5273 33.0496 48.1062C35.0979 48.1062 41.2429 47.4746 51.4846 46.2113C53.1489 46.2113 54.7278 45.8805 56.2214 45.2188H58.0137C62.5371 44.8578 64.7988 44.5871 64.7988 44.4067ZM59.998 48.8056V48.8958H60.382C60.5527 48.8958 60.6381 48.8356 60.6381 48.7153V48.6251H60.254C60.0833 48.6401 59.998 48.7003 59.998 48.8056ZM75.4885 48.5349L75.6165 48.7153C75.4245 48.7153 75.2538 48.7454 75.1045 48.8056V48.6251C75.1898 48.6251 75.3178 48.595 75.4885 48.5349Z" fill="#FF63A4"/>
<path d="M60.7981 59.6562C61.4596 59.8367 61.929 59.9269 62.2063 59.9269H62.7184L63.4866 59.8367C65.1295 59.972 66.6231 60.1525 67.9673 60.3781C69.6742 60.8743 70.5277 61.8068 70.5277 63.1753C70.6984 63.461 71.3385 63.7919 72.448 64.1679C73.4722 66.1681 73.9843 67.9126 73.9843 69.4014C73.8136 70.8602 73.7282 71.8829 73.7282 72.4694V74.4545L72.8321 76.6202V78.4248C72.8321 79.4625 71.1251 82.35 67.7112 87.0873C67.0925 89.5988 66.1537 91.4636 64.8948 92.6818C64.8948 93.1179 63.8279 95.0429 61.6943 98.4568C61.6943 99.3892 61.2249 100.081 60.286 100.532L58.2377 104.051H58.1097L57.8536 103.961C58.5364 102.562 59.0912 101.149 59.5179 99.72C60.03 98.8327 60.286 97.9605 60.286 97.1033H59.902C58.3657 99.8855 57.0428 102.141 55.9333 103.871C53.4369 107.179 51.0045 108.834 48.6361 108.834C47.4626 109.255 46.3531 109.465 45.3076 109.465C43.5793 109.465 40.6348 108.262 36.4741 105.856C35.77 105.089 35.3433 104.517 35.1939 104.142C35.2793 103.63 35.322 103.239 35.322 102.968C34.1271 100.517 33.5297 98.8327 33.5297 97.9154L33.9137 96.0204V95.84C33.9137 95.6294 33.8711 95.3587 33.7857 95.0279C33.8711 94.9076 33.9137 94.8173 33.9137 94.7572H34.4258C34.6605 94.7572 34.8739 95.2986 35.0659 96.3814H35.1939C35.3646 96.3814 35.5353 95.8701 35.706 94.8474C36.6448 93.4789 37.1142 92.005 37.1142 90.4259C37.5196 89.3883 38.0744 88.516 38.7785 87.8092C38.7785 87.3129 40.6135 83.5832 44.2834 76.6202C44.2834 75.9584 44.6675 74.6651 45.4356 72.7401C45.4356 71.943 46.2037 70.8301 47.74 69.4014C48.1881 67.7772 48.7855 66.9651 49.5323 66.9651C50.8978 66.2583 51.5806 65.5063 51.5806 64.7093L51.4526 63.8972C52.0714 62.5587 53.9063 61.3857 56.9575 60.3781C58.6218 59.8968 59.902 59.6562 60.7981 59.6562ZM46.5878 97.2837L46.3318 97.5544V97.7349C46.4384 98.3365 46.8652 98.6372 47.612 98.6372H47.996C48.1881 98.5019 48.8708 97.5995 50.0444 95.9302C50.8552 95.6896 51.7513 94.306 52.7328 91.7795C54.3117 90.3508 55.8906 87.5836 57.4696 83.4779C58.1524 80.7709 58.7498 79.4174 59.2619 79.4174H59.3899L60.03 80.1393C60.5634 78.4399 61.7156 76.184 63.4866 73.3717C64.2547 71.8829 64.6387 70.1684 64.6387 68.2284C64.8094 68.2284 64.8948 67.7772 64.8948 66.8749V66.153C64.4467 64.589 63.6359 63.8069 62.4624 63.8069H61.8223C60.4141 64.4536 59.0058 66.4688 57.5976 69.8526C57.1922 70.0782 56.6801 71.2212 56.0613 73.2815C55.4852 74.1688 54.8451 75.4922 54.141 77.2518C53.1169 77.5977 52.6048 78.2594 52.6048 79.2369C51.0685 81.3274 50.3004 83.1922 50.3004 84.8314C48.9348 86.606 48.2521 87.9295 48.2521 88.8017C48.2521 89.7943 47.6973 92.1404 46.5878 95.84V97.2837ZM66.175 88.7115L66.047 88.892V89.0724H66.431V88.892C66.431 88.7717 66.3457 88.7115 66.175 88.7115ZM65.4069 90.4259C65.2362 90.817 65.1508 91.0877 65.1508 91.2381H65.5349L65.7909 90.6064V90.4259H65.4069Z" fill="#FF63A4"/>
<path d="M101.509 58.9794C104.347 59.4005 105.84 59.6111 105.989 59.6111C106.736 59.5509 107.206 59.5208 107.398 59.5208C108.998 59.7615 110.406 59.9118 111.622 59.972C115.164 59.7314 117.511 59.4908 118.664 59.2501C119.581 59.4306 120.264 59.5208 120.712 59.5208H122.248C122.333 59.5208 122.376 59.4908 122.376 59.4306C123.955 59.6712 125.193 59.8216 126.089 59.8818C127.796 59.7915 128.649 59.7013 128.649 59.6111C131.082 59.9118 132.532 60.0622 133.002 60.0622L134.794 59.972C137.013 60.3931 138.123 60.6638 138.123 60.7841V60.8743C137.931 60.8743 136.693 61.0247 134.41 61.3255C134.111 61.3255 133.386 61.2654 132.234 61.145C131.06 61.2052 130.335 61.2353 130.057 61.2353C128.799 61.115 127.86 61.0548 127.241 61.0548H126.089C125.449 61.0548 125.107 61.145 125.065 61.3255C125.065 61.4609 126.644 61.5812 129.801 61.6864C130.74 61.9872 131.423 62.1376 131.85 62.1376L133.642 62.0474C134.944 62.2279 136.181 62.3181 137.355 62.3181H138.123C138.613 62.3181 139.979 62.2279 142.219 62.0474C142.731 62.0474 143.67 62.288 145.036 62.7693C145.975 62.8144 146.444 62.9046 146.444 63.04C146.444 63.2204 146.017 63.3107 145.164 63.3107C144.182 63.1903 143.5 63.1302 143.116 63.1302H142.603C141.43 63.1302 140.192 63.2204 138.891 63.4009C135.968 63.3558 133.919 63.2355 132.746 63.04H131.594C129.972 63.2806 129.161 63.4911 129.161 63.6716C129.353 63.9724 129.993 64.1228 131.082 64.1228H133.258C134.794 64.1228 135.562 64.213 135.562 64.3935L134.026 64.7544C133.13 64.6942 132.404 64.6642 131.85 64.6642C130.292 64.9048 129.225 65.0251 128.649 65.0251C128.158 64.9349 127.177 64.8146 125.705 64.6642H125.577C124.766 64.6642 123.784 64.6942 122.632 64.7544C120.925 64.4536 119.602 64.3032 118.664 64.3032H118.536C118.087 64.3032 117.703 64.3333 117.383 64.3935C116.935 64.3333 116.679 64.3032 116.615 64.3032C109.617 64.5138 106.118 64.8747 106.118 65.386C105.605 65.9726 105.221 67.2058 104.965 69.0856C104.731 69.3864 104.603 70.1384 104.581 71.3415V72.1536C105.243 72.334 105.669 72.4243 105.861 72.4243C106.502 72.4243 107.611 72.2739 109.19 71.9731L111.366 72.1536C115.036 71.9731 117.298 71.8829 118.151 71.8829C118.664 71.8829 119.517 71.9731 120.712 72.1536V72.2438C120.712 72.3942 120.285 72.5446 119.432 72.695V72.7852C119.944 73.086 120.456 73.2364 120.968 73.2364C121.544 73.2364 122.782 73.1161 124.681 72.8755C130.612 73.4169 134.367 73.6876 135.946 73.6876H136.33L136.971 73.7778V74.0485L136.843 74.229C133.898 74.1688 131.764 74.1387 130.441 74.1387H128.265C127.412 74.1387 125.534 74.259 122.632 74.4997H118.92V74.7704H120.584L121.352 74.6801C123.102 74.9809 124.083 75.1313 124.296 75.1313C124.36 75.1313 124.617 75.1012 125.065 75.0411C126.025 75.2817 126.708 75.402 127.113 75.402C127.774 75.402 128.969 75.3719 130.698 75.3118L130.826 75.4922C130.505 75.6727 129.908 75.7629 129.033 75.7629H128.137C126.985 76.0788 124.979 76.2893 122.12 76.3946C120.627 76.2743 119.09 76.2141 117.511 76.2141C115.548 76.2141 112.775 76.6653 109.19 77.5676C108.123 77.5676 106.8 77.8082 105.221 78.2895C104.283 78.2895 103.813 78.47 103.813 78.8309C103.493 81.0115 102.896 83.0869 102.021 85.057V85.2375C102.021 85.809 102.149 86.4707 102.405 87.2226C102.149 88.2754 102.021 88.9371 102.021 89.2078V89.8394L102.149 90.3808C100.933 93.6443 100.207 95.3287 99.9725 95.4339L99.8445 95.2535V95.1632L100.485 92.9074C100.399 92.9074 100.357 92.8773 100.357 92.8171H100.485C100.485 92.757 100.442 92.7269 100.357 92.7269C100.442 91.8547 100.485 91.3734 100.485 91.2832C100.485 90.2004 100.357 89.659 100.101 89.659C99.8658 89.659 99.4818 90.6215 98.9483 92.5464C98.9483 93.0578 98.5216 94.9226 97.6681 98.1409C97.6681 98.7425 96.7293 100.998 94.8517 104.908C94.5956 106.352 94.2969 107.435 93.9555 108.157H93.8275C93.6995 108.157 93.5715 107.976 93.4434 107.616L93.5715 106.713V104.728L94.8517 100.938C95.2784 99.69 95.4918 98.7575 95.4918 98.1409H95.3638C95.0864 98.1409 94.7877 99.0132 94.4676 100.758C94.2542 100.833 93.6141 102.156 92.5473 104.728C91.5018 106.187 90.7763 108.382 90.3709 111.315C88.408 115 87.4265 117.586 87.4265 119.075C87.1491 119.617 86.9357 119.887 86.7864 119.887C86.6157 119.887 86.5303 119.827 86.5303 119.707V119.617C87.0637 114.383 87.7465 110.834 88.5787 108.969C89.5175 106.879 90.2003 104.653 90.627 102.292C91.3951 100.788 92.0779 98.8027 92.6753 96.3363V96.1558H92.5473C92.1206 96.3663 91.3951 97.9304 90.3709 100.848C89.4321 102.292 88.8347 103.645 88.5787 104.908C88.2373 105.209 88.0239 105.36 87.9385 105.36C87.7252 105.36 87.5972 105.089 87.5545 104.548C87.5545 103.014 88.2799 100.908 89.7308 98.2312C89.7308 97.5695 89.9869 96.4566 90.499 94.8925C90.499 94.1255 90.7123 93.2232 91.1391 92.1855V91.8246H91.0111L89.7308 93.6293L89.2188 93.9C89.0481 93.9 88.9627 93.8398 88.9627 93.7195C88.9627 93.2382 89.4321 91.4636 90.3709 88.3957C90.3709 85.824 90.9257 83.5381 92.0352 81.5379V80.6356C92.0352 80.5153 91.9499 80.4551 91.7792 80.4551H90.1149L89.2188 80.6356C88.664 80.5153 88.3226 80.4551 88.1946 80.4551C86.9784 80.6356 85.9542 80.7258 85.1221 80.7258C82.9031 80.5754 81.7935 80.3949 81.7935 80.1844V80.0039C82.7964 79.4174 83.3511 79.0264 83.4578 78.8309L82.9457 77.8383C83.2658 77.6729 85.3141 77.1916 89.0907 76.3946C89.9015 76.0487 90.4136 75.7479 90.627 75.4922V75.3118L90.499 74.6801C91.1177 74.4696 92.1846 74.1989 93.6995 73.868C93.9555 73.5221 94.2969 72.4092 94.7237 70.5294C95.1504 69.988 95.4491 68.9653 95.6198 67.4614C95.5345 66.7395 95.3638 66.3786 95.1077 66.3786H93.1874C92.9527 66.3786 92.3553 66.2583 91.3951 66.0177H88.3226C87.2344 66.0177 86.637 65.747 86.5303 65.2056C86.637 65.2056 86.8504 65.0552 87.1704 64.7544V64.4837C86.0822 63.8821 84.7594 63.5814 83.2018 63.5814C83.0311 63.431 82.9457 63.3407 82.9457 63.3107V63.2204C83.5645 62.5587 85.0581 62.2279 87.4265 62.2279H88.1946C88.8134 62.3482 89.1547 62.4083 89.2188 62.4083H89.3468C89.6455 62.4083 90.5416 61.897 92.0352 60.8743C92.8247 60.754 93.2941 60.6939 93.4434 60.6939C94.617 60.754 95.3424 60.7841 95.6198 60.7841C95.7692 60.5435 96.964 60.1224 99.2044 59.5208C99.8872 59.1599 100.655 58.9794 101.509 58.9794Z" fill="#FF63A4"/>
<path d="M157.454 57.671C158.393 57.7613 158.862 57.9117 158.862 58.1222C158.606 58.3478 157.198 58.6185 154.637 58.9343C153.784 59.2802 153.357 59.4908 153.357 59.5659L153.613 59.6562C154.339 59.6562 155.619 59.6261 157.454 59.5659C159.758 59.7464 160.91 59.957 160.91 60.1976V60.2878C157.155 60.7089 153.827 61.1601 150.925 61.6413V62.0023L151.821 62.0925H153.357C153.528 62.1075 153.613 62.1677 153.613 62.273V62.3632C153.613 62.5737 151.608 63.055 147.596 63.8069C147.362 64.0626 146.38 64.3634 144.652 64.7093C144.609 65.0251 143.926 65.4161 142.603 65.8823C142.283 65.8823 142.07 66.7245 141.963 68.4089C141.11 69.2811 140.683 69.8225 140.683 70.0331V70.5745C140.683 73.0258 140.128 75.8532 139.019 79.0565L137.227 86.5459V88.8017L135.946 93.0427C135.946 94.1255 135.52 95.5392 134.666 97.2837V97.8251H135.178C135.626 97.6447 137.973 97.4642 142.219 97.2837C143.585 96.9228 144.652 96.7423 145.42 96.7423H146.06C146.188 96.7423 146.316 96.8326 146.444 97.013V97.1935C144.865 97.7499 143.884 98.1409 143.5 98.3665L142.988 98.8177V99.5396C142.988 99.9607 142.219 100.261 140.683 100.442C134.538 101.6 131.466 102.713 131.466 103.781C130.676 104.578 130.079 106.172 129.673 108.563C129.14 108.924 128.713 109.104 128.393 109.104C128.222 108.939 128.052 108.488 127.881 107.751H127.497C126.708 109.901 126.11 111.315 125.705 111.992L125.193 112.263H125.065C124.659 112.263 124.36 111.661 124.168 110.458C124.339 109.059 124.425 108.187 124.425 107.841V107.57C123.806 107.691 123.464 107.751 123.4 107.751H123.272C122.824 107.676 122.568 106.773 122.504 105.044L121.864 104.954H121.608C121.523 104.954 120.883 105.044 119.688 105.224C119.176 104.984 118.792 104.863 118.536 104.863H118.28C113.82 105.585 111.089 105.946 110.086 105.946C109.553 105.946 109.211 105.675 109.062 105.134C112.241 103.916 114.503 103.164 115.847 102.878C115.847 101.795 116.359 101.254 117.383 101.254C121.48 100.156 123.528 99.1937 123.528 98.3665C124.638 95.1783 125.278 92.8021 125.449 91.2381C125.961 89.9447 127.07 86.1549 128.777 79.8686V79.7783C128.777 79.6881 128.479 79.2069 127.881 78.3346V78.2444C129.588 74.1688 130.441 71.6122 130.441 70.5745C130.1 69.1909 129.332 68.4991 128.137 68.4991H127.497C127.198 68.4991 125.875 68.8901 123.528 69.6721C123.059 69.7323 122.675 69.7624 122.376 69.7624C122.035 69.4917 121.864 69.3413 121.864 69.3112V69.221C121.864 69.0405 122.419 68.4089 123.528 67.3261V66.9651C123.358 66.8599 123.187 66.4087 123.016 65.6116C123.016 65.3409 123.998 64.9198 125.961 64.3483C126.345 64.3483 127.07 63.9874 128.137 63.2655C129.567 62.7392 132.725 61.7466 137.611 60.2878C139.062 59.4456 140.47 59.0245 141.835 59.0245C143.628 58.423 144.908 58.1222 145.676 58.1222H145.804V58.2124C145.804 58.3177 145.463 58.5884 144.78 59.0245V59.205H145.164C146.231 58.9644 148.748 58.6636 152.717 58.3027C152.802 58.2425 154.381 58.032 157.454 57.671Z" fill="#FF63A4"/>
<path d="M175.473 57.7838C175.921 57.7838 176.177 58.0846 176.241 58.6862C175.729 59.1825 175.473 60.2051 175.473 61.7541V61.9346C175.473 62.6715 173.979 63.5438 170.992 64.5514C170.672 64.7318 170.203 65.574 169.584 67.0779C169.157 67.5441 168.176 67.9953 166.639 68.4314C166.17 68.9578 164.164 70.4918 160.622 73.0334C158.915 74.4921 158.062 75.3343 158.062 75.5599L158.19 76.0111C157.998 76.0111 157.87 76.1615 157.806 76.4622L158.446 76.6427C160.068 76.6427 161.647 76.4021 163.183 75.9208H163.439C163.716 75.9208 164.314 75.981 165.231 76.1013C165.615 76.1013 168.645 75.5298 174.321 74.3869C175.686 74.3267 176.497 74.2966 176.753 74.2966C176.924 74.3568 177.052 74.3869 177.137 74.3869V75.0185H177.905C178.673 74.7929 180.764 74.5824 184.178 74.3869L191.86 73.2138C192.009 73.274 192.18 73.3041 192.372 73.3041V73.4845C192.372 74.0861 189.256 74.9283 183.026 76.0111V76.1915H182.13C181.959 76.2066 181.874 76.2667 181.874 76.372L182.13 76.4622H182.642C183.559 76.2517 185.352 76.0712 188.019 75.9208C189.555 75.981 190.323 76.1013 190.323 76.2818C189.811 76.6728 188.062 77.0638 185.074 77.4548C183.922 77.891 182.301 78.3421 180.21 78.8083C180.21 78.8384 180.124 78.9286 179.954 79.079C179.954 79.2445 180.38 79.3949 181.234 79.5302V79.8009C180.615 80.0866 179.42 80.4476 177.649 80.8837C177.009 81.4853 176.454 82.2372 175.985 83.1396C175.302 83.6509 174.79 84.3728 174.449 85.3052C173.787 85.9368 173.318 87.1399 173.04 88.9145C171.654 89.8469 170.501 91.5012 169.584 93.8774C167.13 97.1108 165.679 100.419 165.231 103.803C163.524 106.931 162.671 110.029 162.671 113.097C162.671 113.654 162.073 116.722 160.878 122.301C160.878 122.527 161.006 123.249 161.263 124.467L161.135 124.918H160.75C160.516 124.376 160.345 121.73 160.238 116.977C160.153 116.977 160.11 116.947 160.11 116.887C160.196 116.782 160.238 116.661 160.238 116.526V115.894L160.11 115.443H159.854C159.854 115.879 159.428 118.135 158.574 122.211C158.574 123.895 158.19 126.151 157.422 128.978V132.858C157.422 132.979 157.337 133.039 157.166 133.039C156.995 133.039 156.696 131.866 156.27 129.52C156.355 128.678 156.398 127.956 156.398 127.354V125.82C156.568 124.467 156.654 123.745 156.654 123.655V123.203L156.526 122.662C156.611 122.557 156.824 121.684 157.166 120.045C157.081 117.834 157.038 115.97 157.038 114.451V113.729C157.038 113.609 156.952 113.548 156.782 113.548C156.526 115.188 156.014 116.872 155.246 118.601C155.16 121.248 154.989 122.752 154.733 123.113H154.477C154.413 122.752 154.328 122.572 154.221 122.572L154.349 122.391V121.85C154.349 121.068 154.392 120.256 154.477 119.414C154.307 118.601 154.221 117.91 154.221 117.338C154.264 115.248 154.733 112.751 155.63 109.849C156.227 107.879 156.526 106.465 156.526 105.608H156.27C155.502 107.202 155.032 108.555 154.861 109.668C154.157 111.759 153.731 112.842 153.581 112.917C153.325 112.616 153.155 112.165 153.069 111.563C153.069 109.548 153.837 106.42 155.374 102.179C156.398 100.645 157.123 98.8403 157.55 96.7649C158.403 95.652 158.83 94.87 158.83 94.4188V93.8774L158.19 93.7872C156.782 94.0428 154.733 95.0655 152.045 96.8551C152.045 97.1709 149.741 97.7123 145.132 98.4793L144.492 98.5696C141.419 98.5696 138.987 96.8551 137.195 93.4262C137.195 92.6592 136.939 90.644 136.426 87.3806V86.9294C136.426 86.2677 138.005 84.5231 141.163 81.6958C141.163 81.2747 142.785 80.0115 146.028 77.906C149.101 74.8982 152.173 72.2513 155.246 69.9654C158.339 66.3561 160.089 64.4311 160.494 64.1904C160.964 64.1904 161.647 63.619 162.543 62.476C163.396 62.1301 164.762 60.9571 166.639 58.9569C167.237 58.5959 167.962 58.4155 168.816 58.4155C168.816 58.611 169.285 58.9418 170.224 59.408C173.254 58.3252 174.961 57.7838 175.345 57.7838H175.473ZM146.54 90.3583V90.7192C146.54 90.7944 146.753 90.9448 147.18 91.1704H147.82C148.311 91.1704 149.335 90.4485 150.893 89.0048C153.091 87.4407 155.224 86.388 157.294 85.8466C158.467 85.3202 159.15 84.8991 159.342 84.5833C159.342 83.9216 158.361 83.5907 156.398 83.5907C155.886 83.1396 155.63 82.8087 155.63 82.5982C155.715 81.8763 155.758 81.3349 155.758 80.9739C155.48 80.8536 155.224 80.7935 154.989 80.7935H154.861C154.392 80.7935 153.624 81.395 152.557 82.5982C151.405 83.696 150.039 85.5007 148.46 88.0122C147.18 88.9747 146.54 89.7567 146.54 90.3583Z" fill="#FF63A4"/>
<path d="M224.889 53.6556H225.017V53.7459C224.804 53.9865 224.59 54.588 224.377 55.5505C222.841 57.1146 222.072 58.1974 222.072 58.799V59.0697H222.2C224.185 57.8665 225.337 57.265 225.657 57.265C225.188 57.7011 224.804 58.423 224.505 59.4306C223.203 60.2878 222.307 61.3105 221.816 62.4986C221.112 63.1903 220.686 63.7317 220.536 64.1228L220.792 64.213C221.027 64.213 221.496 63.8821 222.2 63.2204C222.734 63.2204 223.374 62.7091 224.121 61.6864L224.377 61.5962H224.505V61.8669C220.835 65.4312 219 68.1081 219 69.8977C217.805 71.1911 217.208 72.0633 217.208 72.5145L217.464 74.229L214.903 79.643C214.903 80.2897 214.647 80.8612 214.135 81.3574C214.135 82.2899 213.239 84.8164 211.447 88.9371C210.423 92.2607 209.91 94.3361 209.91 95.1632C209.484 97.1183 209.057 98.7425 208.63 100.036C207.521 102.487 206.966 104.051 206.966 104.728L207.222 104.999L206.326 105.991H206.198C206.198 105.901 206.027 105.721 205.686 105.45C205.6 105.149 205.515 104.999 205.43 104.999C206.283 101.765 206.71 100.051 206.71 99.8554V99.4945H206.454C206.454 99.72 205.856 101.043 204.662 103.465C203.317 108.698 201.909 112.338 200.437 114.383C199.413 116.504 198.901 117.677 198.901 117.902H198.517L198.389 117.541L198.901 114.564C200.266 111.45 200.949 109.044 200.949 107.345H200.821C200.48 107.345 199.626 108.999 198.261 112.308L197.492 115.466C196.66 116.338 195.892 117.812 195.188 119.887C194.655 120.218 194.1 121.602 193.524 124.038H193.396C193.14 124.008 193.012 123.767 193.012 123.316V123.136C193.012 122.97 193.14 122.399 193.396 121.421C193.396 121.105 193.353 120.594 193.268 119.887C194.207 117.18 194.676 115.285 194.676 114.203C196.81 110.804 197.876 108.097 197.876 106.082H197.748C197.194 106.488 196.724 107.3 196.34 108.518C194.612 110.443 193.673 112.308 193.524 114.112C193.524 114.398 193.225 114.699 192.628 115.015H192.372L192.244 114.654L193.396 110.593C193.801 108.503 194.527 106.488 195.572 104.548C196.34 103.51 197.151 101.825 198.005 99.4945C198.602 98.8779 198.901 98.4267 198.901 98.1409V98.0507H198.517C198.517 98.3515 198.218 98.7124 197.62 99.1335H197.492L197.364 98.7726C197.471 97.8702 198.538 96.0956 200.565 93.4488C200.565 93.133 201.418 91.4486 203.125 88.3957C203.125 88.0498 203.595 86.8467 204.534 84.7863V84.2449H204.15C203.275 84.2449 202.08 85.2074 200.565 87.1324C199.221 87.749 198.111 88.922 197.236 90.6515C196.234 91.3734 195.465 91.7343 194.932 91.7343C193.823 91.7343 192.841 91.3433 191.988 90.5613L191.347 90.4711H190.323C189.128 89.6138 188.531 87.7189 188.531 84.7863L188.275 84.6961H188.019C186.611 85.8842 185.458 88.0197 184.562 91.1027C183.282 93.0728 182.173 95.2384 181.234 97.5995C180.871 98.1409 180.487 98.5019 180.082 98.6824H179.954V98.5921C179.954 97.9906 179.996 97.0882 180.082 95.8851H179.954C179.634 96.246 178.78 97.9304 177.393 100.938L176.241 104.548C175.665 105.826 175.153 107.45 174.705 109.42C172.998 112.488 171.675 115.466 170.736 118.353C170.523 119.556 170.309 120.158 170.096 120.158C169.925 120.158 169.84 120.098 169.84 119.978V116.007C170.693 112.443 171.12 110.608 171.12 110.503C171.803 108.969 172.144 107.826 172.144 107.074V106.984H172.016C171.675 107.209 170.693 109.074 169.072 112.578C168.794 113.902 168.538 114.564 168.304 114.564C168.133 114.564 168.048 114.503 168.048 114.383V114.293C168.304 112.172 168.645 110.578 169.072 109.51C169.285 109.51 169.456 108.548 169.584 106.623C170.267 105.345 170.608 104.442 170.608 103.916H170.224C169.2 105.916 168.474 107.209 168.048 107.796H167.792C167.621 107.796 167.536 107.736 167.536 107.616C167.856 107.044 168.197 105.691 168.56 103.555C169.413 101.104 170.267 98.9681 171.12 97.1484H170.736C169.691 98.9531 169.008 99.8554 168.688 99.8554L168.432 99.5847V99.4042C169.371 97.013 170.821 94.0353 172.784 90.4711C172.784 90.3357 173.638 88.7717 175.345 85.7789C175.345 85.3578 176.07 84.1246 177.521 82.0793V81.8086C177.521 80.9063 177.436 80.4551 177.265 80.4551C179.591 75.8381 181.042 72.5897 181.618 70.7098C182.813 69.612 183.41 68.3186 183.41 66.8298C184.349 65.5364 184.989 64.1228 185.33 62.5888C185.949 61.5661 187.101 61.0548 188.787 61.0548C189.214 61.0097 190.11 60.1675 191.475 58.5283C192.137 58.047 192.734 57.8064 193.268 57.8064C193.993 57.8064 194.633 58.438 195.188 59.7013C194.676 60.7841 194.42 61.4157 194.42 61.5962V61.7767C194.42 61.882 194.847 62.4234 195.7 63.4009C195.871 63.8521 195.956 64.1228 195.956 64.213C194.847 65.7771 194.292 66.7997 194.292 67.2809C194.463 68.454 194.548 69.3263 194.548 69.8977V73.0559C194.548 73.9583 194.591 75.1915 194.676 76.7555C194.42 77.1916 194.292 77.7932 194.292 78.5602C194.975 78.7858 195.529 79.5076 195.956 80.7258C195.956 81.0867 196.255 81.2672 196.852 81.2672C197.983 80.8311 198.837 80.019 199.413 78.8309C200.16 77.9887 201.226 77.0262 202.613 75.9434C203.125 75.5223 203.381 75.1012 203.381 74.6801C203.211 73.868 203.125 73.3567 203.125 73.1462C203.125 72.8153 204.192 71.7024 206.326 69.8075C207.051 67.8374 208.204 66.4839 209.782 65.747C210.444 64.6792 211.425 63.5062 212.727 62.2279C212.727 61.3255 213.922 59.972 216.312 58.1673C217.336 56.7837 218.232 55.9115 219 55.5505H219.256V55.731C219.256 55.8964 218.616 56.7386 217.336 58.2576C217.336 58.5884 216.824 59.5208 215.799 61.0548C215.543 61.5812 215.415 61.9722 215.415 62.2279H215.671C216.568 60.9195 218.744 58.9343 222.2 56.2724C223.566 54.7234 224.462 53.8511 224.889 53.6556ZM171.888 94.9828C171.291 95.9152 170.992 96.5468 170.992 96.8777H171.376C171.888 95.9753 172.144 95.3738 172.144 95.073L171.888 94.9828ZM169.584 109.691L169.328 110.323H169.456C169.627 110.323 169.755 110.112 169.84 109.691H169.584ZM193.268 112.488L193.14 112.939V113.571C193.396 113.511 193.524 113.33 193.524 113.03V112.488H193.268ZM199.413 114.564C199.327 115 199.285 115.24 199.285 115.285H199.541L199.797 114.654V114.564H199.413Z" fill="#FF63A4"/>
<path d="M233.114 54.0166C234.48 54.0166 235.163 54.197 235.163 54.558C235.227 56.1671 235.611 57.0695 236.315 57.265H236.571L238.491 56.8138C239.046 56.8138 239.43 57.2951 239.643 58.2576L239.515 58.438C239.515 59.7163 240.241 60.5886 241.692 61.0548C241.948 61.4458 242.076 61.8068 242.076 62.1376C241.478 62.7241 241.18 63.2655 241.18 63.7618C241.244 65.5063 241.329 66.3786 241.436 66.3786C241.18 67.5065 241.052 68.4089 241.052 69.0856C241.137 73.3266 241.18 75.793 241.18 76.4848C241.18 76.5299 241.222 76.7104 241.308 77.0262C241.137 77.2668 241.052 77.5977 241.052 78.0188V78.109C241.052 78.3196 241.265 78.6203 241.692 79.0114V79.1016L241.436 79.9137C241.436 80.3348 241.478 81.207 241.564 82.5305L241.82 82.6207H242.076C245.532 81.3574 248.519 80.7258 251.037 80.7258H252.573C252.744 80.7408 252.829 80.801 252.829 80.9063C252.659 81.1168 251.464 81.7485 249.245 82.8012L248.733 83.3426V83.7035C248.903 83.9441 249.16 84.0645 249.501 84.0645V84.1547C249.501 84.8164 247.197 85.7488 242.588 86.9519C242.289 87.3881 242.033 88.8619 241.82 91.3734C241.905 92.4111 241.948 93.0127 241.948 93.1781L241.82 93.9902C242.161 94.8925 242.332 95.5843 242.332 96.0656V96.6972H242.076C241.393 96.2761 241.052 95.855 241.052 95.4339H240.796C240.625 96.0956 240.539 96.4566 240.539 96.5167C240.539 97.6597 240.71 99.0734 241.052 100.758C240.966 101.389 240.924 101.75 240.924 101.841C241.094 102.412 241.222 103.014 241.308 103.645L241.18 104.096C241.009 106.112 240.924 107.315 240.924 107.706V108.157C240.924 108.488 241.052 109.751 241.308 111.947C241.244 112.428 241.116 112.669 240.924 112.669H240.796C240.198 112.669 239.643 110.563 239.131 106.352L238.875 106.262H238.747V106.352C238.747 106.849 238.79 107.24 238.875 107.525C238.704 108.458 238.619 109.3 238.619 110.052H238.747C238.576 110.368 238.491 110.999 238.491 111.947V116.639C238.491 116.774 238.363 117.165 238.107 117.812C238.107 117.992 238.278 118.684 238.619 119.887C238.555 120.429 238.427 120.699 238.235 120.699H237.979C237.296 119.617 236.784 117.331 236.443 113.842C236.528 113.511 236.571 113.24 236.571 113.03V112.488C236.571 109.18 236.4 107.044 236.059 106.082H235.803C235.632 106.503 235.547 106.864 235.547 107.164V108.789C235.461 109.691 235.205 110.142 234.779 110.142H234.651C234.48 110.142 234.394 110.082 234.394 109.962C233.968 106.593 233.754 104.638 233.754 104.096C234.01 103.059 234.138 102.427 234.138 102.201C234.138 101.795 234.01 101.194 233.754 100.397H233.498C233.328 100.788 233.242 101.059 233.242 101.209C233.242 101.495 233.285 101.795 233.37 102.111C233.2 102.592 233.114 103.164 233.114 103.826V105.54C233.114 105.856 232.986 106.337 232.73 106.984H232.474C232.303 106.758 232.005 103.39 231.578 96.8777C231.493 96.8777 231.45 96.7273 231.45 96.4265C231.535 95.058 231.578 94.0353 231.578 93.3585C231.578 93.2683 231.493 92.9976 231.322 92.5464C231.407 92.1554 231.45 91.7644 231.45 91.3734L231.194 91.2832H230.426C229.124 91.7494 227.46 92.2005 225.433 92.6367C224.729 92.6367 223.449 95.1331 221.592 100.126C220.931 101.284 220.205 102.938 219.416 105.089C219.245 105.089 219.075 105.269 218.904 105.63H218.52C218.52 105.585 218.477 105.405 218.392 105.089C218.392 104.608 218.861 102.833 219.8 99.7652H219.416C218.733 101.134 217.538 103.961 215.831 108.247C214.551 110.714 213.442 113.06 212.503 115.285C212.055 115.827 211.756 116.097 211.607 116.097L211.351 115.556C211.521 114.609 212.46 111.24 214.167 105.45H213.783C212.759 107.029 212.076 108.232 211.735 109.059H211.351L211.095 108.428C212.033 105.284 212.802 102.999 213.399 101.57V101.028H213.271C212.567 102.051 212.097 102.562 211.863 102.562H211.735L211.607 102.111C212.375 99.3741 213.1 97.2386 213.783 95.7046V95.6144H213.655C212.802 95.6144 210.625 96.0355 207.126 96.8777C206.785 96.7874 206.614 96.6972 206.614 96.607V96.5167C207.19 96.0054 208.172 95.5843 209.558 95.2535V95.073H208.79C208.001 95.073 205.312 95.4339 200.725 96.1558C200.213 96.4566 199.487 96.607 198.549 96.607H198.421V96.3363C199.551 95.6595 202.069 94.7873 205.974 93.7195C206.571 93.4037 207.851 92.9525 209.814 92.366L209.942 92.1855V92.0953C209.302 92.0953 208.961 92.005 208.918 91.8246V91.7343C210.369 91.0425 213.1 90.0199 217.112 88.6664C217.496 87.9896 217.965 86.7564 218.52 84.9668C219.885 83.0568 220.568 81.8537 220.568 81.3574V80.2746C220.568 79.7332 221.294 78.3196 222.745 76.0336C223.342 73.6124 224.708 69.8526 226.841 64.7544C227.417 63.7468 228.228 61.6413 229.274 58.438C230.511 55.4904 231.791 54.0166 233.114 54.0166ZM227.609 85.2375V85.8691H228.762C229.338 85.8691 230.362 85.4781 231.834 84.6961V81.2672C231.749 79.5076 231.493 78.5752 231.066 78.47H230.81C229.7 79.3422 229.146 80.5754 229.146 82.1695C228.121 83.8689 227.609 84.8916 227.609 85.2375Z" fill="#FF63A4"/>
<path d="M202.383 3.80127C202.526 3.90978 202.64 4.12681 202.725 4.45236C201.813 5.35008 201.357 5.96171 201.357 6.28725V6.5832C201.699 6.62266 201.87 6.68185 201.87 6.76077C201.87 7.34281 201.101 8.70418 199.562 10.8449C198.992 12.1175 198.707 12.9067 198.707 13.2125V13.7452C198.707 13.7847 198.736 13.8044 198.793 13.8044C198.779 14.0214 198.294 14.7317 197.339 15.9352C197.225 16.0931 197.168 16.3101 197.168 16.5863V17.0007C197.168 17.0302 197.225 17.1881 197.339 17.4742L197.083 18.0661V18.362H197.767C199.505 17.5728 201.016 17.1388 202.298 17.0598V17.1782C202.298 17.2177 202.041 17.4347 201.528 17.8293V17.9477H201.614C204.207 17.3953 206.145 17.0204 207.427 16.8231C207.727 16.7836 208.069 16.7639 208.453 16.7639H208.624V16.8823C208.496 17.0796 207.214 17.415 204.777 17.8885C203.082 18.5199 201.885 18.8355 201.187 18.8355C199.99 19.6741 199.391 20.1871 199.391 20.3745H199.99C200.56 20.3745 201.243 20.4929 202.041 20.7296C202.041 20.8973 201.414 21.1341 200.161 21.4399V21.5583H201.528L201.956 21.6175V21.795C200.788 22.5448 199.933 22.9197 199.391 22.9197C198.707 22.9197 197.51 23.4524 195.801 24.5178C194.889 24.8236 194.433 25.2182 194.433 25.7016C193.293 26.1751 192.723 26.9051 192.723 27.8916C190.928 29.618 189.816 31.1569 189.389 32.5085L189.132 32.982H189.047L188.876 32.9228C188.99 32.5282 189.104 31.8574 189.218 30.9103H188.961C188.961 31.2951 188.135 32.3802 186.482 34.1658C186.097 34.955 185.185 36.5334 183.746 38.901C183.319 40.2229 182.977 40.9726 182.721 41.1502C182.607 41.1502 182.55 41.1107 182.55 41.0318C182.834 40.6668 183.205 39.7 183.661 38.1315C184.445 37.1351 185.071 35.8724 185.542 34.3433C186.169 33.416 186.482 32.7255 186.482 32.2717V32.2125H186.226L180.412 41.2094C179.529 43.2712 178.987 44.3169 178.788 44.3465L178.702 44.2281C179.087 43.4586 179.6 42.2156 180.241 40.4991C181.381 38.2499 181.951 36.8491 181.951 36.2966V35.7047C181.951 35.3792 182.521 34.59 183.661 33.3371L183.746 32.9228L183.575 32.8636C183.319 33.1004 182.977 33.6331 182.55 34.4617C181.752 35.1523 181.153 36.0993 180.754 37.3028L180.412 37.4804L180.327 37.362C180.897 36.2374 181.552 34.5604 182.293 32.3309C183.134 31.6009 183.761 30.4565 184.174 28.8979C185.485 27.5562 186.14 26.7078 186.14 26.3527H185.884C182.649 27.4181 180.825 27.9508 180.412 27.9508C179.757 28.0692 179.073 28.1284 178.36 28.1284H178.019C177.449 27.7634 177.164 27.4082 177.164 27.063C177.221 26.7177 177.249 26.4217 177.249 26.1751C177.249 26.0567 176.85 25.5043 176.052 24.5178L175.967 24.1627C177.05 23.7582 177.791 23.2649 178.189 22.6829V22.6237C178.189 21.9134 178.133 21.5583 178.019 21.5583C178.019 21.0552 179.044 20.1673 181.096 18.8947C182.664 17.632 183.803 16.5666 184.516 15.6985C187.024 13.4986 188.277 12.295 188.277 12.0879C188.277 11.7623 188.762 11.2494 189.731 10.5489C190.301 9.54271 190.985 8.91135 191.783 8.65485C192.78 7.24416 194.233 6.17874 196.143 5.45859C197.354 5.37967 198.465 5.08372 199.477 4.57074C200.218 4.57074 200.987 4.33398 201.785 3.86046L202.383 3.80127ZM185.542 22.091V22.2686H185.713C188.163 21.795 189.389 21.4794 189.389 21.3215C190.315 20.2956 191.141 18.9934 191.868 17.415C192.623 16.9809 193.136 16.2904 193.407 15.3433C193.863 14.8501 194.119 14.3963 194.176 13.982V13.5676H193.92C193.25 14.1201 192.823 14.3963 192.637 14.3963C192.196 14.3963 191.626 15.225 190.928 16.8823C189.631 17.8096 188.919 18.6382 188.79 19.3683C187.821 19.9404 187.109 20.5521 186.653 21.2031C186.026 21.6471 185.656 21.943 185.542 22.091Z" fill="#FF63A4"/>
<path d="M210.633 25.2281L210.719 25.3465C210.719 25.3958 210.291 25.5733 209.436 25.8792V25.9384L209.864 25.8792H210.633C213.027 25.8792 214.366 26.3527 214.651 27.2997V27.4773C214.651 27.6154 214.623 27.793 214.566 28.01C214.623 28.4441 214.651 28.8189 214.651 29.1346C214.651 30.1803 214.081 31.2852 212.941 32.4493C212.742 32.4887 212.628 32.5085 212.6 32.5085L212.514 32.3901C212.514 32.2717 212.6 32.1139 212.77 31.9166V31.8574H212.685C212.015 32.7452 211.36 33.4358 210.719 33.929C209.237 34.8662 207.698 35.3989 206.102 35.5271C205.988 35.5271 205.931 35.4877 205.931 35.4088C206.601 35.1819 207.655 34.6689 209.094 33.8698V33.8106C208.767 34.0079 208.482 34.1066 208.239 34.1066H208.069C207.955 34.1066 207.898 34.0671 207.898 33.9882C207.898 33.9586 208.069 33.8402 208.41 33.6331C207.328 34.0277 206.33 34.225 205.418 34.225H204.905C203.879 34.225 203.253 33.9487 203.025 33.3963C203.082 33.2286 203.196 33.0313 203.367 32.8044C203.181 32.7452 203.01 32.4887 202.854 32.0349V30.9103C202.854 30.131 203.31 29.1839 204.221 28.0692L204.478 27.9508H204.82C204.82 28.0396 204.791 28.1185 204.734 28.1876V28.2468H204.82C205.903 26.915 207.071 26.0863 208.325 25.7608C209.408 25.4056 210.177 25.2281 210.633 25.2281ZM204.563 28.3651V28.4835H204.649V28.3651H204.563ZM209.949 32.0349C209.949 32.0547 209.921 32.1336 209.864 32.2717C209.949 32.2717 210.035 32.1928 210.12 32.0349H209.949ZM209.436 32.686C209.436 32.8143 209.18 33.0905 208.667 33.5147H208.752C209.208 33.199 209.465 32.9425 209.522 32.7452V32.686H209.436Z" fill="#FF63A4"/>
<path d="M232.177 4.15641C234.585 4.15641 236.266 4.53128 237.221 5.28102C238.019 5.52765 238.418 5.96171 238.418 6.5832V6.64239C238.418 6.82983 238.076 7.89525 237.392 9.83866V10.3714L237.734 12.0879C237.734 12.8376 236.993 14.3963 235.511 16.7639C235.511 17.6221 235.141 18.9835 234.4 20.848C234.4 21.7161 233.773 22.8999 232.519 24.3994C232.362 24.6658 232.134 25.5339 231.835 27.0038C230.467 29.914 229.584 31.5713 229.185 31.9757H229.099C228.985 31.9757 228.928 31.9363 228.928 31.8574C229.726 30.5059 230.125 29.3615 230.125 28.4243H229.869C228.444 30.713 227.731 32.0152 227.731 32.3309C227.731 32.7353 226.449 33.6035 223.884 34.9352C222.93 35.5666 221.989 35.8823 221.063 35.8823C219.724 35.8823 218.384 35.2509 217.045 33.9882C216.717 32.8044 216.005 31.739 214.908 30.7919C214.053 30.3776 213.625 29.6279 213.625 28.5427C213.34 27.8818 213.198 27.0334 213.198 25.9975C213.198 25.82 213.283 25.1689 213.454 24.0443V22.9789C213.725 21.1242 214.096 20.1969 214.566 20.1969C215.421 19.8516 215.848 19.4176 215.848 18.8947C217.002 16.9217 218.085 15.6393 219.097 15.0474C219.097 14.8304 220.123 13.8044 222.174 11.9695C222.174 11.7919 223.029 10.9238 224.739 9.36514C225.637 7.74727 227.033 6.30698 228.928 5.04426C230.04 5.04426 231.123 4.74831 232.177 4.15641ZM221.918 25.2281V26.4711C221.918 26.5796 221.861 27.1123 221.747 28.0692V28.4835L221.149 29.3122V31.0879C221.291 31.2852 221.519 31.3838 221.833 31.3838H221.918C222.531 31.3049 223.101 30.9498 223.628 30.3184C224.084 28.8288 224.825 27.645 225.851 26.767C226.121 26.402 226.577 25.455 227.218 23.9259C227.774 23.1663 228.173 22.0219 228.415 20.4929C229.227 19.4274 230.054 18.1845 230.895 16.7639C231.222 16.7639 231.536 15.955 231.835 14.3371C232.291 13.2421 232.519 12.5318 232.519 12.2063V12.0287C232.519 11.6538 232.433 11.2198 232.262 10.7265C232.376 10.3714 232.433 10.1149 232.433 9.95704V9.77947C232.433 9.72028 232.319 9.64136 232.091 9.54271H231.578C230.325 9.80906 229.698 10.2037 229.698 10.7265C229.299 11.8215 228.529 13.4788 227.389 15.6985C227.389 17.4446 226.563 18.7665 224.91 19.6642C224.568 20.0588 224.198 20.7099 223.799 21.6175C222.545 23.038 221.918 24.2416 221.918 25.2281Z" fill="#FF63A4"/>
<path fill-rule="evenodd" clip-rule="evenodd" d="M130.329 13.286C120.795 13.1914 102.923 17.9423 96.6455 36.7682C89.2329 58.9987 94.5198 83.3067 102.968 94.7336C108.738 102.537 117.943 110.918 130.329 110.918C142.716 110.918 151.921 102.537 157.691 94.7336C166.139 83.3067 171.426 58.9987 164.013 36.7682C157.736 17.9423 139.864 13.1914 130.329 13.286Z" stroke="black" stroke-width="2"/>
<path fill-rule="evenodd" clip-rule="evenodd" d="M156.468 60.0518C155.972 54.9412 137.113 59.3188 139.014 63.7289C140.163 66.395 144.965 69.2008 149.29 68.684C153.481 68.1834 156.963 65.1622 156.468 60.0518Z" fill="black" stroke="black" stroke-width="2"/>
<path fill-rule="evenodd" clip-rule="evenodd" d="M105.336 60.0518C105.832 54.9412 124.691 59.3188 122.79 63.7289C121.641 66.395 116.839 69.2008 112.514 68.684C108.323 68.1834 104.841 65.1622 105.336 60.0518Z" fill="black" stroke="black" stroke-width="2"/>
<path d="M94.3134 71.9131H96.8698C101.288 71.9131 104.87 75.4948 104.87 79.9131V84.2302" stroke="black" stroke-width="2"/>
<path d="M166.967 71.9131H164.41C159.992 71.9131 156.41 75.4948 156.41 79.9131V84.2302" stroke="black" stroke-width="2"/>
<circle cx="124.829" cy="45" r="2" fill="black"/>
<circle cx="135.829" cy="45" r="2" fill="black"/>
<circle cx="146.829" cy="45" r="2" fill="black"/>
<circle cx="113.829" cy="45" r="2" fill="black"/>
<circle cx="125.829" cy="94" r="2" fill="black"/>
<circle cx="135.829" cy="94" r="2" fill="black"/>
<circle cx="145.829" cy="94" r="2" fill="black"/>
<circle cx="115.829" cy="94" r="2" fill="black"/>
<circle cx="124.829" cy="36" r="2" fill="black"/>
<circle cx="135.829" cy="36" r="2" fill="black"/>
<circle cx="146.829" cy="36" r="2" fill="black"/>
<circle cx="113.829" cy="36" r="2" fill="black"/>
<circle cx="125.829" cy="85" r="2" fill="black"/>
<circle cx="135.829" cy="85" r="2" fill="black"/>
<circle cx="145.829" cy="85" r="2" fill="black"/>
<circle cx="115.829" cy="85" r="2" fill="black"/>
<circle cx="125.829" cy="76" r="2" fill="black"/>
<circle cx="135.829" cy="76" r="2" fill="black"/>
</svg>
