<svg width="247" height="88" viewBox="0 0 247 88" fill="none" xmlns="http://www.w3.org/2000/svg">
<path fill-rule="evenodd" clip-rule="evenodd" d="M34 1.1333C25.5796 1.04986 9.7969 5.23629 4.25317 21.8255C-2.29307 41.4147 2.37594 62.8347 9.83672 72.9039C14.932 79.7806 23.0611 87.1654 34 87.1654C44.939 87.1654 53.068 79.7806 58.1633 72.9039C65.6241 62.8347 70.2931 41.4147 63.7469 21.8255C58.2032 5.23629 42.4204 1.04986 34 1.1333Z" stroke="#222222" stroke-width="1.5"/>
<path fill-rule="evenodd" clip-rule="evenodd" d="M12.0645 40.9817C12.0645 36.8316 27.4325 38.8816 26.2586 42.5779C25.5489 44.8125 21.939 47.4445 18.4518 47.3663C15.0737 47.2906 12.0645 45.1318 12.0645 40.9817Z" stroke="#222222" stroke-width="1.5"/>
<path fill-rule="evenodd" clip-rule="evenodd" d="M56.4839 40.9817C56.4839 36.8316 41.1158 38.8816 42.2898 42.5779C42.9995 44.8125 46.6094 47.4445 50.0965 47.3663C53.4747 47.2906 56.4839 45.1318 56.4839 40.9817Z" stroke="#222222" stroke-width="1.5"/>
<path d="M28.2661 52.3601L28.9538 51.566C29.56 50.8662 30.7097 51.2949 30.7097 52.2208V53.3551C30.7097 54.0967 29.9309 54.5803 29.2662 54.2514L28.5785 53.9111C27.9919 53.6209 27.8376 52.8548 28.2661 52.3601Z" stroke="#222222" stroke-width="1.5"/>
<path d="M40.2824 52.3601L39.5946 51.566C38.9885 50.8662 37.8388 51.2949 37.8388 52.2208V53.3551C37.8388 54.0967 38.6176 54.5803 39.2822 54.2514L39.97 53.9111C40.5566 53.6209 40.7109 52.8548 40.2824 52.3601Z" stroke="#222222" stroke-width="1.5"/>
<path d="M2.1936 52.7949H3.51618C7.93446 52.7949 11.5162 56.3766 11.5162 60.7949V63.6486M66.3549 52.7949H65.0323C60.614 52.7949 57.0323 56.3766 57.0323 60.7949V63.6486" stroke="#222222" stroke-width="1.5"/>
<path d="M29.0848 20.4972C28.7528 21.0232 29.1326 21.71 29.759 21.7161C30.3525 21.7219 30.742 21.106 30.4805 20.5753C30.2042 20.0148 29.4172 19.9707 29.0848 20.4972Z" stroke="#222222" stroke-width="1.5"/>
<path d="M18.9769 61.5996C18.6448 62.1256 19.0247 62.8124 19.651 62.8185C20.2445 62.8243 20.6341 62.2083 20.3726 61.6777C20.0963 61.1172 19.3092 61.0731 18.9769 61.5996Z" stroke="#222222" stroke-width="1.5"/>
<path d="M18.9769 20.3557C18.6448 20.8817 19.0247 21.5685 19.651 21.5746C20.2445 21.5804 20.6341 20.9645 20.3726 20.4338C20.0963 19.8733 19.3092 19.8292 18.9769 20.3557Z" stroke="#222222" stroke-width="1.5"/>
<path d="M29.0848 75.8509C28.7528 76.3769 29.1326 77.0637 29.759 77.0698C30.3525 77.0756 30.742 76.4596 30.4805 75.929C30.2042 75.3684 29.4172 75.3244 29.0848 75.8509Z" stroke="#222222" stroke-width="1.5"/>
<path d="M29.0848 68.2533C28.7528 68.7793 29.1326 69.4661 29.759 69.4722C30.3525 69.478 30.742 68.862 30.4805 68.3314C30.2042 67.7709 29.4172 67.7268 29.0848 68.2533Z" stroke="#222222" stroke-width="1.5"/>
<path d="M29.0848 61.7411C28.7528 62.2671 29.1326 62.9539 29.759 62.96C30.3525 62.9658 30.742 62.3498 30.4805 61.8192C30.2042 61.2587 29.4172 61.2146 29.0848 61.7411Z" stroke="#222222" stroke-width="1.5"/>
<path d="M29.0848 28.0948C28.7528 28.6208 29.1326 29.3076 29.759 29.3137C30.3525 29.3195 30.742 28.7035 30.4805 28.1729C30.2042 27.6123 29.4172 27.5683 29.0848 28.0948Z" stroke="#222222" stroke-width="1.5"/>
<path d="M18.9769 68.1118C18.6448 68.6378 19.0247 69.3246 19.651 69.3307C20.2445 69.3365 20.6341 68.7205 20.3726 68.1899C20.0963 67.6294 19.3092 67.5853 18.9769 68.1118Z" stroke="#222222" stroke-width="1.5"/>
<path d="M18.9769 27.9533C18.6448 28.4793 19.0247 29.1661 19.651 29.1722C20.2445 29.178 20.6341 28.562 20.3726 28.0314C20.0963 27.4708 19.3092 27.4268 18.9769 27.9533Z" stroke="#222222" stroke-width="1.5"/>
<path d="M39.4637 20.4972C39.7957 21.0232 39.4159 21.71 38.7895 21.7161C38.196 21.7219 37.8064 21.106 38.068 20.5753C38.3442 20.0148 39.1313 19.9707 39.4637 20.4972Z" stroke="#222222" stroke-width="1.5"/>
<path d="M49.5716 61.5996C49.9037 62.1256 49.5238 62.8124 48.8975 62.8185C48.304 62.8243 47.9144 62.2083 48.1759 61.6777C48.4522 61.1172 49.2392 61.0731 49.5716 61.5996Z" stroke="#222222" stroke-width="1.5"/>
<path d="M49.5716 20.3557C49.9037 20.8817 49.5238 21.5685 48.8975 21.5746C48.304 21.5804 47.9144 20.9645 48.1759 20.4338C48.4522 19.8733 49.2392 19.8292 49.5716 20.3557Z" stroke="#222222" stroke-width="1.5"/>
<path d="M39.4637 75.8509C39.7957 76.3769 39.4159 77.0637 38.7895 77.0698C38.196 77.0756 37.8064 76.4596 38.068 75.929C38.3442 75.3684 39.1313 75.3244 39.4637 75.8509Z" stroke="#222222" stroke-width="1.5"/>
<path d="M39.4637 68.2533C39.7957 68.7793 39.4159 69.4661 38.7895 69.4722C38.196 69.478 37.8064 68.862 38.068 68.3314C38.3442 67.7709 39.1313 67.7268 39.4637 68.2533Z" stroke="#222222" stroke-width="1.5"/>
<path d="M39.4637 61.7411C39.7957 62.2671 39.4159 62.9539 38.7895 62.96C38.196 62.9658 37.8064 62.3498 38.068 61.8192C38.3442 61.2587 39.1313 61.2146 39.4637 61.7411Z" stroke="#222222" stroke-width="1.5"/>
<path d="M39.4637 28.0948C39.7957 28.6208 39.4159 29.3076 38.7895 29.3137C38.196 29.3195 37.8064 28.7035 38.068 28.1729C38.3442 27.6123 39.1313 27.5683 39.4637 28.0948Z" stroke="#222222" stroke-width="1.5"/>
<path d="M49.5716 68.1118C49.9037 68.6378 49.5238 69.3246 48.8975 69.3307C48.304 69.3365 47.9144 68.7205 48.1759 68.1899C48.4522 67.6294 49.2392 67.5853 49.5716 68.1118Z" stroke="#222222" stroke-width="1.5"/>
<path d="M49.5716 27.9533C49.9037 28.4793 49.5238 29.1661 48.8975 29.1722C48.304 29.178 47.9144 28.562 48.1759 28.0314C48.4522 27.4708 49.2392 27.4268 49.5716 27.9533Z" stroke="#222222" stroke-width="1.5"/>
<path d="M98.3623 39.98C98.3623 39.9493 98.393 39.8561 98.4543 39.7004C98.5155 39.514 98.5768 39.3122 98.6381 39.0952C98.6994 38.8474 98.7454 38.6003 98.776 38.3538C98.8373 38.0753 98.8526 37.8294 98.822 37.6159C98.73 37.2516 98.6994 36.9001 98.73 36.5616C98.7607 36.1924 98.8066 35.8685 98.8679 35.5901C98.9599 35.2799 99.0365 35.0315 99.0978 34.8451C99.1897 34.6268 99.2356 34.5177 99.2356 34.5177C99.2356 33.843 99.2663 33.2898 99.3276 32.8581C99.3889 32.3957 99.4655 31.9633 99.5574 31.5611C99.68 31.1269 99.8179 30.6922 99.9711 30.2568C100.124 29.7908 100.278 29.2328 100.431 28.5827C100.584 27.4727 100.722 26.486 100.844 25.6225C100.967 24.759 101.074 23.9268 101.166 23.1258C101.258 22.3249 101.335 21.5246 101.396 20.7248C101.488 19.8932 101.549 18.9861 101.58 18.0036C102.101 16.3271 102.484 15.0394 102.729 14.1404C102.974 13.2415 103.143 12.5449 103.235 12.0506C103.357 11.5244 103.449 11.1068 103.51 10.7977C103.602 10.4568 103.74 10.022 103.924 9.49348C103.924 9.43215 103.878 9.32663 103.786 9.1769C103.725 8.99531 103.648 8.81432 103.556 8.63393C103.464 8.42288 103.372 8.24249 103.281 8.09277C103.219 7.94184 103.189 7.83571 103.189 7.77438C103.127 7.74612 102.852 7.66496 102.361 7.53089C101.871 7.36615 101.319 7.20382 100.707 7.0439C100.124 6.88278 99.5727 6.73578 99.0518 6.60292C98.5615 6.46885 98.2857 6.40302 98.2244 6.40542C96.8455 6.4596 95.819 6.56127 95.1448 6.71042C94.5013 6.8277 94.0723 7.01323 93.8578 7.26699C93.6739 7.48888 93.6433 7.79675 93.7659 8.1906C93.9191 8.55258 94.1029 9.02069 94.3174 9.59493C94.5319 10.1385 94.7158 10.8059 94.869 11.5973C95.0222 12.3579 95.0069 13.2325 94.8231 14.2211C94.1489 17.7742 93.5054 21.2188 92.8925 24.5549C92.3103 27.8591 91.6975 31.2872 91.054 34.8392L89.9968 36.0307C89.9968 36.2147 89.9508 36.3238 89.8589 36.3581C89.767 36.3617 89.6444 36.3512 89.4912 36.3266C89.3686 36.27 89.2154 36.2147 89.0315 36.1606C88.8783 36.1053 88.7404 36.0801 88.6178 36.0849C87.9131 36.1126 87.3308 36.0281 86.8712 35.8315C86.4422 35.603 85.8753 35.2573 85.1705 34.7943C84.9254 34.1293 84.7875 33.4294 84.7568 32.6946C84.7568 31.9279 84.7721 31.2373 84.8028 30.6228C84.8641 29.9764 84.8794 29.4544 84.8488 29.057C84.8488 28.6583 84.7109 28.4644 84.4351 28.4752L78.7355 28.6071C78.6742 28.6096 78.5823 28.7358 78.4597 28.986C78.3678 29.2043 78.3065 29.3907 78.2758 29.5452V29.8212C78.2758 29.9745 78.2605 30.1591 78.2299 30.375C78.2299 30.5897 78.2299 30.8197 78.2299 31.065V31.571C78.2299 32.951 78.429 34.1852 78.8274 35.2735C79.2564 36.3607 79.8386 37.3498 80.574 38.2409C81.3095 39.1013 82.1828 39.8797 83.194 40.576C84.2359 41.271 85.3544 41.9324 86.5494 42.5601C87.1929 42.6575 87.7598 42.7579 88.2501 42.8613C88.7711 42.9328 89.2767 42.9896 89.767 43.0317C90.2572 43.0738 90.7475 43.1159 91.2378 43.1579C91.7588 43.1681 92.3256 43.1612 92.9385 43.1371C93.7965 42.8887 94.5626 42.6593 95.2367 42.4488C95.9109 42.2383 96.4778 42.0167 96.9374 41.784C97.4277 41.5194 97.7954 41.2443 98.0406 40.9586C98.3164 40.6411 98.4696 40.2518 98.5002 39.7906L98.3623 39.98Z" fill="#222222"/>
<path d="M112.586 41.5372C111.698 41.3267 110.794 41.0556 109.874 40.7237C108.986 40.3906 108.143 40.0097 107.346 39.581C106.55 39.1217 105.86 38.5968 105.278 38.0063C104.726 37.384 104.359 36.7084 104.175 35.9796C104.052 35.5551 103.868 35.1637 103.623 34.8053C103.409 34.4151 103.255 34.0071 103.163 33.5814L103.209 33.4416C103.24 33.2257 103.577 32.9978 104.221 32.7578C104.864 32.5179 105.569 32.3062 106.335 32.1228C107.132 31.9381 107.898 31.8007 108.633 31.7105C109.399 31.5884 109.92 31.5526 110.196 31.6031C110.84 31.7004 111.284 31.9743 111.529 32.4247C111.774 32.8751 111.973 33.3579 112.127 33.8732C112.31 34.3873 112.54 34.869 112.816 35.3181C113.092 35.7673 113.582 36.0547 114.287 36.1803C114.655 36.2272 115.13 36.2699 115.712 36.3083C116.325 36.3456 116.8 36.3576 117.137 36.3444C117.351 36.1213 117.596 36.0196 117.872 36.0395C118.148 36.0286 118.408 36.0184 118.654 36.0088C118.929 35.9979 119.174 35.8963 119.389 35.7039C119.603 35.5114 119.787 35.0902 119.941 34.4402L119.986 34.2544C119.986 34.1931 119.971 34.0557 119.941 33.8422C119.941 33.6275 119.895 33.4913 119.803 33.4336C119.006 32.7903 118.316 32.112 117.734 31.3989C117.152 30.6551 116.6 29.9101 116.079 29.1639C115.559 28.387 115.038 27.6102 114.517 26.8333C113.996 26.0564 113.429 25.2814 112.816 24.5081C112.479 24.5214 112.218 24.4703 112.035 24.3548C111.851 24.2087 111.698 24.0461 111.575 23.8669C111.452 23.657 111.33 23.4472 111.207 23.2373C111.115 23.0263 111.008 22.8312 110.886 22.652C110.824 22.6237 110.732 22.52 110.61 22.3408C110.518 22.1604 110.411 21.9653 110.288 21.7554C110.165 21.5456 110.043 21.3357 109.92 21.1259C109.798 20.916 109.69 20.7669 109.598 20.6785C108.097 19.2962 107.193 17.875 106.887 16.4151C106.58 14.9551 106.595 13.3905 106.933 11.7213C107.024 11.319 107.178 10.8836 107.392 10.4152C107.607 9.91613 107.852 9.4465 108.128 9.00633C108.434 8.56495 108.771 8.15304 109.139 7.77059C109.507 7.38815 109.905 7.09649 110.334 6.89564C111.008 6.56249 111.774 6.28705 112.632 6.06934C113.521 5.81976 114.425 5.63091 115.344 5.50279C116.294 5.37347 117.229 5.30608 118.148 5.30063C119.067 5.29518 119.91 5.35407 120.676 5.4773C121.074 5.52298 121.503 5.64413 121.963 5.84073C122.453 6.03614 122.928 6.24748 123.388 6.47475C123.878 6.70082 124.368 6.92689 124.859 7.15296C125.349 7.37903 125.809 7.54497 126.238 7.65078C126.268 7.80291 126.498 7.97788 126.927 8.17569C127.356 8.3735 127.831 8.61551 128.352 8.90171C128.873 9.18791 129.379 9.50537 129.869 9.85411C130.359 10.2028 130.696 10.6036 130.88 11.0564C131.064 11.5398 131.324 12.0816 131.661 12.6817C132.029 13.2499 132.182 13.7959 132.121 14.3196C132.029 14.5992 131.677 14.8431 131.064 15.0512C130.451 15.2592 129.762 15.4243 128.996 15.5464C128.26 15.6673 127.525 15.7575 126.789 15.8171C126.084 15.8448 125.594 15.8334 125.318 15.7829C125.165 15.7276 124.935 15.6753 124.629 15.626C124.322 15.5767 124.123 15.4619 124.031 15.2815L122.56 12.3493C122.438 12.1394 122.162 11.9969 121.733 11.9218C121.335 11.8454 121.059 11.7949 120.906 11.7703C120.354 11.6693 119.787 11.5842 119.205 11.5151C118.654 11.4448 118.117 11.4505 117.596 11.5323C117.106 11.6129 116.677 11.7984 116.309 12.0889C115.942 12.3486 115.696 12.7723 115.574 13.3598C115.513 13.6382 115.467 13.8393 115.436 13.9632C115.436 14.0858 115.467 14.2073 115.528 14.3276C115.589 14.4172 115.681 14.5209 115.804 14.6387C115.957 14.7554 116.171 14.9463 116.447 15.2114C117.091 15.8915 117.627 16.5298 118.056 17.1262C118.516 17.7215 118.945 18.318 119.343 18.9157C119.741 19.4827 120.14 20.065 120.538 20.6627C120.967 21.2285 121.457 21.8379 122.009 22.4909C122.285 22.8788 122.515 23.2991 122.698 23.7518C122.913 24.2034 123.235 24.6354 123.664 25.0479C123.909 25.2836 124.2 25.5788 124.537 25.9336C124.874 26.2577 125.211 26.6124 125.548 26.9979C125.916 27.3821 126.253 27.7522 126.559 28.1081C126.866 28.4641 127.111 28.7918 127.295 29.0912C127.54 29.5109 127.724 29.9484 127.846 30.4036C127.969 30.8281 128.229 31.1859 128.628 31.4769C128.505 32.3404 128.444 33.2014 128.444 34.0601C128.444 34.9188 128.367 35.7498 128.214 36.5531C127.969 37.7588 127.494 38.7434 126.789 39.5071C126.084 40.2401 125.226 40.8258 124.215 41.2642C123.235 41.6708 122.116 41.9601 120.86 42.1321C119.634 42.3029 118.362 42.4142 117.045 42.466C117.014 42.4672 116.892 42.472 116.677 42.4804C116.493 42.457 116.279 42.4501 116.034 42.4597C115.788 42.4387 115.528 42.4336 115.252 42.4444C115.007 42.4234 114.823 42.3999 114.701 42.3741L114.103 42.2596C114.042 42.2313 113.919 42.2821 113.735 42.412C113.551 42.5419 113.444 42.6074 113.414 42.6086C113.168 42.6183 112.985 42.5028 112.862 42.2623C112.77 42.0206 112.678 41.7789 112.586 41.5372Z" fill="#222222"/>
<path d="M132.11 33.6861C131.987 33.0162 131.803 32.3948 131.558 31.8217C131.313 31.2487 131.022 30.6928 130.685 30.1541C130.562 30.0362 130.516 29.854 130.547 29.6075C130.577 29.3609 130.608 29.1297 130.639 28.9139C130.669 28.6673 130.654 28.4533 130.593 28.2717C130.562 28.0582 130.424 27.9103 130.179 27.8279L129.719 25.454L129.49 25.279V24.543C129.49 23.5923 129.597 22.6835 129.811 21.8164C130.026 20.9493 130.148 20.0245 130.179 19.0419C130.332 19.0052 130.44 18.909 130.501 18.7533C130.593 18.5963 130.654 18.4253 130.685 18.2401C130.715 18.0549 130.731 17.8702 130.731 17.6862C130.761 17.501 130.807 17.3306 130.869 17.1748C132.156 14.9776 133.596 12.9737 135.189 11.1631C136.783 9.35246 138.591 7.67143 140.613 6.11997C140.736 6.02315 140.996 5.90559 141.394 5.76727C141.823 5.62775 142.268 5.48762 142.727 5.3469C143.187 5.20617 143.585 5.06785 143.923 4.93194C144.29 4.79483 144.505 4.67907 144.566 4.58466L149.392 4.39503C149.576 4.66381 149.837 4.86824 150.174 5.00833C150.511 5.11775 150.863 5.21124 151.231 5.28879C151.629 5.36514 152.012 5.44209 152.38 5.51964C152.748 5.5972 153.069 5.72256 153.345 5.89572C154.51 6.7393 155.659 7.72149 156.793 8.84227C157.926 9.96306 159.014 11.1163 160.056 12.3021C160.056 12.3021 160.087 12.3468 160.148 12.4364C160.209 12.4954 160.271 12.5236 160.332 12.5212C160.761 12.8417 161.098 13.1811 161.343 13.5395C161.619 13.8966 161.833 14.2869 161.987 14.7102C162.17 15.1016 162.324 15.525 162.446 15.9801C162.569 16.4047 162.722 16.8586 162.906 17.3421C162.906 17.3421 162.921 17.3721 162.952 17.4323C162.982 17.4924 163.013 17.5372 163.044 17.5667C163.136 18.4831 163.304 19.3504 163.549 20.1688C163.795 20.9872 163.917 21.841 163.917 22.7304C163.917 25.0304 163.473 27.2711 162.584 29.4527C161.726 31.6331 160.378 33.5414 158.539 35.1777C158.509 35.1789 158.202 35.3902 157.62 35.8118C157.068 36.2321 156.41 36.7027 155.643 37.2234C154.908 37.743 154.157 38.2478 153.391 38.7379C152.656 39.1961 152.104 39.4785 151.736 39.5849C150.848 39.9878 150.005 40.3583 149.208 40.6963C148.442 41.0024 147.431 41.1801 146.175 41.2295C144.949 41.2776 143.662 41.0828 142.314 40.6451C140.996 40.1756 139.709 39.5668 138.453 38.8189C137.196 38.0709 136.017 37.2432 134.913 36.3359C133.81 35.4286 132.876 34.5453 132.11 33.6861ZM137.074 24.705C137.104 24.7652 137.196 24.8842 137.35 25.0622C137.503 25.2095 137.595 25.2979 137.625 25.3274C137.687 25.5703 137.825 25.8562 138.039 26.1851C138.254 26.514 138.376 26.7085 138.407 26.7687V28.8847C138.468 29.3116 138.637 29.6883 138.912 30.0148C139.188 30.3413 139.495 30.6359 139.832 30.8987C140.169 31.1614 140.521 31.4082 140.889 31.6391C141.257 31.8394 141.563 32.0573 141.808 32.293C141.931 32.4415 142.13 32.5717 142.406 32.6835C142.712 32.7635 143.019 32.8435 143.325 32.9234C143.662 32.9715 143.984 33.0202 144.29 33.0695C144.627 33.1176 144.903 33.1834 145.118 33.267C145.21 33.2634 145.47 33.2685 145.899 33.2823C146.328 33.2654 146.634 33.2534 146.818 33.2462C147.217 33.2305 147.829 33.1144 148.657 32.8979C149.515 32.6802 150.373 32.3705 151.231 31.9688C152.12 31.5659 152.916 31.0899 153.621 30.5409C154.326 29.9612 154.724 29.3169 154.816 28.6079C154.816 28.5159 154.831 28.3467 154.862 28.1001C154.893 27.8536 154.908 27.577 154.908 27.2703C154.939 26.9624 154.954 26.6705 154.954 26.3945C154.985 26.1173 155 25.9327 155 25.8407C155.184 25.7415 155.306 25.614 155.368 25.4583C155.46 25.3013 155.521 25.1456 155.552 24.991C155.613 24.8353 155.659 24.6955 155.689 24.5716C155.751 24.4159 155.858 24.3043 156.011 24.237C156.226 23.5539 156.348 23.0124 156.379 22.6125C156.41 22.182 156.425 21.7061 156.425 21.1847V19.8507C155.965 19.1634 155.567 18.5351 155.23 17.9657C154.893 17.3963 154.54 16.8888 154.173 16.4432C153.836 15.9658 153.422 15.5374 152.932 15.158C152.472 14.7467 151.859 14.3874 151.093 14.0802C150.909 13.9954 150.787 13.9236 150.725 13.8647C150.664 13.7751 150.618 13.6849 150.587 13.5941C150.557 13.5033 150.526 13.4125 150.495 13.3217C150.495 13.199 150.449 13.0628 150.358 12.9131C150.235 12.7953 150.066 12.7099 149.852 12.657C149.637 12.6041 149.392 12.5677 149.117 12.5479C148.871 12.4962 148.626 12.4445 148.381 12.3928C148.167 12.3092 147.998 12.1778 147.875 11.9986L144.014 12.1503C143.923 12.4299 143.769 12.62 143.555 12.7204C143.34 12.7901 143.187 12.9495 143.095 13.1984C143.034 13.2929 142.927 13.4964 142.773 13.8091C142.651 14.1206 142.544 14.3241 142.452 14.4197C142.023 14.3446 141.486 14.611 140.843 15.2189C140.199 15.7962 139.571 16.4956 138.958 17.317C138.376 18.1065 137.871 18.8931 137.442 19.6766C137.013 20.4294 136.798 20.9439 136.798 21.2199C136.798 21.7105 136.875 22.1522 137.028 22.5448C137.181 22.9068 137.258 23.2718 137.258 23.6398V24.2838C137.258 24.2838 137.227 24.3463 137.166 24.4714C137.104 24.5965 137.074 24.6744 137.074 24.705ZM153.805 5.87766C153.866 5.87525 153.897 5.95071 153.897 6.10405C153.897 6.25738 153.866 6.33525 153.805 6.33766C153.652 6.34368 153.575 6.27002 153.575 6.11669C153.575 5.96336 153.652 5.88368 153.805 5.87766Z" fill="#222222"/>
<path d="M163.221 38.7197C163.221 37.2477 163.39 35.7844 163.727 34.3298C164.094 32.8434 164.447 31.3115 164.784 29.7343C164.937 28.9616 165.106 28.0963 165.29 27.1384C165.473 26.1805 165.657 25.238 165.841 24.3108C166.025 23.3529 166.209 22.4563 166.393 21.6211C166.577 20.7552 166.745 20.0126 166.898 19.3932C167.021 18.9284 167.189 18.3084 167.404 17.5334C167.618 16.7583 167.864 15.9053 168.139 14.9745C168.415 14.0436 168.706 13.0662 169.013 12.0421C169.319 11.0181 169.626 10.0554 169.932 9.15403C170.238 8.22199 170.53 7.38255 170.805 6.63571C171.112 5.85701 171.372 5.24877 171.587 4.81101C173.946 4.84097 175.616 5.22002 176.597 5.94816L177.516 5.17604C177.7 5.04615 177.914 5.08373 178.16 5.28876C178.405 5.4938 178.65 5.7755 178.895 6.13387C179.171 6.46036 179.416 6.8034 179.63 7.16297C179.876 7.49067 180.075 7.71285 180.228 7.82949C180.289 8.07242 180.397 8.4822 180.55 9.05885C180.734 9.60363 180.917 10.1944 181.101 10.8312C181.316 11.4361 181.515 12.0263 181.699 12.6017C181.883 13.1465 182.005 13.525 182.067 13.7373C182.159 13.979 182.25 14.42 182.342 15.0604C182.465 15.6689 182.572 16.3394 182.664 17.0718C182.787 17.7723 182.894 18.4427 182.986 19.0831C183.108 19.6917 183.216 20.1168 183.308 20.3585C183.461 19.9231 183.583 19.2897 183.675 18.458C183.798 17.5946 183.921 16.6544 184.043 15.6376C184.166 14.6208 184.304 13.5574 184.457 12.4473C184.61 11.3067 184.794 10.2568 185.008 9.29767C185.253 8.33738 185.545 7.49794 185.882 6.77936C186.219 6.03012 186.632 5.5232 187.123 5.2586C187.429 5.09323 187.766 4.97265 188.134 4.89687C188.532 4.78922 188.931 4.6969 189.329 4.61991C189.758 4.51106 190.172 4.38747 190.57 4.24916C190.999 4.10963 191.382 3.92592 191.719 3.69801C191.995 3.6565 192.271 3.661 192.547 3.7115C192.853 3.76079 193.098 3.87383 193.282 4.0506C193.466 4.19671 193.558 4.39243 193.558 4.63777C193.558 4.8831 193.405 5.16512 193.098 5.48383C193.098 5.51449 193.098 5.66783 193.098 5.94383C193.129 6.21862 193.144 6.43269 193.144 6.58602C193.144 7.56735 192.991 8.41671 192.684 9.13408C192.378 9.82079 192.056 10.6154 191.719 11.518V11.978L191.26 14.2961C190.953 16.0561 190.57 17.8345 190.11 19.6312C189.681 21.3961 189.298 23.1745 188.961 24.9664C188.839 25.5845 188.685 26.0352 188.502 26.3184C188.348 26.6004 188.195 26.8518 188.042 27.0725C187.889 27.2932 187.72 27.5451 187.536 27.8283C187.383 28.1104 187.245 28.5605 187.123 29.1786L186.203 34.2747C186.02 35.0486 185.82 35.6391 185.606 36.0462C185.422 36.4214 185.177 36.7684 184.87 37.0871C184.595 37.3739 184.227 37.695 183.767 38.0504C183.308 38.3752 182.741 38.8574 182.067 39.4973C182.005 39.4997 181.883 39.5045 181.699 39.5117C181.546 39.5177 181.438 39.5373 181.377 39.5703C181.132 39.6413 180.933 39.4805 180.78 39.0878C180.657 38.694 180.534 38.1775 180.412 37.5383C180.32 36.8672 180.213 36.1048 180.09 35.2509C179.998 34.3959 179.845 33.5432 179.63 32.693C179.477 32.147 179.324 31.555 179.171 30.917C179.048 30.2778 178.91 29.6699 178.757 29.0933C178.604 28.5166 178.451 27.986 178.298 27.5013C178.175 26.9848 178.052 26.591 177.93 26.3198C177.685 24.8881 177.302 23.5385 176.781 22.2709C176.29 20.9715 175.754 19.7506 175.172 18.6081C175.111 18.7332 175.049 18.7203 174.988 18.5694C174.927 18.4184 174.85 18.2681 174.758 18.1184C174.697 17.9368 174.62 17.8018 174.528 17.7134C174.467 17.6238 174.406 17.6876 174.345 17.9047C174.13 18.7718 173.885 19.87 173.609 21.1996C173.364 22.4972 173.119 23.7948 172.874 25.0924C172.659 26.3582 172.475 27.4848 172.322 28.4721C172.2 29.4583 172.154 30.0581 172.184 30.2715C171.939 32.0292 171.633 33.5592 171.265 34.8617C170.928 36.1322 170.499 37.3604 169.978 38.5462C169.978 38.5769 169.932 38.7474 169.84 39.0576C169.748 39.3679 169.626 39.5567 169.472 39.6241C169.442 39.6253 169.334 39.6295 169.151 39.6367C168.967 39.6133 168.768 39.5904 168.553 39.5682C168.369 39.5448 168.185 39.5367 168.001 39.5439C167.818 39.5204 167.71 39.5246 167.68 39.5565C167.649 39.5884 167.557 39.684 167.404 39.8434C167.281 39.9708 167.143 40.1296 166.99 40.3196C166.837 40.479 166.684 40.623 166.531 40.7517C166.408 40.8791 166.331 40.9435 166.301 40.9447L163.451 40.1367C163.267 39.8986 163.191 39.6869 163.221 39.5017C163.221 39.3177 163.221 39.057 163.221 38.7197Z" fill="#222222"/>
<path d="M200.558 9.28474C200.588 9.28354 200.742 9.30818 201.017 9.35868C201.293 9.37851 201.431 9.38843 201.431 9.38843C201.799 9.46598 202.289 9.55405 202.902 9.65264C203.515 9.75122 204.02 9.83869 204.419 9.91504C204.817 9.99139 205.047 10.0284 205.108 10.026L205.706 10.7845L205.2 12.9203L201.385 32.9882C201.324 33.5733 201.216 34.0529 201.063 34.4269C200.941 34.7997 200.818 35.1265 200.696 35.4073C200.573 35.6881 200.45 35.9536 200.328 36.2038C200.236 36.4527 200.175 36.7465 200.144 37.085C200.144 37.269 200.144 37.4837 200.144 37.729C200.144 37.9743 200.159 38.2037 200.19 38.4172C200.221 38.6307 200.282 38.7816 200.374 38.87C200.466 38.9584 200.588 38.9535 200.742 38.8555C201.14 38.6559 201.584 38.5771 202.074 38.6191C202.565 38.6612 202.978 38.691 203.316 38.7084C203.561 38.6988 203.729 38.6461 203.821 38.5505C204.005 38.39 204.158 38.3073 204.281 38.3025C204.403 38.2976 204.511 38.3088 204.603 38.3358C204.694 38.3629 204.771 38.3905 204.832 38.4188C204.924 38.4458 205.016 38.4269 205.108 38.362L206.073 37.68L206.717 38.4367C206.809 38.5865 206.916 38.5209 207.039 38.2401C207.192 37.9274 207.33 37.4927 207.452 36.9358C207.606 36.3472 207.759 35.6818 207.912 34.9398C208.065 34.1978 208.218 33.4404 208.372 32.6677C208.525 31.8644 208.663 31.0923 208.785 30.3515C208.939 29.6095 209.092 28.9748 209.245 28.4474C209.276 28.2929 209.368 27.9366 209.521 27.3786C209.674 26.8206 209.827 26.2319 209.98 25.6125C210.164 24.9613 210.333 24.372 210.486 23.8447C210.639 23.3173 210.731 22.9917 210.762 22.8678C210.976 21.9087 211.191 21.0263 211.405 20.2205C211.62 19.3841 211.804 18.5949 211.957 17.8529C212.141 17.079 212.294 16.3216 212.416 15.5808C212.539 14.84 212.631 14.0544 212.692 13.224C212.692 13.0706 212.754 12.8076 212.876 12.4347C212.999 12.0313 213.075 11.7523 213.106 11.5977C212.983 11.5412 212.723 11.4288 212.325 11.2604C211.926 11.0921 211.696 10.9631 211.635 10.8735L211.589 10.6913C211.62 10.2914 212.049 10.0293 212.876 9.90475C213.734 9.74837 214.699 9.64911 215.772 9.60697C216.875 9.53296 217.932 9.46076 218.943 9.39036C219.955 9.31996 220.644 9.13954 221.012 8.84909C220.981 8.8503 220.859 8.83978 220.644 8.81754C220.46 8.76343 220.246 8.72586 220.001 8.70482C219.786 8.65192 219.587 8.61374 219.403 8.5903C219.219 8.56686 219.127 8.55514 219.127 8.55514C218.79 8.35371 218.56 8.20941 218.438 8.12223C218.315 8.03504 218.223 7.94665 218.162 7.85706C218.101 7.7368 218.039 7.57054 217.978 7.35828C217.948 7.14482 217.871 6.79517 217.748 6.30931C217.044 6.06101 216.446 5.88515 215.956 5.78175C215.496 5.64647 215.052 5.5566 214.623 5.51212C214.224 5.46644 213.795 5.45263 213.336 5.47068C212.876 5.45808 212.294 5.45029 211.589 5.44731C210.21 5.50149 208.954 5.48952 207.82 5.4114C206.717 5.30141 205.706 5.27981 204.786 5.34659C204.174 5.43201 203.53 5.51862 202.856 5.60644C202.212 5.69306 201.477 5.81396 200.65 5.96913C200.404 6.00943 200.267 6.09151 200.236 6.21538C200.205 6.33925 200.205 6.47725 200.236 6.62938C200.297 6.74964 200.358 6.8699 200.42 6.99016C200.512 7.10921 200.558 7.18407 200.558 7.21474L200.42 8.04816L200.558 9.28474Z" fill="#222222"/>
<path d="M217.931 31.3721C217.809 30.7943 217.548 30.2832 217.15 29.8388C216.782 29.3933 216.46 28.9306 216.184 28.4508C216.093 28.3317 216.047 28.1802 216.047 27.9962C216.077 27.7803 216.093 27.5804 216.093 27.3964C216.123 27.1805 216.123 26.9812 216.093 26.7984C216.062 26.6156 215.939 26.4977 215.725 26.4448L215.311 24.3911L215.081 24.2621V23.6181C215.081 22.7901 215.189 22.0039 215.403 21.2595C215.587 20.4856 215.694 19.6687 215.725 18.8088C215.97 18.7379 216.108 18.5178 216.139 18.1486C216.169 17.7794 216.215 17.4709 216.276 17.2231C217.41 15.2773 218.774 13.491 220.367 11.8644C221.991 10.2059 223.692 8.71312 225.469 7.38596C225.592 7.28914 225.837 7.18751 226.205 7.08106C226.572 6.97461 226.956 6.86757 227.354 6.75991C227.783 6.62039 228.151 6.49861 228.457 6.39457C228.794 6.25866 228.978 6.1441 229.009 6.0509L233.329 5.88114C233.482 6.12045 233.712 6.29542 234.019 6.40605C234.325 6.51668 234.647 6.59604 234.984 6.64413C235.321 6.69221 235.643 6.75624 235.949 6.8362C236.286 6.88429 236.577 6.99552 236.823 7.16989C237.834 7.89682 238.845 8.74642 239.856 9.71869C240.898 10.6898 241.879 11.6939 242.798 12.7311C242.798 12.7311 242.813 12.7765 242.844 12.8673C242.905 12.9262 242.966 12.9545 243.028 12.9521C243.825 13.5034 244.422 14.1546 244.82 14.9057C245.249 15.6555 245.632 16.4377 245.97 17.2525C245.97 17.2525 245.97 17.2832 245.97 17.3445C246 17.374 246.031 17.4034 246.061 17.4329C246.153 18.2266 246.307 18.9873 246.521 19.7148C246.766 20.4105 246.889 21.1571 246.889 21.9544C246.889 23.9477 246.383 25.8842 245.372 27.764C244.391 29.6118 243.089 31.2423 241.465 32.6555C241.434 32.6567 241.159 32.8362 240.638 33.194C240.117 33.5518 239.519 33.9586 238.845 34.4144C238.202 34.869 237.543 35.3089 236.869 35.7341C236.225 36.1274 235.735 36.3766 235.398 36.4819C234.601 36.8505 233.85 37.1713 233.145 37.4444C232.441 37.7174 231.537 37.8756 230.434 37.9189C229.33 37.9623 228.181 37.7927 226.986 37.4104C225.822 36.9961 224.673 36.4739 223.539 35.8438C222.436 35.1818 221.394 34.4561 220.413 33.6666C219.433 32.8771 218.605 32.1123 217.931 31.3721ZM222.344 23.5628C222.374 23.6229 222.451 23.7272 222.574 23.8757C222.696 23.9936 222.773 24.0672 222.803 24.0967C222.865 24.309 222.987 24.5648 223.171 24.8643C223.355 25.133 223.462 25.2975 223.493 25.3576V27.1516C223.554 27.5479 223.692 27.8491 223.907 28.0554C224.121 28.2616 224.366 28.436 224.642 28.5785C224.948 28.7198 225.255 28.8457 225.561 28.9563C225.868 29.067 226.128 29.2254 226.343 29.4316C226.465 29.5802 226.649 29.6956 226.894 29.778C227.139 29.8297 227.4 29.8961 227.676 29.9773C227.982 30.0266 228.273 30.0765 228.549 30.127C228.855 30.1456 229.116 30.1967 229.33 30.2803C229.361 30.2791 229.438 30.276 229.56 30.2712C229.683 30.2664 229.821 30.2763 229.974 30.301C230.127 30.295 230.28 30.2889 230.434 30.2829C230.587 30.2769 230.709 30.2721 230.801 30.2685C231.138 30.2552 231.69 30.1569 232.456 29.9735C233.253 29.7582 234.049 29.4968 234.846 29.1895C235.673 28.8504 236.409 28.4841 237.052 28.0909C237.696 27.6976 238.064 27.2998 238.156 26.8975C238.156 26.8362 238.156 26.6982 238.156 26.4835C238.186 26.2676 238.202 26.037 238.202 25.7917C238.232 25.5145 238.247 25.2686 238.247 25.0539C238.278 24.8074 238.293 24.6381 238.293 24.5461C238.6 24.3807 238.753 24.1447 238.753 23.838C238.784 23.4995 238.937 23.2635 239.213 23.13C239.397 22.5401 239.504 22.0605 239.534 21.6913C239.565 21.3221 239.58 20.9075 239.58 20.4475V19.2975C239.151 18.7011 238.784 18.1635 238.477 17.6849C238.202 17.1744 237.895 16.7264 237.558 16.341C237.252 15.9237 236.884 15.5548 236.455 15.2343C236.026 14.8832 235.474 14.5675 234.8 14.2873C234.616 14.2026 234.494 14.1307 234.432 14.0718C234.402 14.0117 234.371 13.9515 234.34 13.8914C234.34 13.7994 234.325 13.7233 234.295 13.6632C234.295 13.5712 234.249 13.4504 234.157 13.3006C234.065 13.1816 233.911 13.1109 233.697 13.0887C233.513 13.0346 233.299 12.997 233.053 12.976C232.839 12.9231 232.624 12.8702 232.41 12.8173C232.226 12.7325 232.073 12.6158 231.95 12.4673L228.503 12.6028C228.442 12.8505 228.304 13.0093 228.089 13.079C227.905 13.1476 227.768 13.3063 227.676 13.5553C227.614 13.619 227.522 13.7913 227.4 14.0721C227.277 14.3529 227.185 14.5252 227.124 14.5889C226.726 14.5126 226.235 14.7312 225.653 15.2447C225.102 15.7571 224.55 16.3614 223.998 17.0577C223.478 17.7529 223.018 18.4456 222.62 19.1359C222.252 19.7944 222.068 20.2463 222.068 20.4916C222.068 20.9209 222.145 21.3013 222.298 21.6326C222.451 21.9639 222.528 22.2982 222.528 22.6355V23.1875C222.528 23.1875 222.497 23.2501 222.436 23.3752C222.374 23.4696 222.344 23.5321 222.344 23.5628ZM237.236 7.15363C237.298 7.15123 237.328 7.22669 237.328 7.38002C237.328 7.50269 237.298 7.56523 237.236 7.56763C237.083 7.57365 237.006 7.51533 237.006 7.39266C237.006 7.23933 237.083 7.15965 237.236 7.15363Z" fill="#222222"/>
<path d="M81.6435 85.7568C81.7048 85.8157 81.8427 85.8716 82.0572 85.9245C82.3024 86.0069 82.4403 86.0475 82.4709 86.0463C82.5015 86.0451 82.6394 85.9016 82.8846 85.616C83.1297 85.361 83.3902 85.1055 83.666 84.8493C83.9418 84.5625 84.1869 84.3382 84.4014 84.1764C84.6466 84.0134 84.7998 84.0381 84.8611 84.2503L84.907 85.0765L85.5965 84.0374C85.8416 83.4451 86.0868 82.8222 86.3319 82.1686C86.5771 81.4843 86.8069 80.8466 87.0214 80.2555C87.2665 79.6632 87.4657 79.1493 87.6189 78.714C87.8028 78.2774 87.9407 78.0113 88.0326 77.9157L88.9979 76.5438L92.0315 66.0746L92.6291 65.3611L98.0529 64.826C98.2367 64.6655 98.4666 64.5491 98.7423 64.4769C99.0488 64.3729 99.3399 64.3001 99.6157 64.2586C99.8915 64.1865 100.121 64.1161 100.305 64.0475C100.52 63.9471 100.642 63.8196 100.673 63.6651C100.305 63.5875 100.014 63.4456 99.7995 63.2394C99.6157 63.032 99.4318 62.8245 99.248 62.6171C99.0641 62.4096 98.8649 62.2335 98.6504 62.0886C98.4666 61.9118 98.2061 61.8147 97.869 61.7973C97.5319 61.7798 97.1029 61.766 96.582 61.7558C96.0917 61.7444 95.6321 61.7165 95.2031 61.672C94.7741 61.6275 94.4064 61.5653 94.0999 61.4853C93.8241 61.4042 93.7169 61.2857 93.7782 61.13C93.962 60.8161 94.1919 60.3164 94.4676 59.6309C94.7741 58.9135 95.0652 58.1661 95.341 57.3886C95.6168 56.6111 95.8619 55.8655 96.0764 55.1517C96.3215 54.4061 96.4901 53.8321 96.582 53.4298C96.6127 53.2753 96.582 53.1538 96.4901 53.0654C96.4288 52.9758 96.3369 52.9028 96.2143 52.8463C96.1224 52.7886 96.0304 52.7308 95.9385 52.6731C95.8466 52.6154 95.8006 52.5252 95.8006 52.4025V52.2185C96.1683 52.2347 96.6433 52.2008 97.2255 52.1165C97.8077 52.0017 98.344 51.9346 98.8343 51.9153C99.4471 51.8913 99.8915 51.7665 100.167 51.541C100.474 51.2836 100.658 51.031 100.719 50.7833L107.476 50.1958C107.659 49.9126 107.92 49.7184 108.257 49.6131C108.625 49.5067 108.977 49.4162 109.314 49.3416C109.682 49.2351 110.004 49.0998 110.279 48.9356C110.555 48.7715 110.724 48.4889 110.785 48.0878L110.371 48.104C110.065 48.1161 109.85 47.9865 109.728 47.7153C109.636 47.5656 109.544 47.3699 109.452 47.1282C109.391 46.8546 109.36 46.6104 109.36 46.3958C109.36 46.1811 109.36 45.9971 109.36 45.8438C109.391 45.6892 109.406 45.612 109.406 45.612C108.487 45.4948 107.767 45.4617 107.246 45.5128C106.725 45.564 106.112 45.6034 105.407 45.6311C104.243 45.6768 102.91 45.7292 101.408 45.7882C99.9068 45.8472 98.3593 45.9233 96.7659 46.0166C95.1724 46.1099 93.6096 46.2326 92.0775 46.3848C90.576 46.5358 89.243 46.7108 88.0786 46.9099C87.9254 46.9773 87.8181 47.1042 87.7568 47.2906C87.7262 47.4758 87.7109 47.6757 87.7109 47.8904C87.7109 48.0744 87.6955 48.2896 87.6649 48.5362C87.6649 48.7508 87.6342 48.936 87.573 49.0918C86.3779 49.3534 85.5965 49.6141 85.2288 49.8739C84.8917 50.1018 84.7538 50.2606 84.8151 50.3501L88.0326 50.2237C88.0633 50.4679 88.002 50.6543 87.8488 50.783C87.6955 50.9116 87.5117 51.0109 87.2972 51.0806C87.1133 51.1185 86.9295 51.1564 86.7456 51.1943C86.5924 51.231 86.5158 51.2953 86.5158 51.3873C86.5158 51.6633 86.669 51.8566 86.9754 51.9673C87.3125 52.046 87.6649 52.0935 88.0326 52.1097C88.431 52.1247 88.7834 52.1109 89.0898 52.0682C89.4269 52.0243 89.6107 52.0017 89.6414 52.0005L89.9631 52.3099C89.9631 52.3099 89.8559 52.6208 89.6414 53.2425C89.4575 53.8631 89.2277 54.5621 88.9519 55.3396C88.7068 56.1159 88.4616 56.8769 88.2165 57.6225C87.9713 58.3375 87.8028 58.8194 87.7109 59.0684C87.6802 59.1616 87.6189 59.302 87.527 59.4896C87.4351 59.6465 87.3431 59.8188 87.2512 60.0064C87.1593 60.194 87.0674 60.3817 86.9754 60.5693C86.9141 60.725 86.8682 60.8495 86.8375 60.9427C86.7762 61.0371 86.669 61.1946 86.5158 61.4153C86.3626 61.636 86.2706 61.747 86.24 61.7482L83.7579 61.8457C83.7579 62.091 83.6353 62.2492 83.3902 62.3201C83.1757 62.3592 82.9459 62.3836 82.7007 62.3932C82.3943 62.4053 82.1185 62.4314 81.8734 62.4717C81.6589 62.5108 81.521 62.6236 81.4597 62.81L82.8846 63.398C82.762 63.6788 82.6854 64.0498 82.6548 64.511C82.6548 64.9404 82.6854 65.1538 82.7467 65.1514C83.0225 65.2632 83.2983 65.3291 83.574 65.3489C83.8498 65.3687 84.1103 65.3892 84.3554 65.4102C84.6006 65.4312 84.7998 65.4694 84.953 65.5247C85.1062 65.58 85.2135 65.6832 85.2747 65.8341C85.2135 65.9898 85.0756 66.4552 84.8611 67.2303C84.6466 68.0054 84.4167 68.8425 84.1716 69.7414C83.9264 70.6404 83.6813 71.4627 83.4362 72.2083C83.2217 72.9528 83.0991 73.3562 83.0684 73.4188C82.8539 73.8565 82.7467 74.2747 82.7467 74.6734C82.7467 75.0414 82.7467 75.3174 82.7467 75.5014C82.7467 75.6854 82.6854 76.0865 82.5628 76.7046C82.4403 77.2921 82.3024 77.9722 82.1491 78.7449C81.9959 79.5176 81.8274 80.3215 81.6435 81.1568C81.4903 81.9908 81.3678 82.7623 81.2758 83.4712C81.2145 84.1483 81.1992 84.7009 81.2299 85.129C81.2605 85.5878 81.3984 85.7971 81.6435 85.7568Z" fill="#222222"/>
<path d="M96.1813 82.3336C96.2119 82.5777 96.3192 82.6808 96.503 82.6429C96.6562 82.5756 96.8094 82.5389 96.9627 82.5329C96.9933 82.5317 97.0393 82.5605 97.1005 82.6195C97.1925 82.9532 97.3763 83.1913 97.6521 83.3338C97.9279 83.4456 98.1884 83.3587 98.4335 83.0731C98.5561 83.0683 98.6327 83.1879 98.6633 83.4321C98.7246 83.675 98.7859 83.7799 98.8472 83.7468L101.008 82.8799C101.222 82.5955 101.36 82.1608 101.421 81.5757C101.483 80.9906 101.651 80.2633 101.927 79.3938C102.019 79.0836 102.126 78.8493 102.249 78.6912C102.371 78.5024 102.494 78.3596 102.616 78.2627C102.77 78.1341 102.892 78.0066 102.984 77.8803C103.107 77.7528 103.199 77.5959 103.26 77.4095C103.719 75.0914 104.087 72.6389 104.363 70.0521C104.669 67.4334 105.006 64.9668 105.374 62.6524C105.619 61.2627 105.941 59.7321 106.339 58.0605C106.738 56.3888 107.075 54.7196 107.351 53.0527C107.596 52.7671 107.672 52.5647 107.58 52.4457C107.489 52.296 107.32 52.1799 107.075 52.0976C106.83 52.0152 106.554 51.9494 106.247 51.9001C105.941 51.8201 105.696 51.7071 105.512 51.561L105.834 48.1903C105.864 47.9438 105.818 47.8229 105.696 47.8277C105.573 47.8019 105.42 47.8386 105.236 47.9378C105.052 48.0064 104.869 48.1056 104.685 48.2355C104.531 48.3335 104.424 48.3837 104.363 48.3861C103.873 48.4667 103.582 48.5855 103.49 48.7424C103.398 48.8994 103.275 49.1955 103.122 49.6309C102.57 51.2165 102.049 52.8623 101.559 54.5683C101.069 56.2435 100.609 57.9176 100.18 59.5905C99.7512 61.2633 99.3222 62.9055 98.8932 64.517C98.4948 66.0967 98.0658 67.6009 97.6062 69.0296C97.5449 69.2467 97.4836 69.5097 97.4223 69.8188C97.3917 70.1267 97.361 70.4499 97.3304 70.7884C97.3304 71.0951 97.3457 71.4012 97.3763 71.7066C97.407 72.0121 97.4529 72.2709 97.5142 72.4832L95.9514 80.7786C95.9821 80.8387 95.9974 80.9915 95.9974 81.2368C95.9668 81.4833 95.9514 81.6373 95.9514 81.6986L96.1813 82.3336Z" fill="#222222"/>
<path d="M111.432 79.3884C111.064 79.0655 110.666 78.6978 110.237 78.2853C109.839 77.8716 109.44 77.4273 109.042 76.9523C108.674 76.4761 108.337 75.9833 108.031 75.474C107.724 74.9647 107.495 74.4524 107.341 73.9371C107.311 73.877 107.28 73.7402 107.249 73.5267C107.249 73.312 107.234 73.098 107.203 72.8845C107.173 72.6404 107.111 72.4281 107.02 72.2477C106.928 72.0367 106.805 71.9188 106.652 71.8942V70.1002C106.437 69.9859 106.284 69.7926 106.192 69.5202C106.192 68.0482 106.284 66.8486 106.468 65.9214C106.682 64.9623 106.943 64.1547 107.249 63.4987C107.556 62.8427 107.862 62.2786 108.169 61.8066C108.475 61.3345 108.751 60.8177 108.996 60.2561C108.996 60.4094 109.103 60.3132 109.318 59.9674C109.532 59.6217 109.777 59.2134 110.053 58.7425C110.36 58.2705 110.651 57.8297 110.927 57.4202C111.202 57.0107 111.402 56.8036 111.524 56.7988C111.555 56.7975 111.677 56.7161 111.892 56.5543C112.137 56.3607 112.382 56.1517 112.627 55.9274C112.903 55.7019 113.148 55.4929 113.363 55.3005C113.577 55.0774 113.715 54.9493 113.776 54.9163C113.838 54.8525 113.96 54.7097 114.144 54.4878C114.359 54.2647 114.496 54.1213 114.558 54.0576C114.65 53.9619 114.757 53.8504 114.879 53.7229C115.033 53.5942 115.186 53.4655 115.339 53.3369C115.492 53.2082 115.615 53.096 115.707 53.0004C115.829 52.9036 115.906 52.8393 115.937 52.8074C116.212 52.6432 116.58 52.5368 117.04 52.488C117.53 52.4074 117.944 52.2839 118.281 52.1173C118.312 52.1161 118.373 52.0523 118.465 51.9261C118.557 51.7998 118.633 51.7354 118.695 51.733C118.756 51.6999 118.94 51.6774 119.246 51.6653C119.675 51.6485 120.135 51.6151 120.625 51.5652C121.115 51.5152 121.59 51.3739 122.05 51.1412C122.448 51.1255 122.847 51.1405 123.245 51.1862C123.643 51.2319 123.827 51.424 123.797 51.7626L127.566 51.4305C127.566 51.4918 127.658 51.5495 127.841 51.6036C128.056 51.6565 128.286 51.7088 128.531 51.7605C128.807 51.811 129.067 51.8775 129.312 51.9598C129.557 52.0115 129.726 52.0663 129.818 52.124C130.094 52.3278 130.308 52.6107 130.461 52.9727C130.645 53.3028 130.799 53.6801 130.921 54.1046C131.044 54.4985 131.12 54.9095 131.151 55.3376C131.212 55.7645 131.243 56.162 131.243 56.53C131.243 56.5607 131.212 56.6539 131.151 56.8096C131.09 56.9347 131.013 57.0757 130.921 57.2326C130.829 57.3896 130.753 57.5306 130.691 57.6557C130.63 57.7807 130.599 57.8433 130.599 57.8433C130.599 57.9046 130.63 57.9341 130.691 57.9317C130.753 57.9293 130.814 57.9269 130.875 57.9244C130.967 57.8902 131.044 57.8718 131.105 57.8694C131.166 57.867 131.197 57.8965 131.197 57.9578C131.197 58.5711 131.074 59.174 130.829 59.7663C130.615 60.3573 130.538 61.0044 130.599 61.7073C130.446 61.8666 130.339 62.0242 130.278 62.1799C130.247 62.3038 130.201 62.4589 130.14 62.6453C130.109 62.7999 130.032 62.9716 129.91 63.1604C129.787 63.3492 129.588 63.5563 129.312 63.7818C128.822 64.1998 128.286 64.6195 127.704 65.0411C127.152 65.4614 126.861 65.8255 126.83 66.1334C126.309 65.9698 125.911 65.7862 125.635 65.5823C125.359 65.3478 125.099 65.0974 124.854 64.831C124.639 64.5328 124.394 64.2204 124.118 63.8939C123.873 63.5356 123.505 63.1513 123.015 62.7413C122.77 62.5362 122.739 62.2614 122.923 61.9169C123.138 61.5404 123.414 61.1463 123.751 60.7344C124.118 60.2906 124.471 59.8627 124.808 59.4508C125.145 59.0083 125.313 58.6183 125.313 58.281C125.313 57.7903 125.16 57.3057 124.854 56.827C124.547 56.3484 124.118 56.1199 123.567 56.1416C123.505 56.144 123.337 56.1813 123.061 56.2535C122.785 56.3256 122.617 56.3629 122.556 56.3653L120.809 56.4339C120.748 56.4364 120.656 56.4706 120.533 56.5368C120.411 56.6029 120.319 56.6525 120.257 56.6856C120.227 56.6868 120.181 56.7346 120.119 56.829C120.089 56.8916 120.073 56.9228 120.073 56.9228C119.951 56.9277 119.706 56.968 119.338 57.0437C119.001 57.1183 118.786 57.1574 118.695 57.161C118.695 57.2224 118.618 57.4247 118.465 57.7681C118.312 58.1114 118.143 58.486 117.959 58.8919C117.775 59.2671 117.607 59.6111 117.454 59.9238C117.3 60.2365 117.224 60.3928 117.224 60.3928C117.07 60.3988 116.887 60.4827 116.672 60.6445C116.458 60.7756 116.304 60.8429 116.212 60.8465C115.998 60.855 115.753 61.0333 115.477 61.3814C115.201 61.6989 114.941 62.0772 114.696 62.5161C114.45 62.9244 114.221 63.3321 114.006 63.7392C113.822 64.1451 113.684 64.4419 113.592 64.6295C113.439 64.9728 113.24 65.2567 112.995 65.481C112.75 65.7053 112.627 66.0321 112.627 66.4614C112.627 66.5841 112.658 66.8742 112.719 67.3318C112.78 67.7894 112.857 68.277 112.949 68.7948C113.072 69.2806 113.194 69.7205 113.317 70.1143C113.47 70.4763 113.623 70.6389 113.776 70.6023C113.776 70.6943 113.761 70.8482 113.73 71.0641C113.73 71.2787 113.73 71.5087 113.73 71.7541C113.73 71.9994 113.73 72.2294 113.73 72.4441C113.761 72.6575 113.776 72.7949 113.776 72.8563C113.776 72.9176 113.822 73.0538 113.914 73.2648C114.037 73.444 114.129 73.5784 114.19 73.668C114.19 73.6987 114.236 73.7275 114.328 73.7546C114.45 73.7804 114.527 73.8081 114.558 73.8376C114.588 73.9284 114.588 73.9897 114.558 74.0216L116.488 74.9577V75.1877C116.887 75.1721 117.254 75.2343 117.591 75.3744C117.928 75.4838 118.25 75.6245 118.557 75.7964C118.894 75.9365 119.231 76.0613 119.568 76.1707C119.936 76.2789 120.349 76.2933 120.809 76.214C120.901 76.3637 121.039 76.4963 121.223 76.6117C121.406 76.6965 121.606 76.7653 121.82 76.8182C122.035 76.8711 122.234 76.9093 122.418 76.9327C122.602 76.9562 122.724 76.9667 122.785 76.9643C122.908 76.6528 123.076 76.4162 123.291 76.2544C123.536 76.0608 123.766 75.8831 123.98 75.7213C124.195 75.5596 124.379 75.3837 124.532 75.1937C124.685 74.973 124.762 74.6633 124.762 74.2646C124.762 74.0193 124.685 73.8383 124.532 73.7217C124.379 73.5744 124.195 73.4589 123.98 73.3753C123.797 73.2906 123.582 73.2223 123.337 73.1706C123.122 73.0871 122.939 72.9869 122.785 72.8703L116.902 73.1015C116.228 72.7906 115.829 72.5763 115.707 72.4584C115.584 72.3406 115.584 72.2639 115.707 72.2284C115.86 72.1611 116.044 72.1078 116.258 72.0687C116.504 72.0284 116.626 71.9316 116.626 71.7783C116.626 71.7476 116.55 71.72 116.396 71.6953C116.274 71.6695 116.136 71.6442 115.983 71.6196C115.829 71.5643 115.676 71.5089 115.523 71.4536C115.4 71.3971 115.339 71.3075 115.339 71.1849V69.5749C115.492 69.5075 115.646 69.4095 115.799 69.2808C115.952 69.1521 116.059 69.0099 116.121 68.8542L120.809 68.6699L121.177 68.5175L124.532 68.3857C124.961 67.8475 125.436 67.5375 125.957 67.4557C126.478 67.3432 127.045 67.2749 127.658 67.2509C128.393 67.222 128.883 67.218 129.128 67.2391C129.404 67.2589 129.557 67.3449 129.588 67.497C129.649 67.6173 129.665 67.8313 129.634 68.1392C129.603 68.4471 129.665 68.874 129.818 69.42C129.818 69.4507 129.833 69.4807 129.864 69.5102C129.925 69.5384 129.971 69.5673 130.002 69.5968C130.094 70.0225 130.17 70.4028 130.232 70.7377C130.293 71.0727 130.339 71.3928 130.37 71.6983C130.4 72.0038 130.416 72.3098 130.416 72.6165C130.416 72.8925 130.416 73.2145 130.416 73.5825C130.416 74.2878 130.354 74.9956 130.232 75.7057C130.14 76.384 130.063 77.1077 130.002 77.8768C129.849 77.9441 129.772 78.0545 129.772 78.2078C129.772 78.3611 129.726 78.5163 129.634 78.6732C129.573 78.7676 129.466 78.9098 129.312 79.0998C129.19 79.2887 129.037 79.494 128.853 79.7159C128.669 79.9378 128.5 80.1591 128.347 80.3798C128.194 80.5698 128.102 80.6961 128.071 80.7586C128.01 80.761 127.933 80.7947 127.841 80.8596C127.78 80.8927 127.719 80.9258 127.658 80.9589C127.627 80.9907 127.52 81.1023 127.336 81.2935C127.183 81.4835 126.999 81.6901 126.784 81.9132C126.6 82.1351 126.417 82.3416 126.233 82.5328C126.08 82.6922 125.972 82.7884 125.911 82.8215C125.574 83.0801 125.099 83.2521 124.486 83.3375C123.904 83.4523 123.352 83.52 122.831 83.5405L121.912 83.5766C120.441 83.6344 119.093 83.4727 117.867 83.0915C116.641 82.6797 115.416 82.0838 114.19 81.304C113.761 80.9835 113.317 80.633 112.857 80.2524C112.428 79.8706 111.953 79.5826 111.432 79.3884ZM106.376 66.109C106.468 66.1054 106.514 66.1649 106.514 66.2876C106.514 66.4103 106.468 66.4734 106.376 66.477C106.284 66.4806 106.238 66.4211 106.238 66.2984C106.238 66.1758 106.284 66.1126 106.376 66.109Z" fill="#222222"/>
<path d="M130.533 79.7879C130.624 79.263 130.732 78.6301 130.854 77.8893C131.008 77.1472 131.176 76.42 131.36 75.7074C131.544 74.9642 131.743 74.3277 131.957 73.7979C132.172 73.2375 132.402 72.8911 132.647 72.7588C132.892 72.6572 133.061 72.4819 133.153 72.233C133.244 71.9534 133.306 71.6596 133.336 71.3517C133.367 71.0132 133.382 70.6906 133.382 70.3839C133.413 70.0761 133.49 69.8124 133.612 69.5929L137.014 55.6593C137.167 55.4386 137.305 55.0498 137.427 54.493C137.55 53.9362 137.688 53.3634 137.841 52.7748C137.994 52.1861 138.178 51.6882 138.393 51.2811C138.607 50.8433 138.883 50.6332 139.22 50.6506L142.483 50.7984C142.974 51.0551 143.326 51.2099 143.541 51.2628C143.786 51.3145 143.97 51.3226 144.092 51.2871C144.245 51.2505 144.368 51.1996 144.46 51.1347C144.552 51.0391 144.705 50.9871 144.919 50.9786C145.226 50.9666 145.517 51.1698 145.793 51.5883C146.069 51.9762 146.314 52.4879 146.528 53.1234C146.773 53.7271 146.988 54.4087 147.172 55.1682C147.386 55.8957 147.57 56.5938 147.723 57.2625C147.877 57.9311 148.014 58.5237 148.137 59.0402C148.29 59.5555 148.428 59.8875 148.551 60.036C148.551 60.0666 148.581 60.0961 148.643 60.1244C148.704 60.122 148.75 60.1201 148.78 60.1189C148.842 60.1165 148.903 60.0835 148.964 60.0197C149.363 59.3294 149.853 58.4515 150.435 57.3859C151.017 56.2897 151.6 55.2395 152.182 54.2353C152.764 53.2311 153.3 52.382 153.791 51.6881C154.312 50.993 154.71 50.6553 154.986 50.6751C155.292 50.7244 155.599 50.6511 155.905 50.455C156.211 50.259 156.518 50.0016 156.824 49.6829C157.131 49.3335 157.422 48.9694 157.698 48.5906C157.973 48.1811 158.234 47.8182 158.479 47.5019L158.939 47.4838C159.061 47.479 159.276 47.3479 159.582 47.0905C159.889 46.8332 160.118 46.7015 160.272 46.6955C160.793 46.675 161.268 46.825 161.697 47.1455C162.156 47.4647 162.6 47.7233 163.029 47.9211C163.305 48.0329 163.489 48.2864 163.581 48.6814C163.673 49.0765 163.734 49.5187 163.765 50.0082C163.796 50.4977 163.796 51.0037 163.765 51.5262C163.734 52.0181 163.719 52.4327 163.719 52.77C163.719 52.954 163.688 53.3539 163.627 53.9696C163.596 54.5535 163.535 55.1692 163.443 55.8168C163.382 56.4633 163.29 57.0495 163.167 57.5757C163.075 58.07 162.968 58.3348 162.846 58.3703L159.26 72.3572C159.322 72.5081 159.306 72.9074 159.214 73.555C159.123 74.2026 158.954 74.9146 158.709 75.6909C158.586 76.0023 158.448 76.2991 158.295 76.5811C158.173 76.8619 158.035 77.128 157.881 77.3794C157.728 77.6614 157.514 77.9151 157.238 78.1406C156.993 78.3343 156.748 78.4512 156.503 78.4915C156.319 78.5294 156.15 78.7201 155.997 79.0634C155.874 79.4056 155.736 79.7483 155.583 80.0917C155.461 80.4338 155.338 80.73 155.216 80.9801C155.124 81.1984 155.016 81.2179 154.894 81.0387C154.863 81.0093 154.802 80.843 154.71 80.54C154.618 80.2063 154.526 79.9185 154.434 79.6768C154.373 79.4032 154.342 79.2511 154.342 79.2204C154.158 79.1356 153.929 79.0987 153.653 79.1095C153.408 79.0885 153.162 79.0828 152.917 79.0924C152.672 79.102 152.427 79.0963 152.182 79.0753C151.967 79.0531 151.784 78.9683 151.63 78.821L150.435 77.6719C150.435 76.9359 150.542 76.1497 150.757 75.3133C151.002 74.4757 151.201 73.6705 151.354 72.8978C151.446 72.4649 151.508 72.1098 151.538 71.8326C151.6 71.5235 151.661 71.1838 151.722 70.8134C151.722 70.8134 151.799 70.6264 151.952 70.2523C152.105 69.8476 152.304 69.3645 152.55 68.8029C152.795 68.2412 153.04 67.6336 153.285 66.98C153.561 66.2945 153.821 65.6709 154.066 65.1093C154.312 64.517 154.511 64.0338 154.664 63.6598C154.817 63.2551 154.894 63.0527 154.894 63.0527C154.863 63.054 154.725 63.2434 154.48 63.621C154.235 63.968 153.929 64.4093 153.561 64.9451C153.224 65.4797 152.856 66.0615 152.458 66.6905C152.059 67.3194 151.676 67.9018 151.309 68.4376C150.971 68.9722 150.68 69.4283 150.435 69.8059C150.19 70.1529 150.052 70.3116 150.022 70.2822C149.715 70.1716 149.363 70.1547 148.964 70.2317C148.566 70.3087 148.183 70.2931 147.815 70.1849C147.478 70.0754 147.034 70.0009 146.482 69.9612C145.961 69.8897 145.594 69.8428 145.379 69.8206C144.919 69.4706 144.582 69.0852 144.368 68.6643C144.184 68.2115 144.015 67.6355 143.862 66.9362C143.709 66.2062 143.479 65.4792 143.173 64.7553C142.866 64.0313 142.591 63.3828 142.345 62.8098C142.131 63.1555 141.932 63.6234 141.748 64.2133C141.595 64.7713 141.441 65.3446 141.288 65.9333C141.166 66.4901 141.028 67.0169 140.875 67.5136C140.752 67.9784 140.614 68.3058 140.461 68.4958C140.277 68.7177 140.124 69.0457 140.001 69.4799C139.909 69.8822 139.833 70.3298 139.771 70.8229C139.71 71.2853 139.649 71.7477 139.588 72.2101C139.526 72.6725 139.465 73.0429 139.404 73.3214C139.189 74.2191 138.99 75.0703 138.806 75.8748C138.622 76.6487 138.423 77.3465 138.209 77.9683C138.025 78.5582 137.826 79.0414 137.611 79.4178C137.427 79.7623 137.228 79.9388 137.014 79.9473C136.585 79.9641 136.232 80.07 135.956 80.2648C135.711 80.4278 135.466 80.6061 135.221 80.7997C135.006 80.9921 134.761 81.1858 134.486 81.3806C134.24 81.5742 133.919 81.6942 133.52 81.7405L130.441 80.2975L130.533 79.7879Z" fill="#222222"/>
<path d="M168.999 73.2166C169.122 73.7944 169.183 74.4207 169.183 75.0953C169.183 76.046 169.122 76.9837 168.999 77.9085C168.907 78.8322 168.907 79.7828 168.999 80.7606C168.999 81.0672 169.244 81.2723 169.735 81.3757C170.225 81.4484 170.685 81.4763 171.114 81.4595L172.906 81.389C173.182 80.9795 173.366 80.5583 173.458 80.1254C173.58 79.6912 173.795 79.2381 174.101 78.7661C174.193 78.5785 174.285 78.2375 174.377 77.7433C174.469 77.249 174.546 76.694 174.607 76.0782C174.699 75.4613 174.76 74.8302 174.791 74.185C174.821 73.5398 174.821 72.9878 174.791 72.529L178.192 59.2394C178.192 59.178 178.207 58.9628 178.238 58.5936C178.269 58.2243 178.269 57.9177 178.238 57.6736C178.146 57.0332 178.054 56.3314 177.962 55.5684C177.87 54.8053 177.717 54.0447 177.503 53.2864C177.288 52.5282 177.012 51.803 176.675 51.111C176.369 50.387 175.94 49.7599 175.388 49.2295C175.02 49.2133 174.775 49.1616 174.653 49.0744C174.561 48.986 174.5 48.8964 174.469 48.8056C174.469 48.7136 174.454 48.6069 174.423 48.4854C174.423 48.3628 174.331 48.2284 174.147 48.0823C173.442 48.11 172.814 48.3187 172.263 48.7083C171.711 49.098 171.267 49.6061 170.93 50.2327C170.715 50.6091 170.363 51.3283 169.872 52.3902C169.413 53.451 168.923 54.5742 168.402 55.76C167.881 56.9458 167.39 58.0538 166.931 59.0838C166.471 60.1139 166.149 60.8012 165.965 61.1457C165.782 61.521 165.552 61.944 165.276 62.4148C165.031 62.8538 164.862 63.2744 164.77 63.6767C164.709 63.9244 164.724 64.1692 164.816 64.4109C164.939 64.6207 165.031 64.8778 165.092 65.1821L160.266 74.2497C160.266 74.311 160.297 74.4171 160.358 74.5681C160.388 74.7202 160.434 74.8717 160.496 75.0227C160.526 75.1748 160.557 75.3269 160.588 75.479C160.618 75.6312 160.634 75.7532 160.634 75.8452C160.634 75.8759 160.603 75.9691 160.542 76.1248C160.45 76.2818 160.358 76.4541 160.266 76.6417C160.143 76.8305 160.051 77.0181 159.99 77.2045C159.898 77.3615 159.852 77.4553 159.852 77.4859C159.852 77.8539 159.99 78.1399 160.266 78.3437C160.511 78.5487 160.802 78.8133 161.139 79.1374C161.292 79.2847 161.507 79.2916 161.783 79.1581C162.089 78.9927 162.319 78.953 162.472 79.039C162.962 79.2957 163.345 79.25 163.621 78.9018C163.928 78.5218 164.204 78.0203 164.449 77.3973C164.694 76.7744 164.97 76.1195 165.276 75.4328C165.582 74.7155 166.011 74.1619 166.563 73.7723C166.839 73.5774 167.176 73.4415 167.574 73.3645C168.003 73.2863 168.478 73.237 168.999 73.2166ZM171.159 62.1377V62.3217C171.159 62.5057 171.144 62.8283 171.114 63.2895C171.083 63.7507 171.022 64.2591 170.93 64.8147C170.868 65.3384 170.761 65.8793 170.608 66.4373C170.455 66.9647 170.271 67.4012 170.056 67.747C169.872 68.0609 169.658 68.1767 169.413 68.0943C169.168 68.0119 168.877 67.9774 168.539 67.9906L168.907 66.1362C168.938 66.0736 169.045 65.8394 169.229 65.4335C169.413 65.0276 169.658 64.5273 169.964 63.9326C170.271 63.3379 170.531 62.883 170.746 62.5679C170.807 62.3508 170.945 62.2074 171.159 62.1377Z" fill="#222222"/>
<path d="M182.038 62.333C182.038 62.1557 182.057 61.991 182.095 61.839C182.133 61.6743 182.203 61.5287 182.304 61.402L183.102 60.889C183.203 60.9523 183.292 60.984 183.368 60.984C183.507 60.984 183.659 61.0093 183.824 61.06C184.001 61.098 184.179 61.2563 184.356 61.535C184.799 61.9023 185.154 62.2063 185.42 62.447C185.699 62.675 185.952 62.7953 186.18 62.808C186.332 62.8207 186.522 62.77 186.75 62.656C186.991 62.542 187.219 62.3773 187.434 62.162C187.662 61.934 187.852 61.6617 188.004 61.345C188.156 61.0283 188.232 60.6737 188.232 60.281C188.232 60.1417 188.226 59.977 188.213 59.787C188.213 59.597 188.188 59.4197 188.137 59.255C188.099 59.0777 188.023 58.932 187.909 58.818C187.808 58.704 187.656 58.647 187.453 58.647C187.301 58.647 187.149 58.6787 186.997 58.742C186.845 58.7927 186.693 58.856 186.541 58.932C186.402 59.008 186.256 59.0777 186.104 59.141C185.965 59.1917 185.813 59.217 185.648 59.217C185.623 59.217 185.566 59.217 185.477 59.217C185.388 59.2043 185.331 59.198 185.306 59.198C185.255 59.16 185.186 59.1093 185.097 59.046C185.008 58.9827 184.913 58.9193 184.812 58.856C184.723 58.78 184.635 58.7103 184.546 58.647C184.457 58.571 184.394 58.5077 184.356 58.457C184.318 58.4063 184.242 58.3493 184.128 58.286C184.027 58.2227 183.932 58.1593 183.843 58.096C183.754 58.0327 183.691 57.963 183.653 57.887C183.615 57.7983 183.647 57.697 183.748 57.583L186.313 55.702C186.68 55.4233 187.003 55.1383 187.282 54.847C187.573 54.5557 187.719 54.2263 187.719 53.859C187.719 53.6057 187.675 53.4347 187.586 53.346C187.51 53.2447 187.352 53.194 187.111 53.194C186.946 53.194 186.775 53.2257 186.598 53.289C186.433 53.3397 186.275 53.4093 186.123 53.498C185.984 53.5867 185.857 53.6817 185.743 53.783C185.629 53.8843 185.547 53.9793 185.496 54.068C185.445 54.144 185.382 54.1757 185.306 54.163C185.243 54.1377 185.167 54.0933 185.078 54.03C184.989 53.9667 184.894 53.897 184.793 53.821C184.704 53.745 184.603 53.6943 184.489 53.669C184.16 53.593 183.957 53.517 183.881 53.441C183.818 53.365 183.818 53.27 183.881 53.156C183.944 53.0547 184.001 52.9153 184.052 52.738C184.115 52.5607 184.21 52.3833 184.337 52.206C184.438 52.0667 184.559 51.94 184.698 51.826C184.837 51.6993 184.951 51.5917 185.04 51.503C185.357 51.1737 185.585 50.952 185.724 50.838C185.863 50.724 186.003 50.667 186.142 50.667C186.345 50.7177 186.471 50.7493 186.522 50.762C186.573 50.762 186.649 50.762 186.75 50.762C187.003 50.7747 187.206 50.7873 187.358 50.8C187.51 50.8 187.567 50.8 187.529 50.8C187.846 50.8 188.105 50.8633 188.308 50.99C188.523 51.104 188.675 51.3067 188.764 51.598C188.789 51.674 188.859 51.75 188.973 51.826C189.087 51.902 189.214 51.9843 189.353 52.073C189.505 52.149 189.644 52.2377 189.771 52.339C189.91 52.4277 190.012 52.5353 190.075 52.662C190.278 53.08 190.436 53.5297 190.55 54.011C190.664 54.4923 190.746 54.9737 190.797 55.455C190.81 55.6323 190.778 55.816 190.702 56.006C190.639 56.1833 190.55 56.3607 190.436 56.538C190.322 56.7027 190.202 56.861 190.075 57.013C189.948 57.165 189.841 57.298 189.752 57.412C189.777 57.4373 189.834 57.5007 189.923 57.602C190.012 57.6907 190.069 57.7477 190.094 57.773C190.385 58.0263 190.62 58.2797 190.797 58.533C190.974 58.7737 191.114 59.0333 191.215 59.312C191.316 59.5907 191.386 59.8947 191.424 60.224C191.462 60.5533 191.481 60.927 191.481 61.345C191.481 61.9783 191.386 62.561 191.196 63.093C191.006 63.6123 190.746 64.062 190.417 64.442C190.088 64.822 189.695 65.126 189.239 65.354C188.796 65.582 188.321 65.715 187.814 65.753C187.738 65.753 187.624 65.7657 187.472 65.791C187.32 65.8163 187.143 65.848 186.94 65.886C186.75 65.9113 186.547 65.9367 186.332 65.962C186.129 65.9873 185.939 66 185.762 66C185.61 66 185.483 65.9937 185.382 65.981C185.281 65.9683 185.179 65.9493 185.078 65.924C184.977 65.886 184.856 65.848 184.717 65.81C184.59 65.7593 184.419 65.7023 184.204 65.639C183.685 65.4997 183.305 65.2083 183.064 64.765C182.836 64.3217 182.665 63.796 182.551 63.188C182.551 63.1753 182.526 63.1373 182.475 63.074C182.424 62.998 182.361 62.9157 182.285 62.827C182.222 62.7383 182.165 62.656 182.114 62.58C182.063 62.4913 182.038 62.4343 182.038 62.409V62.333Z" fill="#222222"/>
<path d="M192.702 65.867C192.714 65.9683 192.759 66.0127 192.835 66C192.911 65.9747 192.974 65.9557 193.025 65.943C193.063 65.943 193.088 65.9683 193.101 66.019C193.139 66.1583 193.215 66.2597 193.329 66.323C193.455 66.3863 193.569 66.3547 193.671 66.228C193.721 66.228 193.753 66.2787 193.766 66.38C193.791 66.494 193.823 66.551 193.861 66.551L194.773 66.19C194.823 66.1393 194.855 66.0823 194.868 66.019C194.893 65.9557 194.912 65.886 194.925 65.81C194.937 65.7213 194.956 65.6137 194.982 65.487C195.007 65.3477 195.045 65.183 195.096 64.993C195.134 64.8537 195.153 64.7523 195.153 64.689C195.165 64.6257 195.165 64.5813 195.153 64.556C195.153 64.518 195.146 64.4863 195.134 64.461C195.121 64.423 195.127 64.3597 195.153 64.271C195.431 64.0557 195.52 63.9037 195.419 63.815C195.317 63.7263 195.127 63.6313 194.849 63.53C194.709 63.6313 194.564 63.6567 194.412 63.606C194.272 63.5427 194.133 63.5173 193.994 63.53C193.918 63.4413 193.861 63.378 193.823 63.34C193.785 63.302 193.747 63.283 193.709 63.283C193.683 63.2703 193.645 63.2703 193.595 63.283C193.544 63.2957 193.474 63.302 193.386 63.302C193.31 63.3527 193.234 63.3717 193.158 63.359C193.082 63.3463 193.006 63.3273 192.93 63.302L192.607 65.183V65.582L192.702 65.867Z" fill="#222222"/>
<path d="M197.131 62.884C197.08 62.618 196.972 62.3837 196.808 62.181C196.643 61.9657 196.497 61.7503 196.371 61.535C196.333 61.4843 196.314 61.4147 196.314 61.326C196.326 61.2373 196.339 61.1487 196.352 61.06C196.364 60.9587 196.358 60.87 196.333 60.794C196.32 60.7053 196.269 60.6483 196.181 60.623L195.991 59.673L195.915 59.597V59.312C195.915 58.9447 195.953 58.59 196.029 58.248C196.117 57.906 196.168 57.5387 196.181 57.146C196.244 57.1333 196.288 57.1017 196.314 57.051C196.339 56.9877 196.358 56.918 196.371 56.842C196.383 56.766 196.39 56.69 196.39 56.614C196.402 56.538 196.421 56.4747 196.447 56.424C196.928 55.5753 197.466 54.8153 198.062 54.144C198.67 53.46 199.354 52.833 200.114 52.263C200.164 52.225 200.278 52.1807 200.456 52.13C200.646 52.0667 200.842 52.0033 201.045 51.94C201.247 51.8767 201.431 51.8133 201.596 51.75C201.76 51.6867 201.849 51.636 201.862 51.598H203.705C204.731 51.8513 205.573 52.263 206.232 52.833C206.89 53.3903 207.403 54.0743 207.771 54.885C207.771 54.885 207.783 54.904 207.809 54.942C207.834 54.9673 207.853 54.98 207.866 54.98C208.195 55.2333 208.448 55.5373 208.626 55.892C208.816 56.234 208.98 56.6013 209.12 56.994C209.12 56.994 209.126 57.0067 209.139 57.032C209.151 57.0447 209.164 57.0573 209.177 57.07C209.215 57.4373 209.278 57.7857 209.367 58.115C209.455 58.4317 209.5 58.7673 209.5 59.122C209.5 60.034 209.284 60.9017 208.854 61.725C208.436 62.5483 207.885 63.264 207.201 63.872C207.188 63.872 207.068 63.9543 206.84 64.119C206.624 64.271 206.371 64.442 206.08 64.632C205.801 64.822 205.516 65.0057 205.225 65.183C204.946 65.3603 204.737 65.468 204.598 65.506C204.268 65.658 203.876 65.7593 203.42 65.81C202.976 65.848 202.52 65.867 202.052 65.867C201.57 65.867 201.095 65.7783 200.627 65.601C200.171 65.411 199.734 65.1767 199.316 64.898C198.898 64.6067 198.505 64.2837 198.138 63.929C197.77 63.5743 197.435 63.226 197.131 62.884ZM199.012 59.426C199.024 59.4387 199.056 59.483 199.107 59.559C199.17 59.6223 199.208 59.6603 199.221 59.673C199.246 59.7617 199.297 59.8757 199.373 60.015C199.461 60.1543 199.512 60.2303 199.525 60.243V61.079C199.55 61.2563 199.607 61.3957 199.696 61.497C199.797 61.5983 199.905 61.6807 200.019 61.744C200.145 61.8073 200.272 61.8707 200.399 61.934C200.525 61.9973 200.639 62.0733 200.741 62.162C200.791 62.2253 200.874 62.295 200.988 62.371C201.114 62.447 201.247 62.523 201.387 62.599C201.526 62.675 201.665 62.751 201.805 62.827C201.944 62.8903 202.052 62.941 202.128 62.979H202.945C203.097 62.979 203.318 62.922 203.61 62.808C203.914 62.694 204.218 62.5483 204.522 62.371C204.826 62.1937 205.098 62.0037 205.339 61.801C205.592 61.5983 205.738 61.4083 205.776 61.231C205.788 61.193 205.795 61.1233 205.795 61.022C205.807 60.9207 205.814 60.813 205.814 60.699C205.826 60.585 205.833 60.4773 205.833 60.376C205.845 60.262 205.852 60.186 205.852 60.148C205.928 60.11 205.978 60.0657 206.004 60.015C206.029 59.9517 206.048 59.8883 206.061 59.825C206.073 59.7617 206.086 59.7047 206.099 59.654C206.124 59.5907 206.162 59.5463 206.213 59.521C206.301 59.2677 206.352 59.0587 206.365 58.894C206.377 58.7167 206.384 58.5267 206.384 58.324V57.811C206.206 57.5323 206.054 57.279 205.928 57.051C205.801 56.8103 205.668 56.595 205.529 56.405C205.389 56.215 205.231 56.044 205.054 55.892C204.876 55.7273 204.642 55.5753 204.351 55.436C204.275 55.398 204.224 55.3663 204.199 55.341C204.173 55.303 204.154 55.2713 204.142 55.246C204.142 55.208 204.135 55.17 204.123 55.132C204.123 55.094 204.104 55.0433 204.066 54.98C204.028 54.9293 203.964 54.8913 203.876 54.866C203.8 54.8407 203.711 54.8217 203.61 54.809C203.521 54.7837 203.426 54.7583 203.325 54.733C203.236 54.695 203.166 54.6443 203.116 54.581H201.672C201.634 54.6823 201.57 54.752 201.482 54.79C201.406 54.8153 201.349 54.8787 201.311 54.98C201.285 55.0053 201.241 55.0813 201.178 55.208C201.127 55.3347 201.089 55.4107 201.064 55.436C200.899 55.398 200.69 55.493 200.437 55.721C200.196 55.949 199.962 56.215 199.734 56.519C199.506 56.823 199.309 57.127 199.145 57.431C198.98 57.7223 198.898 57.925 198.898 58.039C198.898 58.229 198.929 58.4 198.993 58.552C199.056 58.704 199.088 58.856 199.088 59.008V59.255C199.088 59.255 199.075 59.2803 199.05 59.331C199.024 59.3817 199.012 59.4133 199.012 59.426Z" fill="#222222"/>
</svg>
