<svg width="262" height="121" viewBox="0 0 262 121" fill="none" xmlns="http://www.w3.org/2000/svg">
<path fill-rule="evenodd" clip-rule="evenodd" d="M42.6705 13.286C33.1357 13.1914 15.2641 17.9423 8.98659 36.7682C1.57394 58.9987 6.86091 83.3067 15.3091 94.7336C21.0788 102.537 30.2838 110.918 42.6705 110.918C55.0573 110.918 64.2623 102.537 70.0319 94.7336C78.4802 83.3067 83.7671 58.9987 76.3545 36.7682C70.077 17.9423 52.2054 13.1914 42.6705 13.286Z" stroke="black" stroke-width="2"/>
<path fill-rule="evenodd" clip-rule="evenodd" d="M68.8088 60.0518C68.3131 54.9412 49.4541 59.3188 51.355 63.7289C52.5041 66.395 57.3059 69.2008 61.6314 68.684C65.8218 68.1834 69.3045 65.1622 68.8088 60.0518Z" fill="black" stroke="black" stroke-width="2"/>
<path fill-rule="evenodd" clip-rule="evenodd" d="M17.6774 60.0518C18.1732 54.9412 37.0321 59.3188 35.1312 63.7289C33.9821 66.395 29.1803 69.2008 24.8548 68.684C20.6645 68.1834 17.1817 65.1622 17.6774 60.0518Z" fill="black" stroke="black" stroke-width="2"/>
<path d="M6.65439 71.9131H9.21084C13.6291 71.9131 17.2108 75.4948 17.2108 79.9131V84.2302" stroke="black" stroke-width="2"/>
<path d="M79.3076 71.9131H76.7512C72.3329 71.9131 68.7512 75.4948 68.7512 79.9131V84.2302" stroke="black" stroke-width="2"/>
<circle cx="37.1705" cy="45" r="2" fill="black"/>
<circle cx="48.1705" cy="45" r="2" fill="black"/>
<circle cx="59.1705" cy="45" r="2" fill="black"/>
<circle cx="26.1705" cy="45" r="2" fill="black"/>
<circle cx="38.1705" cy="94" r="2" fill="black"/>
<circle cx="48.1705" cy="94" r="2" fill="black"/>
<circle cx="58.1705" cy="94" r="2" fill="black"/>
<circle cx="28.1705" cy="94" r="2" fill="black"/>
<circle cx="37.1705" cy="36" r="2" fill="black"/>
<circle cx="48.1705" cy="36" r="2" fill="black"/>
<circle cx="59.1705" cy="36" r="2" fill="black"/>
<circle cx="26.1705" cy="36" r="2" fill="black"/>
<circle cx="38.1705" cy="85" r="2" fill="black"/>
<circle cx="48.1705" cy="85" r="2" fill="black"/>
<circle cx="58.1705" cy="85" r="2" fill="black"/>
<circle cx="28.1705" cy="85" r="2" fill="black"/>
<circle cx="38.1705" cy="76" r="2" fill="black"/>
<circle cx="48.1705" cy="76" r="2" fill="black"/>
<path d="M148.325 15.5519L148.485 15.6231H148.565L149.524 15.5519L149.604 15.6944V15.7656H149.524C149.085 15.7656 147.965 15.9792 146.167 16.4065C145.753 16.4065 145.061 16.6202 144.088 17.0475C140.504 17.5697 138.318 17.997 137.532 18.3294C136.839 18.3412 136.28 18.4837 135.853 18.7567C135.96 18.8041 136.04 18.8279 136.093 18.8279L140.49 18.2582C148.378 17.0237 152.402 16.4065 152.562 16.4065L152.642 16.549V16.6202C151.936 16.6202 149.564 17.2374 145.527 18.4718C143.182 18.6973 141.61 19.0297 140.81 19.4688L137.212 20.181V20.3946H137.372C139.011 20.1098 140.45 19.9673 141.689 19.9673H142.729C142.809 19.9673 142.889 20.0386 142.969 20.181C142.489 20.3234 141.61 20.5133 140.33 20.7507C140.17 20.8457 139.291 21.0593 137.692 21.3917C137.546 21.3917 137.013 21.3442 136.093 21.2492C135.84 21.2492 134.961 21.5104 133.455 22.0326C132.082 22.27 130.59 22.4362 128.978 22.5311C128.058 22.638 127.126 23.0415 126.18 23.7418C125.647 23.8368 125.167 23.8843 124.741 23.8843H124.661C124.367 24.1691 124.181 24.3116 124.101 24.3116L123.941 24.2403C123.408 24.2403 123.115 25 123.062 26.5193V26.8041C123.062 26.911 123.088 27.0059 123.142 27.089C123.142 27.7893 122.742 28.9762 121.942 30.6498C121.942 30.994 121.703 31.8249 121.223 33.1424C121.223 34.2106 120.663 36.5608 119.544 40.1928C119.544 41.0949 119.064 42.899 118.105 45.6053L116.026 52.2996C116.026 52.9762 115.627 54.2343 114.827 56.0741C114.827 56.6557 114.507 57.6765 113.868 59.1364V60.2046C113.868 60.3115 113.894 60.4064 113.948 60.4895C113.468 61.1661 113.228 61.5696 113.228 61.7002V62.626C113.121 63.4331 113.068 63.8842 113.068 63.9791V64.0503C113.388 65.1423 113.548 65.807 113.548 66.0444C113.548 66.175 113.281 66.2699 112.748 66.3293H111.549C111.176 67.0296 110.83 67.3856 110.51 67.3975C110.337 67.3975 109.804 67.1364 108.911 66.6141C108.604 66.7091 108.151 67.3026 107.552 68.3945C107.179 68.5014 106.992 68.5726 106.992 68.6082C106.446 68.6082 105.673 67.445 104.674 65.1186C104.554 64.9168 104.127 64.7269 103.395 64.5489C101.116 60.2759 99.8635 56.9287 99.637 54.5073C99.5837 54.4242 99.557 54.3293 99.557 54.2225C99.597 53.8426 99.6769 53.6527 99.7969 53.6527H99.8768C100.25 55.0177 100.863 56.4895 101.716 58.0682L101.876 58.1394H102.035V58.0682C102.035 57.9139 101.582 56.2996 100.676 53.2254C100.676 52.8337 100.383 51.8842 99.7969 50.3768C99.7436 49.7596 99.7169 49.2611 99.7169 48.8812C99.7702 48.7863 99.7969 48.7151 99.7969 48.6676H99.8768C100.223 48.9881 100.623 49.8427 101.076 51.2314C101.356 51.3382 101.729 52.2403 102.195 53.9376L102.595 54.2937H102.675V54.0088C100.863 48.6557 99.9568 45.1898 99.9568 43.6112C100.063 43.2314 100.17 43.0415 100.277 43.0415C100.423 43.2195 100.663 43.9317 100.996 45.178C102.329 47.6112 102.995 49.3916 102.995 50.5192C103.688 52.5964 104.141 53.6646 104.354 53.724H104.514V53.1542C104.514 52.7151 104.194 51.6705 103.554 50.0207V49.8783C103.554 49.5578 103.608 49.178 103.714 48.7388H103.954C104.047 48.7388 104.341 49.356 104.834 50.5904L105.713 52.9406C106.792 54.9346 107.565 55.9317 108.031 55.9317C108.724 55.3857 109.071 54.4836 109.071 53.2254V52.6557C109.071 52.4777 108.991 52.0266 108.831 51.3026C109.737 48.8931 110.19 47.1602 110.19 46.1038C110.19 45.0118 110.643 43.4688 111.549 41.4747C111.696 40.9169 111.856 40.0623 112.029 38.9109C112.882 34.8991 113.548 32.0267 114.028 30.2937C114.134 30.2937 114.187 30.1276 114.187 29.7952C113.921 29.5104 113.788 29.2967 113.788 29.1543C114.108 28.4896 114.267 28.086 114.267 27.9436C114.041 26.9466 113.908 26.448 113.868 26.448C113.868 25.997 114.321 25.4748 115.227 24.8813L115.307 24.7389V24.6676C115.24 24.4777 115 24.3828 114.587 24.3828C112.948 24.5727 111.456 24.905 110.11 25.3798C109.977 25.3798 109.764 25.4035 109.471 25.451L109.391 25.3086V25.2374C109.764 24.9644 109.95 24.7507 109.95 24.5964L109.71 24.454H107.312C106.739 24.454 106.073 24.5964 105.313 24.8813C105.22 24.8813 104.794 24.4065 104.034 23.457V23.1721C104.46 22.7448 104.674 22.365 104.674 22.0326V21.3205C104.953 20.6083 105.46 20.2522 106.193 20.2522C107.552 20.2997 108.351 20.3234 108.591 20.3234C109.111 20.3234 109.67 20.1098 110.27 19.6825C110.603 19.54 111.403 19.4688 112.668 19.4688H113.708C114.774 19.1365 116.772 18.8041 119.704 18.4718C119.704 18.3531 120.557 18.2582 122.262 18.1869C123.914 17.6291 126.553 17.178 130.177 16.8338C130.59 16.6439 131.816 16.454 133.855 16.2641C133.921 16.2641 134.188 16.2878 134.654 16.3353C135.267 16.1929 135.907 16.1217 136.573 16.1217H137.212V16.1929C137.212 16.3472 136.12 16.5846 133.935 16.905C132.229 17.2374 131.376 17.4748 131.376 17.6172V17.6884C131.629 17.6884 131.896 17.6647 132.176 17.6172C132.962 17.6647 133.655 17.6884 134.254 17.6884C135.667 17.4036 136.653 17.2611 137.212 17.2611H138.092C141.21 16.5964 143.555 16.1691 145.127 15.9792H145.287C145.327 15.9792 145.487 16.003 145.767 16.0504C147.459 15.7537 148.312 15.5875 148.325 15.5519ZM102.595 54.4361C102.728 55.1008 102.862 55.4331 102.995 55.4331H103.075V55.2195C102.941 54.6972 102.808 54.4361 102.675 54.4361H102.595Z" fill="black"/>
<path d="M143.408 23.2967H143.488C143.901 23.2967 144.221 23.5341 144.448 24.0089C144.234 24.6024 144.128 24.9584 144.128 25.0771C144.128 25.5163 144.581 26.0148 145.487 26.5727C145.487 26.6202 145.567 26.7863 145.727 27.0712C145.727 27.6053 144.847 28.0801 143.089 28.4955C142.875 28.6973 142.769 28.8872 142.769 29.0653V29.5638C142.769 29.6112 142.795 29.635 142.849 29.635C142.849 30.0267 142.236 30.5727 141.01 31.273C140.45 32.5549 139.784 33.1958 139.011 33.1958C138.225 33.3501 137.266 34.086 136.133 35.4035C134.428 37.635 133.575 38.8931 133.575 39.178V39.4629C133.575 39.5341 133.655 39.6053 133.815 39.6765H133.895C134.867 39.2136 136.653 38.6201 139.251 37.8961C139.691 37.8011 140.117 37.7299 140.53 37.6824C141.37 37.7655 143.102 38.1454 145.727 38.8219C148.338 39.1661 149.644 39.997 149.644 41.3145C149.698 41.635 149.724 41.8961 149.724 42.0979C149.724 43.2255 149.005 45.2433 147.566 48.1513C147.073 48.721 146.247 50.0504 145.087 52.1394C145.061 52.1394 144.874 52.2818 144.528 52.5667H144.448L145.487 50.7151C145.753 50.1097 145.887 49.6587 145.887 49.3619H145.647C145.647 49.5044 144.981 50.3827 143.648 51.997C143.368 52.899 142.809 53.7536 141.969 54.5607C141.876 55.3323 141.157 56.3768 139.811 57.6943C139.091 58.3233 138.532 58.9406 138.132 59.5459C137.879 59.6409 137.639 59.902 137.412 60.3293C137.306 60.4242 137.146 60.4717 136.933 60.4717V60.4005H136.853C136.746 60.4124 136.693 60.4598 136.693 60.5429V60.6141H136.853V60.7566C136.56 61.2788 135.867 61.9673 134.774 62.8219C134.681 63.0355 134.494 63.2254 134.214 63.3916H134.054V63.3204C135.254 62.2403 135.867 61.5281 135.893 61.1839C137.546 59.1898 138.372 58.0029 138.372 57.6231V57.5518H138.292C136.56 59.0236 135.494 60.2106 135.094 61.1127C133.641 62.3471 132.815 62.9643 132.615 62.9643C131.403 64.2818 129.804 65.2313 127.819 65.8129C125.873 66.2402 124.274 66.8812 123.022 67.7358C122.649 67.9257 122.382 68.0207 122.222 68.0207H122.062C122.502 67.5577 123.435 67.083 124.86 66.5963C124.86 66.3945 125.393 66.1809 126.459 65.9554C126.952 65.5399 127.779 65.0889 128.938 64.6023C129.204 64.4124 130.483 63.1542 132.775 60.8278L132.615 60.7566C131.883 60.7566 130.417 61.5162 128.218 63.0355C127.299 63.2492 126.233 63.8901 125.02 64.9583C124.208 65.3382 123.728 65.5281 123.581 65.5281H123.501C123.755 65.2195 124.527 64.7684 125.82 64.175L128.938 61.54C129.244 61.54 130.31 60.7566 132.136 59.1898C133.748 58.1216 134.654 57.1483 134.854 56.2699H134.694L130.057 60.1868H129.737C129.737 59.902 130.43 59.1898 131.816 58.0504C132.296 57.172 133.282 56.08 134.774 54.7744C135.107 54.0029 135.693 53.2432 136.533 52.4955C136.533 52.4005 137.119 51.5697 138.292 50.0029C138.452 49.3619 138.825 48.5073 139.411 47.4391C139.518 46.7269 139.571 46.2284 139.571 45.9436C139.571 45.4688 139.198 45.1364 138.452 44.9465C138.398 44.8634 138.372 44.7685 138.372 44.6617H137.492C137.159 44.6617 136.013 45.2076 134.054 46.2996C133.641 46.3234 133.028 46.7507 132.216 47.5815C130.497 48.6735 129.164 49.2195 128.218 49.2195H127.978C126.393 49.2195 125.327 48.1513 124.781 46.0148C124.781 45.445 124.034 44.9228 122.542 44.448C122.276 44.0563 122.142 43.6528 122.142 43.2373C122.142 39.8902 123.262 36.7329 125.5 33.7655C126.806 32.2225 128.431 30.7507 130.377 29.3501C131.283 28.365 132.669 27.4866 134.534 26.7151C134.707 26.7151 135.374 26.3115 136.533 25.5044C137.599 25.1721 138.665 24.721 139.731 24.1513C140.091 24.1988 140.384 24.2225 140.61 24.2225H140.77C141.463 23.6053 142.342 23.2967 143.408 23.2967Z" fill="black"/>
<path d="M159.338 24.0801H159.738C159.911 24.0801 160.604 24.5311 161.816 25.4332C163.775 26.0504 164.948 26.4777 165.334 26.7151C165.547 26.9525 165.707 27.2848 165.814 27.7121C165.334 28.7448 165.094 29.3382 165.094 29.4926V30.1335C165.094 30.2403 165.201 30.6439 165.414 31.3442C165.147 32.5786 164.961 34.6439 164.854 37.54C164.335 40.5074 163.615 42.6676 162.696 44.0207C162.696 44.448 162.483 45.1839 162.056 46.2284C162.056 46.9406 161.55 48.0563 160.537 49.5756L159.978 51.4272C159.405 52.4243 158.872 53.991 158.379 56.1275C157.672 57.2195 156.953 58.5489 156.22 60.1156C155.834 60.5073 155.567 60.721 155.421 60.7566H155.341V60.6141C156.353 59.807 156.86 58.7388 156.86 57.4094C156.979 57.4094 157.059 57.1958 157.099 56.7685V56.5548C157.099 56.4599 157.046 56.4124 156.94 56.4124H156.86C156.86 56.5548 156.62 57.1008 156.14 58.0504C156.14 58.7981 154.808 60.0325 152.143 61.7536C151.903 61.896 151.423 62.0385 150.704 62.1809C149.105 61.8842 148.305 61.5044 148.305 61.0414C148.172 60.8871 147.879 60.7447 147.426 60.6141C147.412 60.4005 146.933 59.9495 145.987 59.261L144.308 56.4836C143.881 55.2729 143.668 54.4421 143.668 53.991V53.5637C143.189 52.6616 142.949 51.8545 142.949 51.1424C142.949 50.5608 143.268 49.0889 143.908 46.7269C143.908 43.8901 145.107 40.8278 147.506 37.54C147.759 36.816 148.025 35.7003 148.305 34.1928C149.265 32.9584 149.851 31.9139 150.064 31.0593C151.663 29.3976 152.462 28.092 152.462 27.1424C153.728 25.1958 154.874 24.2225 155.9 24.2225L156.46 24.2937H157.179C157.939 24.2937 158.658 24.2225 159.338 24.0801ZM160.617 26.5727C160.617 26.7151 160.217 26.8101 159.418 26.8575C158.845 27.178 158.472 27.6291 158.299 28.2107C157.393 31.1543 156.726 32.6261 156.3 32.6261C155.341 33.2552 154.861 34.2997 154.861 35.7596C154.328 36.3768 154.061 37.0178 154.061 37.6824C153.369 37.908 153.022 38.359 153.022 39.0356C153.022 39.5103 152.702 40.5786 152.063 42.2403C152.063 42.4421 151.77 43.7715 151.183 46.2284V46.7982C150.863 47.4628 150.704 47.8189 150.704 47.8664V48.7922C150.064 49.8486 149.744 50.9168 149.744 51.997C149.744 53.0177 149.718 54.1334 149.664 55.3441C149.904 56.3412 150.331 56.8397 150.943 56.8397C151.836 56.4005 152.449 55.7358 152.782 54.8456C153.635 54.5726 154.061 54.0266 154.061 53.2076C154.408 53.2076 154.781 52.2106 155.181 50.2165C155.914 48.899 156.686 46.9525 157.499 44.3768C157.766 43.8071 157.952 43.5222 158.059 43.5222H158.139L158.299 43.5934C157.926 45.1839 157.739 46.0622 157.739 46.2284H157.819C157.939 46.2047 158.152 45.7536 158.459 44.8753C158.885 44.1869 159.098 43.6646 159.098 43.3085V43.0237C159.098 42.9525 159.045 42.5726 158.938 41.8842C159.245 41.3501 159.485 40.3293 159.658 38.8219C160.124 37.4688 160.417 36.0919 160.537 34.6914C161.337 31.9376 161.736 30.2285 161.736 29.5638V29.2077C161.736 28.8635 161.576 28.3887 161.257 27.7834C161.257 26.9762 161.044 26.5727 160.617 26.5727ZM148.465 60.8278V61.0414H148.625V60.8278H148.465Z" fill="black"/>
<path d="M186.1 15H186.18L186.26 15.3561C185.461 18.0148 184.981 19.9377 184.821 21.1246C184.288 21.9673 184.022 23.0119 184.022 24.2581V25.4688C184.022 25.7181 183.595 27.1424 182.743 29.7418C182.743 30.8813 182.37 33.0652 181.623 36.2937H181.863C181.863 35.7477 182.316 34.5133 183.222 32.5905L183.382 32.5192C183.382 32.543 183.436 32.6142 183.542 32.7329V32.8753C183.542 34.3471 182.956 37.1483 181.783 41.2789C181.783 41.4332 181.81 41.8367 181.863 42.4896L181.384 46.5489V49.6824C180.637 52.9465 180.264 54.8456 180.264 55.3797V59.083L180.664 61.7892C180.504 63.8782 179.918 64.9227 178.905 64.9227C178.905 64.9702 178.799 64.994 178.585 64.994C176.347 64.531 175.228 63.7714 175.228 62.715C174.961 61.8604 174.481 61.4331 173.789 61.4331C173.136 61.1957 172.683 60.8634 172.429 60.4361C172.23 59.4035 172.043 57.9079 171.87 55.9495C171.63 55.9495 171.47 54.9524 171.39 52.9584C171.07 51.8901 170.644 49.3501 170.111 45.3382C170.044 45.3382 169.991 45.172 169.951 44.8397C170.218 43.9139 170.351 43.3442 170.351 43.1305V42.7744L169.951 42.7032H169.791C169.791 43.451 169.418 44.0919 168.672 44.626C168.672 45.2433 168.272 46.5014 167.473 48.4005C166.98 50.8219 166.5 52.3886 166.034 53.1008C165.834 53.445 165.567 54.6557 165.234 56.7328C164.981 57.813 164.714 58.5251 164.435 58.8693H164.355C164.355 57.7299 164.648 55.6171 165.234 52.5311C165.287 52.4005 165.314 52.0444 165.314 51.4628H165.154C165.154 51.9257 164.568 53.6824 163.395 56.7328C163.129 59.1898 162.676 61.0652 162.036 62.3589C161.557 63.1186 161.103 64.5904 160.677 66.7744C160.464 67.1067 160.331 67.2729 160.277 67.2729H160.197L160.117 66.9168V66.6319C160.117 66.3589 160.677 63.9138 161.796 59.2966C161.796 58.6794 162.249 56.8753 163.155 53.8842C163.209 53.813 163.235 53.6705 163.235 53.4569L163.076 53.3857C162.756 53.813 162.409 54.81 162.036 56.3768C161.583 57.5637 161.317 58.1572 161.237 58.1572H161.157V58.0147H160.997V58.2284C160.997 58.3233 161.077 58.3708 161.237 58.3708C160.757 59.7121 160.491 60.5667 160.437 60.9346L160.277 60.8634C160.277 60.1512 160.704 58.2521 161.557 55.1661C161.557 54.5251 161.85 53.3857 162.436 51.7477C162.489 51.7002 162.516 51.5103 162.516 51.178V50.8219H162.436C161.956 51.4391 161.716 52.175 161.716 53.0296C161.077 54.0029 160.757 55.0711 160.757 56.2343C160.584 56.7566 160.451 57.0177 160.357 57.0177C160.251 57.0177 160.197 56.9702 160.197 56.8753V56.8041C160.357 56.353 160.437 56.0682 160.437 55.9495V55.5934C160.437 55.3204 160.411 54.9406 160.357 54.4539C160.944 52.8753 161.237 51.8545 161.237 51.3916C161.543 50.9287 161.81 49.6943 162.036 47.6884C162.942 45.4569 163.555 43.4628 163.875 41.7062C165.034 39.8071 165.647 38.359 165.714 37.362C165.714 35.9139 166.14 34.7982 166.993 34.0148C167.313 33.3738 167.473 32.9465 167.473 32.7329V32.1632C167.473 32.1157 167.446 32.092 167.393 32.092C167.633 29.8012 167.872 28.2819 168.112 27.5341C168.645 26.2997 169.152 25.6825 169.631 25.6825C169.858 25.4332 170.124 24.8872 170.431 24.0445C170.577 23.9258 170.87 23.8308 171.31 23.7596C172.483 23.9614 173.069 24.5074 173.069 25.3976C172.962 25.6825 172.723 26.0386 172.349 26.4659V27.3917C172.776 28.0207 173.335 28.4718 174.028 28.7448C174.028 28.8397 174.135 29.0059 174.348 29.2433C174.135 30.0267 174.028 30.5964 174.028 30.9525C174.455 31.9258 174.668 32.5905 174.668 32.9465C174.561 33.9554 174.508 34.5489 174.508 34.727V35.083C175.094 37.8011 175.387 39.9614 175.387 41.5637V42.4183C175.401 42.5133 175.454 42.5608 175.547 42.5608H175.627C175.627 42.3234 175.867 40.994 176.347 38.5726C177.266 33.635 178.039 30.6439 178.665 29.5994H178.745V29.7418C178.745 30.0979 178.585 30.8338 178.266 31.9495C178.319 32.9703 178.346 33.7062 178.346 34.1572C178.079 35.4747 177.946 36.1632 177.946 36.2225L178.106 37.0059C177.892 37.6587 177.786 38.7744 177.786 40.3531L177.946 40.4243C178.172 40.2225 178.359 39.3916 178.505 37.9317C178.825 36.816 178.985 36.0326 178.985 35.5816V34.1572C179.838 29.8368 180.264 27.5341 180.264 27.2492C180.264 26.1572 180.664 24.5905 181.463 22.5489C181.623 21.9317 181.783 21.6231 181.943 21.6231L182.023 21.7656V21.8368C181.543 24.911 181.304 26.9288 181.304 27.8902H181.543C181.543 27.6053 181.863 26.6083 182.503 24.8991C182.503 23.997 182.876 22.8813 183.622 21.5519C183.622 20.9584 184.075 19.6291 184.981 17.5638C184.981 16.8872 185.354 16.0326 186.1 15ZM181.144 38.0029L181.064 38.6439H181.304L181.384 38.1454V38.0029H181.144ZM160.277 60.9346L160.437 61.0058C160.304 61.9079 160.171 62.3589 160.037 62.3589H159.958C159.904 62.1928 159.878 62.0978 159.878 62.0741C160.144 61.5281 160.277 61.1483 160.277 60.9346Z" fill="black"/>
<path d="M130.577 50.0476L130.737 50.1188H131.776L131.936 50.0476V50.1188C131.936 50.3562 131.11 50.5461 129.457 50.6886C128.138 51.1515 127.472 51.4126 127.459 51.472V51.5432H128.658C129.191 51.5432 129.457 51.4957 129.457 51.4007L129.857 51.472H130.017C130.737 51.472 132.202 51.282 134.414 50.9022C134.414 51.0447 134.468 51.1159 134.574 51.1159H134.894V50.831C135.6 50.6411 136.16 50.5224 136.573 50.4749V50.5461C136.773 50.4512 136.986 50.4037 137.212 50.4037L137.772 50.4749V50.5461C137.772 50.653 137.452 50.7954 136.813 50.9734C136.813 50.926 136.786 50.9022 136.733 50.9022L136.813 50.7598V50.6174H136.733C136.626 50.6174 136.066 50.7123 135.054 50.9022V50.9734L135.214 51.1871C135.08 51.1871 133.242 51.6619 129.697 52.6114V52.8251H130.097L133.775 52.469L139.211 51.3295C140.131 51.377 140.877 51.4007 141.45 51.4007C141.663 51.4007 141.796 51.4957 141.849 51.6856C141.29 51.9586 139.717 52.2197 137.132 52.469C134.188 53.0862 131.869 53.6797 130.177 54.2494C130.084 54.2019 129.977 54.1782 129.857 54.1782C128.885 54.5105 128.138 54.7242 127.619 54.8191V54.9616C128.911 54.8666 129.95 54.8191 130.737 54.8191C131.963 54.8191 132.575 54.8903 132.575 55.0328C132.216 55.4245 130.43 55.7331 127.219 55.9586C126.686 55.9823 126.366 56.0773 126.26 56.2435V56.3147C126.26 56.5165 127.112 56.7301 128.818 56.9556V57.0981H128.498C128.338 57.0981 127.725 57.1693 126.659 57.3117C126.313 57.3117 125.78 57.288 125.06 57.2405C124.661 57.2405 123.381 57.4304 121.223 57.8102C120.557 57.8102 119.917 58.0476 119.304 58.5224C118.345 58.6648 117.865 59.0209 117.865 59.5906V59.7331C117.865 59.8399 117.892 59.9348 117.945 60.0179C117.625 60.2435 117.359 61.0743 117.146 62.5105C117.146 64.3621 116.879 65.288 116.346 65.288C115.666 66.1663 114.601 68.9675 113.148 73.6915C112.922 74.0476 112.628 75.4482 112.269 77.8933C110.83 82.19 110.11 84.6588 110.11 85.2998C109.524 88.9674 108.884 91.7686 108.191 93.7033L107.872 93.917H107.792C107.792 93.822 107.765 93.7745 107.712 93.7745C107.712 93.4422 107.845 91.9466 108.111 89.2879V89.1455H108.031C107.858 89.276 107.618 90.1781 107.312 91.8517C106.672 93.4659 106.353 94.9377 106.353 96.2671C105.713 98.0357 105.313 99.8398 105.153 101.68C104.354 103.412 103.954 105.288 103.954 107.306C103.848 107.591 103.661 107.733 103.395 107.733C103.235 106.997 103.155 106.048 103.155 104.884V104.03C103.155 103.638 103.208 102.926 103.315 101.893C103.261 101.205 103.235 100.825 103.235 100.754C103.661 99.0089 103.874 97.6321 103.874 96.6232H103.794C103.714 96.6232 103.554 97.2404 103.315 98.4748C103.221 98.4748 103.115 98.8309 102.995 99.5431C103.048 100.231 103.075 100.611 103.075 100.683C101.955 105.525 101.236 108.991 100.916 111.08H100.756C100.583 111.08 100.476 110.772 100.436 110.154V109.869C100.543 109.181 100.596 108.825 100.596 108.801C100.596 108.694 100.57 108.433 100.516 108.018C100.716 106.736 100.903 104.671 101.076 101.822C101.129 101.822 101.183 101.442 101.236 100.683C101.236 100.528 101.183 100.101 101.076 99.4006C101.183 98.9377 101.422 98.273 101.796 97.4066L101.716 96.6944L101.796 96.1959H101.636C101.636 96.3502 101.289 97.371 100.596 99.2582C100.596 100.303 100.33 101.3 99.7969 102.249C99.4904 103.911 99.2772 104.742 99.1573 104.742H99.0773C98.9841 104.742 98.9041 104.599 98.8375 104.315C99.064 104.315 99.3039 102.629 99.557 99.2582C100.41 96.1722 100.969 93.7508 101.236 91.9941C101.556 90.5461 101.955 89.098 102.435 87.6499V87.5075H102.355C102.222 87.5075 101.796 88.647 101.076 90.9259C100.583 92.3858 100.263 93.1929 100.117 93.3472C100.117 93.3947 100.09 93.4185 100.037 93.4185H99.8768V93.3472C100.037 91.7686 100.543 89.4422 101.396 86.368C101.649 85.6321 101.942 84.1128 102.275 81.8102C103.115 79.7212 103.728 77.7983 104.114 76.0416C104.367 75.8636 104.874 74.5105 105.633 71.9823C106.366 70.9497 106.899 69.8814 107.232 68.7776C107.512 68.3384 107.885 67.1989 108.351 65.3592C108.991 63.8636 109.311 62.4393 109.311 61.0862V60.8013C109.311 60.7301 109.204 60.6351 108.991 60.5165H108.591L107.312 60.7301L106.832 60.6589C105.633 60.6589 104.807 60.8725 104.354 61.2998H103.874C103.608 61.2998 102.888 61.371 101.716 61.5135C101.103 61.5135 100.65 61.2286 100.356 60.6589C99.6103 60.469 99.1573 60.374 98.9974 60.374C98.611 60.4215 98.3711 60.469 98.2779 60.5165C96.2792 60.1129 95.2398 59.8755 95.1599 59.8043C95.0533 59.8043 95 59.6619 95 59.377C95.3331 58.6648 95.9993 58.3087 96.9987 58.3087C97.4784 58.3087 97.7182 58.0714 97.7182 57.5966C97.7182 56.7895 98.4378 56.196 99.8768 55.8162C100.65 55.1515 101.156 54.8191 101.396 54.8191C101.636 54.7242 102.009 54.6292 102.515 54.5343C102.675 54.5343 102.755 54.558 102.755 54.6055C103.288 54.558 103.688 54.5343 103.954 54.5343H105.473C105.713 54.5343 106.619 54.1782 108.191 53.466C109.004 53.466 109.857 53.2998 110.75 52.9675C112.029 52.9675 115.866 52.469 122.262 51.472C123.302 51.472 124.288 51.2108 125.22 50.6886H126.34C129.164 50.4037 130.577 50.1901 130.577 50.0476ZM127.579 53.5194V53.5906H127.819C127.925 53.5906 127.978 53.5432 127.978 53.4482V53.377H127.739C127.632 53.3889 127.579 53.4363 127.579 53.5194ZM137.252 53.3058L137.332 53.4482C137.212 53.4482 137.106 53.472 137.013 53.5194V53.377C137.066 53.377 137.146 53.3533 137.252 53.3058Z" fill="black"/>
<path d="M128.078 62.0832C128.491 62.2256 128.785 62.2969 128.958 62.2969H129.278L129.757 62.2256C130.783 62.3325 131.716 62.4749 132.555 62.6529C133.621 63.0446 134.154 63.7805 134.154 64.8607C134.261 65.0862 134.661 65.3473 135.354 65.644C135.993 67.2227 136.313 68.5995 136.313 69.7746C136.206 70.9259 136.153 71.733 136.153 72.1959V73.7627L135.593 75.4719V76.8962C135.593 77.7152 134.527 79.9942 132.396 83.733C132.009 85.7152 131.423 87.187 130.637 88.1484C130.637 88.4927 129.97 90.0119 128.638 92.7063C128.638 93.4422 128.345 93.9882 127.759 94.3443L126.479 97.1217H126.399L126.24 97.0505C126.666 95.9466 127.012 94.8309 127.279 93.7033C127.599 93.003 127.759 92.3146 127.759 91.638H127.519C126.559 93.8339 125.733 95.6143 125.04 96.9793C123.481 99.5905 121.962 100.896 120.483 100.896C119.75 101.229 119.058 101.395 118.405 101.395C117.325 101.395 115.487 100.445 112.888 98.546C112.449 97.9407 112.182 97.4897 112.089 97.1929C112.142 96.7894 112.169 96.4808 112.169 96.2671C111.423 94.3324 111.05 93.003 111.05 92.279L111.289 90.7834V90.641C111.289 90.4748 111.263 90.2612 111.209 90.0001C111.263 89.9051 111.289 89.8339 111.289 89.7864H111.609C111.756 89.7864 111.889 90.2137 112.009 91.0683H112.089C112.195 91.0683 112.302 90.6648 112.409 89.8576C112.995 88.7775 113.288 87.6143 113.288 86.368C113.541 85.549 113.888 84.8606 114.327 84.3027C114.327 83.9111 115.473 80.9674 117.765 75.4719C117.765 74.9497 118.005 73.9289 118.485 72.4096C118.485 71.7805 118.964 70.9022 119.924 69.7746C120.204 68.4927 120.577 67.8517 121.043 67.8517C121.896 67.2939 122.322 66.7004 122.322 66.0713L122.242 65.4304C122.629 64.374 123.775 63.4482 125.68 62.6529C126.719 62.2731 127.519 62.0832 128.078 62.0832ZM119.204 91.7805L119.044 91.9941V92.1366C119.111 92.6113 119.377 92.8487 119.844 92.8487H120.084C120.204 92.7419 120.63 92.0297 121.363 90.7122C121.869 90.5223 122.429 89.4303 123.042 87.4363C124.028 86.3087 125.014 84.1247 126 80.8844C126.426 78.7479 126.799 77.6796 127.119 77.6796H127.199L127.599 78.2493C127.932 76.9081 128.651 75.1277 129.757 72.9081C130.237 71.733 130.477 70.3799 130.477 68.8488C130.583 68.8488 130.637 68.4927 130.637 67.7805V67.2108C130.357 65.9764 129.851 65.3592 129.118 65.3592H128.718C127.839 65.8696 126.959 67.4601 126.08 70.1307C125.827 70.3087 125.507 71.2108 125.12 72.8369C124.761 73.5372 124.361 74.5817 123.921 75.9704C123.282 76.2434 122.962 76.7657 122.962 77.5372C122.002 79.187 121.523 80.6588 121.523 81.9526C120.67 83.3532 120.244 84.3977 120.244 85.0861C120.244 85.8695 119.897 87.7211 119.204 90.641V91.7805ZM131.436 85.0149L131.356 85.1573V85.2998H131.596V85.1573C131.596 85.0624 131.543 85.0149 131.436 85.0149ZM130.956 86.368C130.85 86.6766 130.797 86.8903 130.797 87.009H131.036L131.196 86.5105V86.368H130.956Z" fill="black"/>
<path d="M153.502 61.5491C155.274 61.8814 156.207 62.0476 156.3 62.0476C156.766 62.0001 157.059 61.9764 157.179 61.9764C158.179 62.1663 159.058 62.285 159.818 62.3325C162.03 62.1426 163.495 61.9526 164.215 61.7627C164.788 61.9052 165.214 61.9764 165.494 61.9764H166.453C166.507 61.9764 166.533 61.9526 166.533 61.9052C167.519 62.0951 168.292 62.2138 168.852 62.2613C169.918 62.19 170.451 62.1188 170.451 62.0476C171.97 62.285 172.876 62.4037 173.169 62.4037L174.288 62.3325C175.674 62.6648 176.367 62.8785 176.367 62.9734V63.0446C176.247 63.0446 175.474 63.1633 174.048 63.4007C173.862 63.4007 173.409 63.3532 172.689 63.2583C171.956 63.3058 171.503 63.3295 171.33 63.3295C170.544 63.2345 169.958 63.1871 169.571 63.1871H168.852C168.452 63.1871 168.239 63.2583 168.212 63.4007C168.212 63.5075 169.198 63.6025 171.17 63.6856C171.757 63.923 172.183 64.0417 172.449 64.0417L173.569 63.9704C174.381 64.1129 175.154 64.1841 175.887 64.1841H176.367C176.673 64.1841 177.526 64.1129 178.925 63.9704C179.245 63.9704 179.831 64.1604 180.684 64.5402C181.27 64.5758 181.563 64.647 181.563 64.7538C181.563 64.8963 181.297 64.9675 180.764 64.9675C180.151 64.8725 179.725 64.825 179.485 64.825H179.165C178.432 64.825 177.659 64.8963 176.847 65.0387C175.021 65.0031 173.742 64.9081 173.009 64.7538H172.289C171.277 64.9437 170.77 65.1099 170.77 65.2523C170.89 65.4897 171.29 65.6084 171.97 65.6084H173.329C174.288 65.6084 174.768 65.6796 174.768 65.8221L173.808 66.1069C173.249 66.0595 172.796 66.0357 172.449 66.0357C171.477 66.2256 170.81 66.3206 170.451 66.3206C170.144 66.2494 169.531 66.1544 168.612 66.0357H168.532C168.026 66.0357 167.413 66.0595 166.693 66.1069C165.627 65.8696 164.801 65.7509 164.215 65.7509H164.135C163.855 65.7509 163.615 65.7746 163.415 65.8221C163.135 65.7746 162.976 65.7509 162.936 65.7509C158.565 65.917 156.38 66.2019 156.38 66.6055C156.06 67.0684 155.82 68.0417 155.66 69.5253C155.514 69.7627 155.434 70.3562 155.421 71.3057V71.9467C155.834 72.0891 156.1 72.1603 156.22 72.1603C156.62 72.1603 157.313 72.0416 158.299 71.8043L159.658 71.9467C161.95 71.8043 163.362 71.733 163.895 71.733C164.215 71.733 164.748 71.8043 165.494 71.9467V72.0179C165.494 72.1366 165.227 72.2553 164.694 72.374V72.4452C165.014 72.6826 165.334 72.8013 165.654 72.8013C166.014 72.8013 166.786 72.7063 167.972 72.5164C171.677 72.9437 174.022 73.1574 175.008 73.1574H175.248L175.647 73.2286V73.4422L175.567 73.5847C173.729 73.5372 172.396 73.5135 171.57 73.5135H170.211C169.678 73.5135 168.505 73.6084 166.693 73.7983H164.375V74.012H165.414L165.894 73.9408C166.986 74.1781 167.599 74.2968 167.732 74.2968C167.772 74.2968 167.932 74.2731 168.212 74.2256C168.812 74.4155 169.238 74.5105 169.491 74.5105C169.904 74.5105 170.651 74.4867 171.73 74.4393L171.81 74.5817C171.61 74.7241 171.237 74.7954 170.691 74.7954H170.131C169.411 75.0446 168.159 75.2108 166.373 75.2939C165.441 75.1989 164.481 75.1514 163.495 75.1514C162.269 75.1514 160.537 75.5075 158.299 76.2197C157.632 76.2197 156.806 76.4096 155.82 76.7894C155.234 76.7894 154.941 76.9318 154.941 77.2167C154.741 78.9378 154.368 80.5758 153.822 82.1306V82.2731C153.822 82.7241 153.902 83.2464 154.061 83.8398C153.902 84.6707 153.822 85.193 153.822 85.4066V85.9051L153.902 86.3324C153.142 88.9081 152.689 90.2375 152.542 90.3205L152.462 90.1781V90.1069L152.862 88.3265C152.809 88.3265 152.782 88.3027 152.782 88.2553H152.862C152.862 88.2078 152.836 88.184 152.782 88.184C152.836 87.4956 152.862 87.1158 152.862 87.0446C152.862 86.19 152.782 85.7627 152.622 85.7627C152.476 85.7627 152.236 86.5223 151.903 88.0416C151.903 88.4452 151.636 89.917 151.103 92.457C151.103 92.9318 150.517 94.7122 149.344 97.7983C149.185 98.9377 148.998 99.7923 148.785 100.362H148.705C148.625 100.362 148.545 100.22 148.465 99.9348L148.545 99.2226V97.6558L149.344 94.6647C149.611 93.6796 149.744 92.9437 149.744 92.457H149.664C149.491 92.457 149.305 93.1455 149.105 94.5223C148.971 94.5817 148.572 95.6262 147.905 97.6558C147.253 98.8072 146.799 100.54 146.546 102.855C145.32 105.763 144.708 107.804 144.708 108.979C144.534 109.407 144.401 109.62 144.308 109.62C144.201 109.62 144.148 109.573 144.148 109.478V109.407C144.481 105.276 144.907 102.475 145.427 101.003C146.013 99.3532 146.44 97.5965 146.706 95.733C147.186 94.546 147.612 92.9793 147.985 91.0327V90.8903H147.905C147.639 91.0564 147.186 92.2909 146.546 94.5935C145.96 95.733 145.587 96.8012 145.427 97.7983C145.214 98.0357 145.081 98.1544 145.027 98.1544C144.894 98.1544 144.814 97.9407 144.787 97.5134C144.787 96.3027 145.24 94.641 146.147 92.5283C146.147 92.006 146.306 91.1277 146.626 89.8932C146.626 89.2879 146.76 88.5757 147.026 87.7567V87.4719H146.946L146.147 88.8962L145.827 89.1099C145.72 89.1099 145.667 89.0624 145.667 88.9674C145.667 88.5876 145.96 87.187 146.546 84.7657C146.546 82.736 146.893 80.9318 147.586 79.3532V78.641C147.586 78.5461 147.532 78.4986 147.426 78.4986H146.386L145.827 78.641C145.48 78.5461 145.267 78.4986 145.187 78.4986C144.428 78.641 143.788 78.7123 143.268 78.7123C141.883 78.5936 141.19 78.4511 141.19 78.285V78.1425C141.816 77.6796 142.163 77.371 142.229 77.2167L141.909 76.4333C142.109 76.3028 143.388 75.9229 145.747 75.2939C146.253 75.0209 146.573 74.7835 146.706 74.5817V74.4393L146.626 73.9408C147.013 73.7746 147.679 73.5609 148.625 73.2998C148.785 73.0268 148.998 72.1485 149.265 70.6648C149.531 70.2375 149.718 69.4304 149.824 68.2434C149.771 67.6737 149.664 67.3888 149.504 67.3888H148.305C148.159 67.3888 147.786 67.2939 147.186 67.104H145.267C144.588 67.104 144.215 66.8903 144.148 66.463C144.215 66.463 144.348 66.3443 144.548 66.1069V65.8933C143.868 65.4185 143.042 65.1811 142.069 65.1811C141.963 65.0624 141.909 64.9912 141.909 64.9675V64.8963C142.296 64.374 143.228 64.1129 144.708 64.1129H145.187C145.574 64.2078 145.787 64.2553 145.827 64.2553H145.907C146.093 64.2553 146.653 63.8518 147.586 63.0446C148.079 62.9497 148.372 62.9022 148.465 62.9022C149.198 62.9497 149.651 62.9734 149.824 62.9734C149.917 62.7835 150.664 62.4512 152.063 61.9764C152.489 61.6915 152.969 61.5491 153.502 61.5491Z" fill="black"/>
<path d="M188.439 60.5165C189.025 60.5877 189.318 60.7064 189.318 60.8725C189.158 61.0506 188.279 61.2642 186.68 61.5135C186.147 61.7865 185.881 61.9526 185.881 62.012L186.04 62.0832C186.494 62.0832 187.293 62.0595 188.439 62.012C189.878 62.1544 190.598 62.3206 190.598 62.5105V62.5817C188.252 62.9141 186.174 63.2702 184.362 63.65V63.9348L184.921 64.0061H185.881C185.987 64.0179 186.04 64.0654 186.04 64.1485V64.2197C186.04 64.3859 184.788 64.7657 182.283 65.3592C182.136 65.5609 181.523 65.7983 180.444 66.0713C180.418 66.3206 179.991 66.6292 179.165 66.9971C178.965 66.9971 178.832 67.6618 178.765 68.9912C178.232 69.6796 177.966 70.1069 177.966 70.2731V70.7004C177.966 72.6351 177.619 74.8666 176.926 77.3948L175.807 83.3057V85.0861L175.008 88.4333C175.008 89.2879 174.741 90.4036 174.208 91.7805V92.2078H174.528C174.808 92.0653 176.274 91.9229 178.925 91.7805C179.778 91.4956 180.444 91.3532 180.924 91.3532H181.324C181.404 91.3532 181.483 91.4244 181.563 91.5668V91.7093C180.577 92.1484 179.964 92.457 179.725 92.6351L179.405 92.9912V93.5609C179.405 93.8932 178.925 94.1306 177.966 94.2731C174.128 95.187 172.21 96.0653 172.21 96.9081C171.717 97.5371 171.343 98.7953 171.09 100.683C170.757 100.967 170.491 101.11 170.291 101.11C170.184 100.979 170.078 100.623 169.971 100.042H169.731C169.238 101.739 168.865 102.855 168.612 103.389L168.292 103.602H168.212C167.959 103.602 167.772 103.128 167.653 102.178C167.759 101.074 167.812 100.386 167.812 100.113V99.8992C167.426 99.9941 167.213 100.042 167.173 100.042H167.093C166.813 99.9822 166.653 99.2701 166.613 97.9051L166.213 97.8339H166.054C166 97.8339 165.601 97.9051 164.854 98.0475C164.535 97.8576 164.295 97.7627 164.135 97.7627H163.975C161.19 98.3324 159.485 98.6173 158.858 98.6173C158.525 98.6173 158.312 98.4036 158.219 97.9763C160.204 97.0149 161.616 96.4214 162.456 96.1959C162.456 95.3413 162.776 94.914 163.415 94.914C165.974 94.0475 167.253 93.2879 167.253 92.6351C167.946 90.1188 168.345 88.2434 168.452 87.009C168.772 85.9882 169.465 82.9971 170.531 78.0357V77.9645C170.531 77.8933 170.344 77.5134 169.971 76.825V76.7538C171.037 73.5372 171.57 71.5194 171.57 70.7004C171.357 69.6084 170.877 69.0624 170.131 69.0624H169.731C169.545 69.0624 168.718 69.371 167.253 69.9882C166.96 70.0357 166.72 70.0595 166.533 70.0595C166.32 69.8458 166.213 69.7271 166.213 69.7034V69.6322C166.213 69.4897 166.56 68.9912 167.253 68.1366V67.8517C167.146 67.7687 167.04 67.4126 166.933 66.7835C166.933 66.5698 167.546 66.2375 168.772 65.7865C169.012 65.7865 169.465 65.5016 170.131 64.9319C171.024 64.5164 172.996 63.7331 176.047 62.5817C176.953 61.917 177.833 61.5847 178.685 61.5847C179.805 61.1099 180.604 60.8725 181.084 60.8725H181.164V60.9437C181.164 61.0268 180.95 61.2405 180.524 61.5847V61.7271H180.764C181.43 61.5372 183.002 61.2998 185.481 61.015C185.534 60.9675 186.52 60.8013 188.439 60.5165Z" fill="black"/>
<path d="M199.692 60.6055C199.971 60.6055 200.131 60.8429 200.171 61.3176C199.851 61.7093 199.692 62.5164 199.692 63.739V63.8814C199.692 64.463 198.759 65.1515 196.893 65.9467C196.694 66.0891 196.4 66.7538 196.014 67.9408C195.747 68.3087 195.135 68.6648 194.175 69.009C193.882 69.4244 192.63 70.6351 190.418 72.6411C189.352 73.7924 188.819 74.4571 188.819 74.6351L188.899 74.9912C188.779 74.9912 188.699 75.1099 188.659 75.3473L189.059 75.4897C190.071 75.4897 191.057 75.2998 192.017 74.92H192.176C192.35 74.92 192.723 74.9675 193.296 75.0624C193.536 75.0624 195.428 74.6114 198.972 73.7093C199.825 73.6618 200.331 73.6381 200.491 73.6381C200.598 73.6856 200.678 73.7093 200.731 73.7093V74.2078H201.211C201.69 74.0298 202.996 73.8636 205.128 73.7093L209.925 72.7835C210.018 72.831 210.125 72.8547 210.245 72.8547V72.9971C210.245 73.4719 208.299 74.1366 204.408 74.9912V75.1336H203.849C203.742 75.1455 203.689 75.193 203.689 75.2761L203.849 75.3473H204.169C204.742 75.1811 205.861 75.0387 207.526 74.92C208.486 74.9675 208.966 75.0624 208.966 75.2048C208.646 75.5135 207.553 75.8221 205.688 76.1307C204.968 76.4749 203.955 76.831 202.65 77.1989C202.65 77.2226 202.596 77.2939 202.49 77.4126C202.49 77.5431 202.756 77.6618 203.289 77.7686V77.9823C202.903 78.2078 202.157 78.4927 201.051 78.8369C200.651 79.3117 200.305 79.9051 200.011 80.6173C199.585 81.0209 199.265 81.5906 199.052 82.3265C198.639 82.825 198.346 83.7746 198.173 85.1752C197.306 85.9111 196.587 87.2167 196.014 89.0921C194.482 91.644 193.576 94.2552 193.296 96.9259C192.23 99.3947 191.697 101.84 191.697 104.261C191.697 104.7 191.324 107.122 190.578 111.525C190.578 111.703 190.657 112.273 190.817 113.234L190.737 113.591H190.498C190.351 113.163 190.244 111.074 190.178 107.323C190.124 107.323 190.098 107.3 190.098 107.252C190.151 107.169 190.178 107.074 190.178 106.967V106.469L190.098 106.113H189.938C189.938 106.457 189.671 108.237 189.138 111.454C189.138 112.783 188.899 114.564 188.419 116.795V119.858C188.419 119.953 188.366 120 188.259 120C188.152 120 187.966 119.074 187.699 117.223C187.753 116.558 187.779 115.988 187.779 115.513V114.303C187.886 113.234 187.939 112.665 187.939 112.593V112.237L187.859 111.81C187.913 111.727 188.046 111.039 188.259 109.745C188.206 108 188.179 106.528 188.179 105.329V104.76C188.179 104.665 188.126 104.617 188.019 104.617C187.859 105.911 187.54 107.24 187.06 108.605C187.007 110.694 186.9 111.881 186.74 112.166H186.58C186.54 111.881 186.487 111.739 186.42 111.739L186.5 111.596V111.169C186.5 110.552 186.527 109.911 186.58 109.246C186.474 108.605 186.42 108.059 186.42 107.608C186.447 105.958 186.74 103.988 187.3 101.697C187.673 100.142 187.859 99.0268 187.859 98.3502H187.699C187.22 99.6084 186.927 100.677 186.82 101.555C186.38 103.205 186.114 104.059 186.021 104.119C185.861 103.881 185.754 103.525 185.701 103.05C185.701 101.46 186.18 98.9911 187.14 95.644C187.779 94.4333 188.232 93.009 188.499 91.371C189.032 90.4926 189.298 89.8754 189.298 89.5194V89.0921L188.899 89.0208C188.019 89.2226 186.74 90.0297 185.061 91.4422C185.061 91.6915 183.622 92.1188 180.744 92.7241L180.344 92.7953C178.425 92.7953 176.906 91.4422 175.787 88.736C175.787 88.1306 175.627 86.5401 175.308 83.9645V83.6084C175.308 83.0861 176.294 81.7093 178.266 79.4778C178.266 79.1455 179.278 78.1485 181.304 76.4867C183.222 74.1129 185.141 72.0238 187.06 70.2197C188.992 67.371 190.085 65.8518 190.338 65.6618C190.631 65.6618 191.057 65.2108 191.617 64.3087C192.15 64.0357 193.003 63.1099 194.175 61.5313C194.548 61.2464 195.001 61.104 195.534 61.104C195.534 61.2583 195.827 61.5194 196.414 61.8874C198.306 61.0328 199.372 60.6055 199.612 60.6055H199.692ZM181.623 86.3146V86.5995C181.623 86.6588 181.757 86.7775 182.023 86.9556H182.423C182.729 86.9556 183.369 86.3858 184.342 85.2464C185.714 84.0119 187.047 83.1811 188.339 82.7538C189.072 82.3384 189.498 82.006 189.618 81.7568C189.618 81.2345 189.005 80.9734 187.779 80.9734C187.46 80.6173 187.3 80.3562 187.3 80.19C187.353 79.6203 187.38 79.193 187.38 78.9081C187.206 78.8131 187.047 78.7657 186.9 78.7657H186.82C186.527 78.7657 186.047 79.2404 185.381 80.19C184.661 81.0565 183.809 82.4808 182.823 84.463C182.023 85.2226 181.623 85.8398 181.623 86.3146Z" fill="black"/>
<path d="M230.551 57.3473H230.631V57.4185C230.498 57.6084 230.365 58.0832 230.232 58.8429C229.272 60.0773 228.793 60.9319 228.793 61.4067V61.6203H228.873C230.112 60.6708 230.831 60.196 231.031 60.196C230.738 60.5402 230.498 61.1099 230.312 61.9052C229.499 62.5817 228.939 63.3888 228.633 64.3265C228.193 64.8725 227.926 65.2998 227.833 65.6084L227.993 65.6796C228.14 65.6796 228.433 65.4185 228.873 64.8963C229.206 64.8963 229.605 64.4927 230.072 63.6856L230.232 63.6144H230.312V63.828C228.02 66.6411 226.874 68.7538 226.874 70.1663C226.128 71.1871 225.755 71.8755 225.755 72.2316L225.914 73.5847L224.315 77.8577C224.315 78.368 224.156 78.8191 223.836 79.2108C223.836 79.9467 223.276 81.9407 222.157 85.193C221.517 87.8161 221.198 89.4541 221.198 90.1069C220.931 91.6499 220.665 92.9318 220.398 93.9526C219.705 95.8873 219.359 97.1217 219.359 97.6558L219.519 97.8695L218.959 98.6529H218.879C218.879 98.5816 218.772 98.4392 218.559 98.2256C218.506 97.9882 218.453 97.8695 218.399 97.8695C218.932 95.3176 219.199 93.9644 219.199 93.8101V93.5253H219.039C219.039 93.7033 218.666 94.7478 217.92 96.6588C217.08 100.789 216.201 103.662 215.281 105.276C214.642 106.95 214.322 107.875 214.322 108.053H214.082L214.002 107.769L214.322 105.418C215.175 102.961 215.601 101.062 215.601 99.7211H215.521C215.308 99.7211 214.775 101.027 213.922 103.638L213.443 106.131C212.923 106.819 212.443 107.982 212.004 109.62C211.67 109.881 211.324 110.973 210.964 112.896H210.884C210.724 112.872 210.644 112.683 210.644 112.326V112.184C210.644 112.053 210.724 111.602 210.884 110.831C210.884 110.582 210.858 110.178 210.804 109.62C211.391 107.484 211.684 105.988 211.684 105.134C213.016 102.451 213.682 100.315 213.682 98.7241H213.602C213.256 99.0446 212.963 99.6855 212.723 100.647C211.644 102.166 211.057 103.638 210.964 105.062C210.964 105.288 210.778 105.525 210.405 105.775H210.245L210.165 105.49L210.884 102.285C211.137 100.635 211.59 99.0446 212.243 97.5134C212.723 96.6944 213.229 95.365 213.762 93.5253C214.135 93.0386 214.322 92.6826 214.322 92.457V92.3858H214.082C214.082 92.6232 213.896 92.9081 213.523 93.2404H213.443L213.363 92.9555C213.429 92.2434 214.095 90.8428 215.361 88.7538C215.361 88.5045 215.894 87.1751 216.96 84.7657C216.96 84.4927 217.253 83.5431 217.84 81.917V81.4897H217.6C217.054 81.4897 216.307 82.2493 215.361 83.7686C214.522 84.2553 213.829 85.1811 213.283 86.5461C212.656 87.1158 212.177 87.4007 211.844 87.4007C211.151 87.4007 210.538 87.0921 210.005 86.4749L209.605 86.4036H208.966C208.219 85.7271 207.846 84.2315 207.846 81.917L207.686 81.8458H207.526C206.647 82.7835 205.928 84.4689 205.368 86.9021C204.568 88.457 203.876 90.1662 203.289 92.0297C203.063 92.457 202.823 92.7419 202.57 92.8843H202.49V92.8131C202.49 92.3383 202.516 91.6262 202.57 90.6766H202.49C202.29 90.9615 201.757 92.2909 200.891 94.6647L200.171 97.5134C199.811 98.5223 199.492 99.8042 199.212 101.359C198.146 103.78 197.32 106.131 196.734 108.41C196.6 109.359 196.467 109.834 196.334 109.834C196.227 109.834 196.174 109.786 196.174 109.691V106.558C196.707 103.745 196.973 102.297 196.973 102.214C197.4 101.003 197.613 100.101 197.613 99.5075V99.4362H197.533C197.32 99.6143 196.707 101.086 195.694 103.852C195.521 104.896 195.361 105.418 195.215 105.418C195.108 105.418 195.055 105.371 195.055 105.276V105.205C195.215 103.531 195.428 102.273 195.694 101.43C195.827 101.43 195.934 100.671 196.014 99.1514C196.44 98.1425 196.654 97.4303 196.654 97.0149H196.414C195.774 98.5935 195.321 99.6143 195.055 100.077H194.895C194.788 100.077 194.735 100.03 194.735 99.9348C194.935 99.4837 195.148 98.4155 195.374 96.73C195.907 94.7953 196.44 93.1099 196.973 91.6737H196.734C196.081 93.098 195.654 93.8101 195.454 93.8101L195.294 93.5965V93.4541C195.881 91.5668 196.787 89.2167 198.013 86.4036C198.013 86.2968 198.546 85.0624 199.612 82.7004C199.612 82.368 200.065 81.3947 200.971 79.7805V79.5669C200.971 78.8547 200.917 78.4986 200.811 78.4986C202.263 74.8547 203.169 72.2909 203.529 70.8072C204.275 69.9408 204.648 68.92 204.648 67.7449C205.235 66.7242 205.634 65.6084 205.848 64.3977C206.234 63.5906 206.953 63.1871 208.006 63.1871C208.273 63.1515 208.832 62.4868 209.685 61.193C210.098 60.8132 210.471 60.6233 210.804 60.6233C211.257 60.6233 211.657 61.1218 212.004 62.1188C211.684 62.9734 211.524 63.4719 211.524 63.6144V63.7568C211.524 63.8399 211.79 64.2672 212.323 65.0387C212.43 65.3948 212.483 65.6084 212.483 65.6796C211.79 66.9141 211.444 67.7212 211.444 68.101C211.55 69.0268 211.604 69.7152 211.604 70.1663V72.6589C211.604 73.371 211.63 74.3443 211.684 75.5787C211.524 75.9229 211.444 76.3977 211.444 77.0031C211.87 77.1811 212.217 77.7508 212.483 78.7123C212.483 78.9971 212.67 79.1396 213.043 79.1396C213.749 78.7953 214.282 78.1544 214.642 77.2167C215.108 76.552 215.774 75.7924 216.64 74.9378C216.96 74.6054 217.12 74.2731 217.12 73.9408C217.014 73.2998 216.96 72.8962 216.96 72.7301C216.96 72.4689 217.627 71.5906 218.959 70.0951C219.412 68.5402 220.132 67.4719 221.118 66.8903C221.531 66.0476 222.144 65.1218 222.956 64.1129C222.956 63.4007 223.703 62.3325 225.195 60.9081C225.834 59.8162 226.394 59.1277 226.874 58.8429H227.034V58.9853C227.034 59.1159 226.634 59.7805 225.834 60.9794C225.834 61.2405 225.515 61.9764 224.875 63.1871C224.715 63.6025 224.635 63.9111 224.635 64.1129H224.795C225.355 63.0802 226.714 61.5135 228.873 59.4126C229.725 58.19 230.285 57.5016 230.551 57.3473ZM197.453 89.9645C197.08 90.7004 196.893 91.1989 196.893 91.46H197.133C197.453 90.7478 197.613 90.2731 197.613 90.0357L197.453 89.9645ZM196.014 101.573L195.854 102.071H195.934C196.041 102.071 196.121 101.905 196.174 101.573H196.014ZM210.804 103.78L210.724 104.137V104.635C210.884 104.588 210.964 104.445 210.964 104.208V103.78H210.804ZM214.642 105.418C214.589 105.763 214.562 105.953 214.562 105.988H214.722L214.882 105.49V105.418H214.642Z" fill="black"/>
<path d="M235.688 57.6322C236.541 57.6322 236.967 57.7746 236.967 58.0595C237.007 59.3295 237.247 60.0417 237.687 60.196H237.847L239.046 59.8399C239.392 59.8399 239.632 60.2197 239.765 60.9794L239.685 61.1218C239.685 62.1307 240.138 62.8191 241.045 63.1871C241.204 63.4957 241.284 63.7805 241.284 64.0417C240.911 64.5046 240.725 64.9319 240.725 65.3236C240.765 66.7004 240.818 67.3888 240.885 67.3888C240.725 68.279 240.645 68.9912 240.645 69.5253C240.698 72.8725 240.725 74.8191 240.725 75.3651C240.725 75.4007 240.751 75.5431 240.805 75.7924C240.698 75.9823 240.645 76.2434 240.645 76.5758V76.647C240.645 76.8132 240.778 77.0505 241.045 77.3591V77.4304L240.885 78.0713C240.885 78.4037 240.911 79.0921 240.965 80.1366L241.124 80.2078H241.284C243.443 79.2108 245.308 78.7123 246.881 78.7123H247.84C247.947 78.7241 248 78.7716 248 78.8547C247.893 79.0209 247.147 79.5194 245.761 80.3502L245.442 80.7775V81.0624C245.548 81.2523 245.708 81.3473 245.921 81.3473V81.4185C245.921 81.9407 244.482 82.6766 241.604 83.6262C241.418 83.9704 241.258 85.1336 241.124 87.1158C241.178 87.9348 241.204 88.4096 241.204 88.5401L241.124 89.1811C241.338 89.8932 241.444 90.4392 241.444 90.8191V91.3176H241.284C240.858 90.9852 240.645 90.6529 240.645 90.3205H240.485C240.378 90.8428 240.325 91.1277 240.325 91.1751C240.325 92.0772 240.432 93.1929 240.645 94.5223C240.592 95.0208 240.565 95.3057 240.565 95.3769C240.671 95.8279 240.751 96.3027 240.805 96.8012L240.725 97.1573C240.618 98.7478 240.565 99.6974 240.565 100.006V100.362C240.565 100.623 240.645 101.62 240.805 103.353C240.765 103.733 240.685 103.923 240.565 103.923H240.485C240.112 103.923 239.765 102.261 239.446 98.9377L239.286 98.8665H239.206V98.9377C239.206 99.3294 239.232 99.638 239.286 99.8635C239.179 100.599 239.126 101.264 239.126 101.858H239.206C239.099 102.107 239.046 102.605 239.046 103.353V107.056C239.046 107.163 238.966 107.472 238.806 107.982C238.806 108.125 238.913 108.671 239.126 109.62C239.086 110.047 239.006 110.261 238.886 110.261H238.726C238.3 109.407 237.98 107.602 237.767 104.849C237.82 104.588 237.847 104.374 237.847 104.208V103.78C237.847 101.169 237.74 99.4837 237.527 98.7241H237.367C237.26 99.0564 237.207 99.3413 237.207 99.5787V100.861C237.154 101.573 236.994 101.929 236.727 101.929H236.647C236.541 101.929 236.488 101.881 236.488 101.786C236.221 99.1276 236.088 97.5846 236.088 97.1573C236.248 96.3383 236.328 95.8398 236.328 95.6618C236.328 95.3413 236.248 94.8665 236.088 94.2374H235.928C235.821 94.546 235.768 94.7597 235.768 94.8784C235.768 95.1039 235.795 95.3413 235.848 95.5906C235.741 95.9704 235.688 96.4214 235.688 96.9437V98.2968C235.688 98.546 235.608 98.9259 235.448 99.4362H235.288C235.182 99.2582 234.995 96.5995 234.729 91.46C234.675 91.46 234.649 91.3413 234.649 91.1039C234.702 90.0238 234.729 89.2167 234.729 88.6826C234.729 88.6113 234.675 88.3977 234.569 88.0416C234.622 87.733 234.649 87.4244 234.649 87.1158L234.489 87.0446H234.009C233.196 87.4125 232.157 87.7686 230.891 88.1128C230.451 88.1128 229.652 90.0832 228.493 94.0238C228.08 94.9377 227.627 96.2434 227.134 97.9407C227.027 97.9407 226.92 98.0831 226.814 98.368H226.574C226.574 98.3324 226.547 98.19 226.494 97.9407C226.494 97.5609 226.787 96.1603 227.373 93.7389H227.134C226.707 94.819 225.961 97.0505 224.895 100.433C224.096 102.38 223.403 104.231 222.816 105.988C222.537 106.415 222.35 106.629 222.257 106.629L222.097 106.202C222.204 105.454 222.79 102.795 223.856 98.2256H223.616C222.976 99.4719 222.55 100.421 222.337 101.074H222.097L221.937 100.576C222.523 98.095 223.003 96.2909 223.376 95.1633V94.736H223.296C222.856 95.5431 222.563 95.9466 222.417 95.9466H222.337L222.257 95.5906C222.737 93.4303 223.19 91.7449 223.616 90.5342V90.463H223.536C223.003 90.463 221.644 90.7953 219.459 91.46C219.245 91.3888 219.139 91.3176 219.139 91.2464V91.1751C219.499 90.7716 220.112 90.4392 220.978 90.1781V90.0357H220.498C220.005 90.0357 218.326 90.3205 215.461 90.8903C215.141 91.1277 214.688 91.2464 214.102 91.2464H214.022V91.0327C214.728 90.4986 216.301 89.8102 218.739 88.9674C219.112 88.7182 219.912 88.3621 221.138 87.8992L221.218 87.7567V87.6855C220.818 87.6855 220.605 87.6143 220.578 87.4719V87.4007C221.484 86.8547 223.19 86.0476 225.695 84.9793C225.934 84.4452 226.228 83.4719 226.574 82.0594C227.427 80.552 227.853 79.6025 227.853 79.2108V78.3562C227.853 77.9289 228.306 76.8132 229.212 75.009C229.585 73.098 230.438 70.1307 231.771 66.1069C232.13 65.3117 232.637 63.65 233.29 61.1218C234.062 58.7954 234.862 57.6322 235.688 57.6322ZM232.25 82.2731V82.7716H232.97C233.33 82.7716 233.969 82.463 234.889 81.8458V79.1396C234.835 77.7508 234.675 77.0149 234.409 76.9318H234.249C233.556 77.6203 233.21 78.5936 233.21 79.8517C232.57 81.193 232.25 82.0001 232.25 82.2731Z" fill="black"/>
<path d="M216.497 18C216.586 18.0856 216.657 18.2569 216.71 18.5139C216.141 19.2224 215.856 19.7051 215.856 19.962V20.1956C216.07 20.2268 216.177 20.2735 216.177 20.3358C216.177 20.7951 215.696 21.8696 214.735 23.5591C214.379 24.5635 214.201 25.1864 214.201 25.4277V25.8482C214.201 25.8793 214.219 25.8949 214.255 25.8949C214.246 26.0662 213.943 26.6268 213.347 27.5766C213.276 27.7012 213.24 27.8725 213.24 28.0905V28.4175C213.24 28.4409 213.276 28.5654 213.347 28.7912L213.187 29.2584V29.492H213.614C214.7 28.8691 215.643 28.5265 216.444 28.4642V28.5577C216.444 28.5888 216.283 28.7601 215.963 29.0715V29.165H216.016C217.636 28.729 218.846 28.4331 219.647 28.2774C219.834 28.2462 220.047 28.2307 220.287 28.2307H220.394V28.3241C220.314 28.4798 219.513 28.7445 217.992 29.1182C216.933 29.6165 216.185 29.8657 215.749 29.8657C215.002 30.5275 214.628 30.9324 214.628 31.0803H215.002C215.358 31.0803 215.785 31.1737 216.283 31.3606C216.283 31.4929 215.892 31.6798 215.109 31.9212V32.0146H215.963L216.23 32.0613V32.2015C215.5 32.7932 214.966 33.0891 214.628 33.0891C214.201 33.0891 213.454 33.5095 212.386 34.3504C211.817 34.5917 211.532 34.9032 211.532 35.2847C210.82 35.6584 210.464 36.2345 210.464 37.0131C209.343 38.3757 208.649 39.5903 208.382 40.6569L208.222 41.0307H208.168L208.062 40.9839C208.133 40.6725 208.204 40.1431 208.275 39.3956H208.115C208.115 39.6993 207.599 40.5557 206.567 41.965C206.326 42.5878 205.757 43.8336 204.858 45.7022C204.591 46.7455 204.378 47.3372 204.218 47.4774C204.146 47.4774 204.111 47.4462 204.111 47.3839C204.289 47.0959 204.52 46.3328 204.805 45.0949C205.294 44.3085 205.686 43.3119 205.979 42.1051C206.371 41.3732 206.567 40.8282 206.567 40.4701V40.4234H206.407L202.776 47.5241C202.225 49.1513 201.886 49.9766 201.762 50L201.708 49.9066C201.949 49.2993 202.269 48.3182 202.669 46.9635C203.381 45.1883 203.737 44.0827 203.737 43.6467V43.1796C203.737 42.9226 204.093 42.2998 204.805 41.3109L204.858 40.9839L204.752 40.9372C204.591 41.1241 204.378 41.5445 204.111 42.1985C203.613 42.7436 203.239 43.491 202.99 44.4409L202.776 44.581L202.723 44.4876C203.079 43.6 203.488 42.2764 203.951 40.5168C204.476 39.9406 204.867 39.0375 205.125 37.8073C205.944 36.7484 206.353 36.0788 206.353 35.7985H206.193C204.173 36.6394 203.034 37.0599 202.776 37.0599C202.367 37.1533 201.94 37.2 201.495 37.2H201.281C200.925 36.9119 200.747 36.6316 200.747 36.3591C200.783 36.0866 200.801 35.853 200.801 35.6584C200.801 35.565 200.552 35.129 200.053 34.3504L200 34.0701C200.676 33.7509 201.139 33.3616 201.388 32.9022V32.8555C201.388 32.2949 201.352 32.0146 201.281 32.0146C201.281 31.6175 201.922 30.9168 203.203 29.9124C204.182 28.9158 204.894 28.0749 205.339 27.3898C206.905 25.6535 207.688 24.7036 207.688 24.5401C207.688 24.2832 207.99 23.8783 208.595 23.3255C208.951 22.5314 209.379 22.0331 209.877 21.8307C210.5 20.7173 211.407 19.8764 212.6 19.308C213.356 19.2457 214.05 19.0122 214.682 18.6073C215.144 18.6073 215.625 18.4204 216.123 18.0467L216.497 18ZM205.979 32.435V32.5752H206.086C207.617 32.2015 208.382 31.9523 208.382 31.8277C208.96 31.018 209.476 29.9903 209.93 28.7445C210.402 28.4019 210.722 27.8569 210.891 27.1095C211.176 26.7202 211.336 26.362 211.372 26.035V25.708H211.211C210.793 26.144 210.526 26.362 210.411 26.362C210.135 26.362 209.779 27.0161 209.343 28.3241C208.533 29.056 208.088 29.71 208.008 30.2861C207.403 30.7377 206.958 31.2204 206.674 31.7343C206.282 32.0847 206.051 32.3182 205.979 32.435Z" fill="black"/>
<path d="M221.649 34.9109L221.702 35.0044C221.702 35.0433 221.435 35.1835 220.901 35.4248V35.4715L221.168 35.4248H221.649C223.144 35.4248 223.98 35.7985 224.158 36.546V36.6861C224.158 36.7951 224.14 36.9353 224.105 37.1066C224.14 37.4491 224.158 37.745 224.158 37.9942C224.158 38.8195 223.802 39.6915 223.09 40.6102C222.966 40.6414 222.895 40.6569 222.877 40.6569L222.823 40.5635C222.823 40.4701 222.877 40.3455 222.984 40.1898V40.1431H222.93C222.512 40.8438 222.103 41.3888 221.702 41.7781C220.777 42.5178 219.816 42.9382 218.819 43.0394C218.748 43.0394 218.713 43.0083 218.713 42.946C219.131 42.7669 219.789 42.362 220.688 41.7314V41.6847C220.483 41.8404 220.305 41.9182 220.154 41.9182H220.047C219.976 41.9182 219.94 41.8871 219.94 41.8248C219.94 41.8015 220.047 41.708 220.261 41.5445C219.585 41.856 218.962 42.0117 218.392 42.0117H218.072C217.431 42.0117 217.04 41.7937 216.897 41.3577C216.933 41.2253 217.004 41.0696 217.111 40.8905C216.995 40.8438 216.888 40.6414 216.791 40.2832V39.3956C216.791 38.7805 217.075 38.0331 217.645 37.1533L217.805 37.0599H218.018C218.018 37.1299 218.001 37.1922 217.965 37.2467V37.2934H218.018C218.695 36.2423 219.424 35.5883 220.207 35.3314C220.884 35.0511 221.364 34.9109 221.649 34.9109ZM217.858 37.3869V37.4803H217.912V37.3869H217.858ZM221.222 40.2832C221.222 40.2988 221.204 40.3611 221.168 40.4701C221.222 40.4701 221.275 40.4078 221.329 40.2832H221.222ZM220.901 40.7971C220.901 40.8983 220.741 41.1163 220.421 41.4511H220.474C220.759 41.2019 220.919 40.9995 220.955 40.8438V40.7971H220.901Z" fill="black"/>
<path d="M235.103 18.2803C236.606 18.2803 237.656 18.5762 238.253 19.1679C238.751 19.3625 239 19.7051 239 20.1956V20.2423C239 20.3903 238.786 21.2311 238.359 22.765V23.1854L238.573 24.5401C238.573 25.1319 238.11 26.362 237.185 28.2307C237.185 28.908 236.953 29.9825 236.491 31.454C236.491 32.1392 236.099 33.0735 235.316 34.2569C235.218 34.4672 235.076 35.1523 234.889 36.3124C234.035 38.6092 233.483 39.9173 233.234 40.2365H233.181C233.11 40.2365 233.074 40.2054 233.074 40.1431C233.572 39.0764 233.821 38.1732 233.821 37.4336H233.661C232.771 39.2399 232.326 40.2676 232.326 40.5168C232.326 40.836 231.526 41.5212 229.924 42.5723C229.328 43.0706 228.741 43.3197 228.162 43.3197C227.326 43.3197 226.489 42.8214 225.653 41.8248C225.448 40.8905 225.003 40.0496 224.318 39.3022C223.784 38.9752 223.517 38.3835 223.517 37.527C223.339 37.0054 223.251 36.3358 223.251 35.5182C223.251 35.3781 223.304 34.8642 223.411 33.9766V33.1358C223.58 31.672 223.811 30.9401 224.105 30.9401C224.639 30.6676 224.906 30.3251 224.906 29.9124C225.626 28.3552 226.303 27.3431 226.934 26.8759C226.934 26.7046 227.575 25.8949 228.856 24.4467C228.856 24.3066 229.39 23.6214 230.458 22.3912C231.018 21.1144 231.89 19.9776 233.074 18.981C233.768 18.981 234.444 18.7474 235.103 18.2803ZM228.696 34.9109V35.892C228.696 35.9776 228.661 36.3981 228.589 37.1533V37.4803L228.216 38.1343V39.5358C228.305 39.6915 228.447 39.7693 228.643 39.7693H228.696C229.079 39.7071 229.435 39.4268 229.764 38.9285C230.049 37.7528 230.511 36.8185 231.152 36.1255C231.321 35.8375 231.606 35.09 232.006 33.8832C232.353 33.2837 232.602 32.3805 232.754 31.1737C233.261 30.3328 233.777 29.3518 234.302 28.2307C234.507 28.2307 234.702 27.5922 234.889 26.3153C235.174 25.4511 235.316 24.8905 235.316 24.6336V24.4934C235.316 24.1976 235.263 23.855 235.156 23.4657C235.227 23.1854 235.263 22.983 235.263 22.8584V22.7182C235.263 22.6715 235.192 22.6092 235.049 22.5314H234.729C233.946 22.7416 233.554 23.053 233.554 23.4657C233.305 24.3299 232.825 25.638 232.113 27.3898C232.113 28.7679 231.597 29.8112 230.565 30.5197C230.351 30.8311 230.12 31.345 229.871 32.0613C229.088 33.1825 228.696 34.1324 228.696 34.9109Z" fill="black"/>
</svg>
